<?xml version="1.0" encoding="UTF-8"?>
<svg version="1.1" viewBox="0 0 520.45 189.87" xml:space="preserve" xmlns="http://www.w3.org/2000/svg">
<style type="text/css">
	.st0{fill:#3070b3;}
	.st1{fill:#FFF;}
</style>
    <path class="st0" d="m132.23 60.73c-14.6-4.58-30.08-6.99-45.79-6.99-28.22 0-55.73 7.74-78.7 21.97v7.72c22.6-15 50.25-23.22 78.7-23.22 15.74 0 31.25 2.52 45.79 7.3z"/>
    <path class="st0" d="m132.41 102.45c-14.59 4.82-30.15 7.36-45.96 7.36-28.45 0-56.1-8.21-78.7-23.22v7.72c22.96 14.23 50.47 21.97 78.7 21.97 16.21 0 32.17-2.56 47.18-7.43-0.61-2.01-1.01-4.15-1.22-6.4z"/>
    <path class="st1" d="m163.37 121c-3.41 0-6.5-0.53-9.28-1.58s-5.16-2.54-7.12-4.46c-1.97-1.92-3.49-4.24-4.57-6.98-1.08-2.73-1.62-5.78-1.62-9.14v-31.37h10.07v31.32c0 2.63 0.43 4.81 1.3 6.54 0.86 1.72 1.93 3.09 3.2 4.09 1.27 1.01 2.64 1.7 4.1 2.08s2.77 0.58 3.92 0.58 2.46-0.19 3.92-0.58c1.46-0.38 2.83-1.08 4.1-2.08s2.34-2.37 3.2-4.09 1.3-3.9 1.3-6.54v-31.32h10.07v31.37c0 3.36-0.53 6.4-1.58 9.14-1.05 2.73-2.57 5.06-4.53 6.98-1.97 1.92-4.34 3.41-7.12 4.46-2.79 1.05-5.9 1.58-9.36 1.58z"/>
    <path class="st1" d="m370.51 121.07c-3.41 0-6.5-0.53-9.28-1.58s-5.16-2.54-7.12-4.46c-1.97-1.92-3.49-4.25-4.57-6.98s-1.62-5.78-1.62-9.14v-31.37h10.07v31.32c0 2.63 0.43 4.81 1.3 6.54 0.86 1.72 1.93 3.09 3.2 4.09 1.27 1.01 2.64 1.7 4.1 2.08s2.77 0.57 3.92 0.57 2.46-0.19 3.92-0.57 2.83-1.08 4.1-2.08c1.27-1.01 2.34-2.37 3.2-4.09s1.3-3.9 1.3-6.54v-31.32h10.07v31.37c0 3.36-0.53 6.4-1.58 9.14-1.06 2.73-2.57 5.06-4.53 6.98-1.97 1.92-4.34 3.41-7.12 4.46s-5.91 1.58-9.36 1.58z"/>
    <path class="st1" d="m187.16 120.1 27.08-52.71h1.04l26.85 52.64h-10.96l-16.43-32.92-16.48 32.96c0.01 0-11.1-0.1-11.1 0.03z"/>
    <path class="st1" d="m150.45 126.92c-0.88-0.33-1.72-0.7-2.53-1.1-13.39 20.57-36.57 34.22-62.9 34.22-41.37 0-75.02-33.66-75.02-75.02s33.66-75.02 75.02-75.02c32.27 0 59.82 20.5 70.38 49.15h10.58c-10.98-34.26-43.1-59.15-80.96-59.15-46.88 0-85.02 38.14-85.02 85.02s38.14 85.02 85.02 85.02c30.87 0 57.94-16.54 72.84-41.21-0.31-0.06-0.61-0.14-0.91-0.21-2.29-0.36-4.46-0.92-6.5-1.7z"/>
    <polygon class="st1" transform="translate(-62.53,-106.28)" points="354.08 226.31 355.2 226.31 355.2 173.75 345.13 173.75 345.13 205.55 310.52 173.75 309.44 173.75 309.44 226.31 319.51 226.31 319.51 195.04"/>
    <polygon class="st1" transform="translate(-62.53,-106.28)" points="378.43 182.67 378.43 226.31 388.5 226.31 388.5 182.67 403.54 182.67 403.54 173.75 363.32 173.75 363.32 182.67"/>
    <polygon class="st1" transform="translate(-62.53,-106.28)" points="492.19 219.58 508.66 199.79 508.66 226.31 518.74 226.31 518.74 173.82 518.09 173.82 492.19 204.18 466.36 173.82 465.71 173.82 465.71 226.31 475.78 226.31 475.78 199.79"/>
    <path class="st1" d="m185.96 152.37c-2.09 0.26-4.22 0.45-6.33 0.57-25.2 1.45-49.46-7.01-68.3-23.81s-30.02-39.93-31.46-65.14c-1.08-18.91 3.44-37.47 13.09-53.68l-8.59-5.12c-10.67 17.93-15.68 38.45-14.48 59.36 1.6 27.87 13.95 53.45 34.79 72.03 19.31 17.22 43.76 26.51 69.42 26.51 2.03 0 4.07-0.06 6.11-0.18 1.92-0.11 3.84-0.29 5.75-0.5z"/>
    <path class="st0" d="m234.83 145.08h-15.05v43.78h-10.08v-43.78h-15.12v-8.93h40.25z"/>
    <path class="st0" d="m400.36 179.93v8.93h-37.94v-52.7h10.08v43.78h27.86z"/>
    <path class="st0" d="m440.32 188.86-22.1-23.98v23.98h-10.08v-52.7h10.08v26.78l20.95-26.71h12.38l-21.67 27.22 23.76 25.42h-13.32z"/>
    <path class="st0" d="m472.57 188.86h-10.08v-52.63h10.08z"/>
    <path class="st0" d="m520.45 145.08h-15.05v43.78h-10.08v-43.78h-15.12v-8.93h40.25z"/>
    <path class="st0" d="m290.41 151.89c-1.44-3.33-3.4-6.24-5.87-8.71s-5.36-4.43-8.68-5.87c-3.31-1.44-6.87-2.16-10.66-2.16-2.61 0-5.12 0.36-7.52 1.06l4.26 8.71c1.06-0.22 2.16-0.34 3.29-0.34 2.39 0 4.63 0.49 6.72 1.48 2.08 0.98 3.9 2.29 5.46 3.92s2.79 3.54 3.7 5.72 1.37 4.45 1.37 6.8c0 2.4-0.46 4.68-1.37 6.84s-2.14 4.07-3.7 5.72c-1.56 1.66-3.38 2.98-5.46 3.96s-4.32 1.48-6.72 1.48-4.63-0.49-6.72-1.48c-2.08-0.98-3.9-2.3-5.46-3.96s-2.79-3.56-3.7-5.72-1.37-4.44-1.37-6.84c0-2.35 0.46-4.62 1.37-6.8s2.14-4.09 3.7-5.72c0.16-0.17 0.33-0.32 0.5-0.48l-4.42-9.03c-1.13 0.83-2.2 1.71-3.2 2.7-2.47 2.47-4.43 5.38-5.87 8.71-1.44 3.34-2.16 6.88-2.16 10.62 0 3.79 0.72 7.34 2.16 10.66 1.44 3.31 3.4 6.2 5.87 8.68 2.47 2.47 5.36 4.43 8.68 5.87 3.31 1.44 6.84 2.16 10.58 2.16 3.79 0 7.34-0.72 10.66-2.16 3.31-1.44 6.2-3.4 8.68-5.87 2.47-2.47 4.43-5.36 5.87-8.68 1.44-3.31 2.16-6.86 2.16-10.66 0.01-3.74-0.71-7.28-2.15-10.61z"/>
    <path class="st0" d="m351.23 151.89c-1.44-3.33-3.4-6.24-5.87-8.71s-5.36-4.43-8.68-5.87c-3.31-1.44-6.87-2.16-10.66-2.16-2.61 0-5.12 0.36-7.52 1.06l4.26 8.71c1.06-0.22 2.16-0.34 3.29-0.34 2.39 0 4.63 0.49 6.72 1.48 2.08 0.98 3.9 2.29 5.46 3.92s2.79 3.54 3.7 5.72 1.37 4.45 1.37 6.8c0 2.4-0.46 4.68-1.37 6.84s-2.14 4.07-3.7 5.72c-1.56 1.66-3.38 2.98-5.46 3.96s-4.32 1.48-6.72 1.48-4.63-0.49-6.72-1.48c-2.08-0.98-3.9-2.3-5.46-3.96s-2.79-3.56-3.7-5.72-1.37-4.44-1.37-6.84c0-2.35 0.46-4.62 1.37-6.8s2.14-4.09 3.7-5.72c0.16-0.17 0.33-0.32 0.5-0.48l-4.42-9.03c-1.13 0.83-2.2 1.71-3.2 2.7-2.47 2.47-4.43 5.38-5.87 8.71-1.44 3.34-2.16 6.88-2.16 10.62 0 3.79 0.72 7.34 2.16 10.66 1.44 3.31 3.4 6.2 5.87 8.68 2.47 2.47 5.36 4.43 8.68 5.87 3.31 1.44 6.84 2.16 10.58 2.16 3.79 0 7.34-0.72 10.66-2.16 3.31-1.44 6.2-3.4 8.68-5.87 2.47-2.47 4.43-5.36 5.87-8.68 1.44-3.31 2.16-6.86 2.16-10.66 0.01-3.74-0.71-7.28-2.15-10.61z"/>

    <g transform="translate(172.54 51.315)"><path class="st0" d="m102.64 0-20.726-18.705v18.705h-5.977v-31.433h0.645l20.683 19.006v-19.006h6.02v31.433z"/><path class="st0" d="m55.556 0.559q-3.053 0-5.547-0.946t-4.257-2.666-2.752-4.171q-0.946-2.451-0.946-5.461v-18.748h6.02v18.748q0 2.365 0.774 3.913t1.892 2.451q1.161 0.903 2.451 1.247 1.333 0.344 2.365 0.344t2.322-0.344q1.333-0.344 2.451-1.247 1.161-0.903 1.935-2.451t0.774-3.913v-18.748h6.02v18.748q0 3.01-0.946 5.461t-2.709 4.171-4.257 2.666-5.59 0.946z"/><path class="st0" d="m35.131-31.433v31.433h-6.02v-15.91l-9.847 11.825-9.804-11.825v15.91h-6.02v-31.433h0.387l15.437 18.146 15.48-18.146z"/><path class="st0" d="m117.05 0h-6.02v-31.433h6.02z"/><path class="st0" d="m184.9-31.476v31.476h-5.977v-12.513h-15.566v12.513h-5.977v-31.476h5.977v13.588h15.566v-13.588z"/><path class="st0" d="m152.74-7.74q-1.032 1.892-2.537 3.44-1.505 1.505-3.354 2.623-1.806 1.075-3.956 1.677-2.107 0.602-4.386 0.602-3.354 0-6.321-1.29t-5.203-3.483q-2.193-2.236-3.483-5.203t-1.29-6.321 1.29-6.321 3.483-5.16q2.236-2.236 5.203-3.526t6.321-1.29q2.279 0 4.386 0.602 2.15 0.602 3.956 1.72 1.849 1.075 3.354 2.623 1.505 1.505 2.537 3.354l-5.633 2.279q-0.688-1.032-1.634-1.935-0.903-0.903-2.021-1.591t-2.365-1.075-2.58-0.387q-2.15 0-4.042 0.903-1.849 0.86-3.225 2.322t-2.193 3.44q-0.817 1.935-0.817 4.042 0 2.15 0.817 4.085t2.193 3.397 3.225 2.365q1.892 0.86 4.042 0.86 1.333 0 2.58-0.387t2.365-1.075 2.021-1.591q0.946-0.946 1.634-1.978z"/></g>
</svg>
