<?xml version="1.0" encoding="UTF-8"?>
<svg version="1.1" viewBox="0 0 566.21 180.2" xml:space="preserve" xmlns="http://www.w3.org/2000/svg" xmlns:cc="http://creativecommons.org/ns#" xmlns:dc="http://purl.org/dc/elements/1.1/" xmlns:rdf="http://www.w3.org/1999/02/22-rdf-syntax-ns#"><metadata><rdf:RDF><cc:Work rdf:about=""><dc:format>image/svg+xml</dc:format><dc:type rdf:resource="http://purl.org/dc/dcmitype/StillImage"/><dc:title/></cc:Work></rdf:RDF></metadata><g transform="matrix(1.3333 0 0 -1.3333 -53.044 218.85)" fill="#1a8ab9"><path transform="translate(84.557 163.65)" d="m0 0h8.865l8.28-22.635h0.135l8.19 22.635h8.91v-31.86h-5.625v25.605h-0.09l-9.675-25.605h-3.96l-9.54 25.605h-0.09v-25.605h-5.4z"/><path d="m145.4 131.79h-5.13v3.465h-0.09c-0.48-1.08-1.313-2.033-2.498-2.858-1.185-0.824-2.587-1.237-4.207-1.237-1.41 0-2.618 0.248-3.623 0.742-1.005 0.495-1.83 1.148-2.474 1.958-0.646 0.81-1.119 1.74-1.418 2.79-0.3 1.05-0.45 2.13-0.45 3.24v13.5h5.4v-11.97c0-0.63 0.045-1.29 0.135-1.98 0.09-0.691 0.285-1.313 0.585-1.867 0.299-0.556 0.712-1.013 1.237-1.373s1.222-0.54 2.093-0.54c0.839 0 1.582 0.172 2.227 0.518 0.645 0.344 1.171 0.787 1.575 1.327 0.405 0.54 0.713 1.162 0.923 1.868 0.209 0.704 0.315 1.417 0.315 2.137v11.88h5.4z"/><path d="m151.88 153.39h5.13v-3.465h0.09c0.479 1.08 1.312 2.032 2.497 2.858 1.185 0.824 2.588 1.237 4.208 1.237 1.409 0 2.617-0.248 3.622-0.743 1.005-0.494 1.83-1.147 2.475-1.957s1.118-1.741 1.418-2.79c0.299-1.051 0.45-2.131 0.45-3.24v-13.5h-5.4v11.97c0 0.63-0.045 1.29-0.135 1.98s-0.286 1.312-0.585 1.867c-0.3 0.555-0.713 1.013-1.238 1.373s-1.222 0.54-2.092 0.54c-0.871 0-1.62-0.173-2.25-0.518s-1.148-0.787-1.553-1.327-0.713-1.163-0.922-1.868c-0.211-0.705-0.315-1.417-0.315-2.137v-11.88h-5.4z"/><path d="m178.16 153.39h5.4v-21.6h-5.4zm-0.765 7.335c0 0.87 0.322 1.627 0.967 2.272s1.463 0.968 2.453 0.968 1.822-0.308 2.497-0.923 1.013-1.387 1.013-2.317-0.338-1.703-1.013-2.317c-0.675-0.616-1.507-0.923-2.497-0.923s-1.808 0.322-2.453 0.967-0.967 1.402-0.967 2.273"/><path d="m204.89 147.4c-0.42 0.6-1.05 1.102-1.89 1.507s-1.695 0.608-2.565 0.608c-0.989 0-1.86-0.203-2.609-0.608-0.751-0.405-1.374-0.938-1.869-1.597-0.495-0.66-0.862-1.403-1.102-2.228s-0.36-1.658-0.36-2.497c0-0.84 0.127-1.673 0.382-2.497 0.255-0.826 0.638-1.569 1.148-2.228 0.51-0.661 1.148-1.193 1.913-1.598s1.657-0.607 2.678-0.607c0.838 0 1.679 0.164 2.519 0.495 0.84 0.33 1.515 0.81 2.026 1.44l3.375-3.42c-0.901-0.961-2.048-1.703-3.443-2.228-1.395-0.524-2.903-0.787-4.522-0.787-1.591 0-3.099 0.255-4.523 0.765-1.426 0.509-2.671 1.26-3.735 2.25-1.066 0.99-1.906 2.189-2.521 3.6-0.615 1.409-0.922 3.015-0.922 4.815 0 1.739 0.307 3.315 0.922 4.725 0.615 1.409 1.448 2.61 2.498 3.6s2.273 1.755 3.667 2.295c1.396 0.54 2.888 0.81 4.478 0.81s3.128-0.301 4.613-0.9c1.485-0.601 2.661-1.425 3.532-2.475z"/><path d="m56.838 113.37c-1.53 0-2.963-0.286-4.298-0.855-1.335-0.57-2.482-1.35-3.442-2.34-0.961-0.99-1.718-2.176-2.273-3.555-0.555-1.38-0.832-2.88-0.832-4.5 0-1.71 0.262-3.263 0.787-4.657 0.525-1.395 1.26-2.588 2.205-3.578s2.077-1.763 3.398-2.317c1.32-0.556 2.774-0.833 4.365-0.833 1.559 0 3.007 0.277 4.342 0.833 1.335 0.554 2.482 1.327 3.443 2.317 0.96 0.99 1.71 2.183 2.25 3.578 0.54 1.394 0.81 2.947 0.81 4.657 0 1.62-0.255 3.12-0.765 4.5-0.51 1.379-1.238 2.565-2.183 3.555s-2.078 1.77-3.397 2.34c-1.321 0.569-2.79 0.855-4.41 0.855m19.125-27.585h-19.215c-2.551 0-4.868 0.367-6.952 1.102-2.086 0.735-3.871 1.8-5.356 3.195s-2.632 3.105-3.442 5.131c-0.81 2.025-1.215 4.326-1.215 6.907 0 2.43 0.427 4.642 1.282 6.638 0.856 1.994 2.048 3.712 3.578 5.152s3.337 2.557 5.422 3.353c2.085 0.794 4.343 1.192 6.773 1.192s4.68-0.398 6.75-1.192c2.07-0.796 3.862-1.913 5.377-3.353s2.692-3.158 3.533-5.152c0.84-1.996 1.26-4.208 1.26-6.638 0-1.44-0.166-2.76-0.495-3.96-0.331-1.2-0.758-2.288-1.283-3.263s-1.125-1.83-1.8-2.565-1.372-1.357-2.092-1.867v-0.091h7.875z"/><path d="m99.407 85.787h-5.13v3.465h-0.09c-0.48-1.08-1.313-2.032-2.498-2.858-1.185-0.824-2.587-1.237-4.207-1.237-1.41 0-2.618 0.248-3.623 0.742-1.005 0.495-1.83 1.148-2.474 1.958-0.646 0.81-1.119 1.74-1.418 2.79-0.3 1.05-0.45 2.13-0.45 3.241v13.5h5.4v-11.971c0-0.63 0.045-1.29 0.135-1.98s0.285-1.312 0.585-1.867c0.299-0.555 0.712-1.012 1.237-1.373 0.525-0.36 1.222-0.54 2.093-0.54 0.839 0 1.582 0.173 2.227 0.518 0.645 0.344 1.171 0.787 1.575 1.327 0.405 0.54 0.713 1.163 0.923 1.868 0.209 0.705 0.315 1.417 0.315 2.138v11.88h5.4z"/><path d="m119.21 95.643h-1.215c-0.87 0-1.785-0.038-2.745-0.112-0.96-0.075-1.845-0.241-2.655-0.495-0.81-0.256-1.485-0.616-2.025-1.08-0.54-0.466-0.81-1.103-0.81-1.913 0-0.51 0.113-0.938 0.337-1.283 0.225-0.345 0.518-0.623 0.878-0.832 0.36-0.211 0.765-0.36 1.215-0.45s0.9-0.135 1.35-0.135c1.86 0 3.27 0.494 4.23 1.485 0.96 0.99 1.44 2.34 1.44 4.05zm0.09-7.11h-0.135c-0.54-0.96-1.411-1.748-2.61-2.363-1.2-0.614-2.565-0.923-4.095-0.923-0.871 0-1.777 0.113-2.723 0.338-0.944 0.225-1.815 0.6-2.61 1.125s-1.455 1.215-1.98 2.071c-0.525 0.854-0.787 1.912-0.787 3.172 0 1.62 0.457 2.91 1.372 3.87s2.093 1.695 3.533 2.205 3.037 0.847 4.793 1.012c1.755 0.165 3.471 0.248 5.152 0.248v0.54c0 1.35-0.488 2.347-1.462 2.993-0.976 0.644-2.138 0.967-3.488 0.967-1.14 0-2.235-0.24-3.285-0.72-1.051-0.48-1.92-1.065-2.61-1.755l-2.79 3.285c1.23 1.14 2.647 1.995 4.253 2.565 1.604 0.569 3.232 0.855 4.882 0.855 1.919 0 3.502-0.27 4.748-0.81 1.244-0.54 2.227-1.245 2.947-2.115s1.222-1.845 1.508-2.925c0.284-1.08 0.427-2.16 0.427-3.24v-13.14h-5.04z"/><path d="m130.64 107.39h5.13v-3.465h0.09c0.479 1.08 1.312 2.032 2.497 2.858 1.185 0.824 2.588 1.237 4.208 1.237 1.409 0 2.617-0.248 3.622-0.743 1.005-0.494 1.83-1.147 2.475-1.957s1.118-1.741 1.418-2.79c0.299-1.051 0.45-2.131 0.45-3.24v-13.501h-5.4v11.971c0 0.63-0.045 1.29-0.135 1.98s-0.286 1.312-0.585 1.867c-0.3 0.555-0.713 1.013-1.238 1.373s-1.222 0.54-2.092 0.54c-0.871 0-1.62-0.173-2.25-0.518s-1.148-0.787-1.553-1.327-0.713-1.163-0.922-1.868c-0.211-0.705-0.315-1.417-0.315-2.137v-11.881h-5.4z"/><path d="m191.84 85.787h-5.13v3.465h-0.09c-0.48-1.08-1.313-2.032-2.498-2.858-1.185-0.824-2.587-1.237-4.207-1.237-1.41 0-2.618 0.248-3.623 0.742-1.005 0.495-1.83 1.148-2.474 1.958-0.646 0.81-1.119 1.74-1.418 2.79-0.3 1.05-0.45 2.13-0.45 3.241v13.5h5.4v-11.971c0-0.63 0.045-1.29 0.135-1.98s0.285-1.312 0.585-1.867c0.299-0.555 0.712-1.012 1.237-1.373 0.525-0.36 1.222-0.54 2.093-0.54 0.839 0 1.582 0.173 2.227 0.518 0.645 0.344 1.171 0.787 1.575 1.327 0.405 0.54 0.713 1.163 0.923 1.868 0.209 0.705 0.315 1.417 0.315 2.138v11.88h5.4z"/><path d="m224.1 108.02c1.409 0 2.617-0.248 3.622-0.743 1.005-0.494 1.83-1.147 2.476-1.957 0.644-0.81 1.117-1.74 1.417-2.79 0.299-1.051 0.45-2.131 0.45-3.24v-13.5h-5.401v11.97c0 0.63-0.044 1.29-0.134 1.98s-0.285 1.312-0.585 1.867-0.713 1.013-1.238 1.373-1.222 0.54-2.092 0.54c-0.84 0-1.56-0.18-2.161-0.54-0.6-0.36-1.094-0.825-1.484-1.395-0.391-0.57-0.675-1.208-0.855-1.913s-0.27-1.402-0.27-2.092v-11.79h-5.4v13.05c0 1.35-0.323 2.467-0.968 3.352-0.646 0.885-1.657 1.328-3.037 1.328-0.81 0-1.516-0.173-2.115-0.518-0.601-0.345-1.088-0.787-1.462-1.327-0.376-0.54-0.66-1.163-0.856-1.867-0.195-0.705-0.292-1.418-0.292-2.138v-11.88h-5.4v21.6h5.13v-3.465h0.09c0.24 0.54 0.562 1.05 0.967 1.53 0.406 0.48 0.885 0.915 1.441 1.305 0.554 0.389 1.192 0.698 1.912 0.923s1.515 0.337 2.385 0.337c1.679 0 3.075-0.375 4.185-1.125s1.964-1.74 2.565-2.97c0.719 1.32 1.679 2.332 2.88 3.037 1.2 0.705 2.61 1.058 4.23 1.058"/><path d="m109.4 71.648h6.345l8.775-24.525h0.18l8.865 24.525h6.12l-12.78-31.86h-4.905z"/><path d="m153.9 49.643h-1.215c-0.87 0-1.785-0.038-2.745-0.112-0.96-0.075-1.845-0.242-2.655-0.495-0.81-0.256-1.485-0.616-2.025-1.08-0.54-0.466-0.81-1.103-0.81-1.914 0-0.509 0.113-0.937 0.337-1.282 0.225-0.345 0.518-0.623 0.878-0.832 0.36-0.211 0.765-0.36 1.215-0.45s0.9-0.135 1.35-0.135c1.86 0 3.27 0.494 4.23 1.485 0.96 0.99 1.44 2.339 1.44 4.049zm0.09-7.11h-0.135c-0.54-0.96-1.411-1.748-2.61-2.363-1.2-0.614-2.565-0.923-4.095-0.923-0.871 0-1.777 0.113-2.723 0.338-0.944 0.225-1.815 0.6-2.61 1.125s-1.455 1.215-1.98 2.071c-0.525 0.854-0.787 1.912-0.787 3.172 0 1.62 0.457 2.91 1.372 3.87s2.093 1.694 3.533 2.205c1.44 0.51 3.037 0.847 4.793 1.012 1.755 0.165 3.471 0.248 5.152 0.248v0.54c0 1.35-0.488 2.347-1.462 2.993-0.976 0.644-2.138 0.967-3.488 0.967-1.14 0-2.235-0.241-3.285-0.72-1.051-0.481-1.92-1.066-2.61-1.755l-2.79 3.285c1.23 1.14 2.647 1.994 4.253 2.565 1.604 0.569 3.232 0.855 4.882 0.855 1.919 0 3.502-0.271 4.748-0.811 1.244-0.54 2.227-1.245 2.947-2.114 0.72-0.871 1.222-1.846 1.508-2.926 0.284-1.08 0.427-2.159 0.427-3.239v-13.14h-5.04z"/><path d="m204.66 52.747c0 0.69-0.098 1.351-0.292 1.98-0.196 0.63-0.503 1.185-0.923 1.666-0.421 0.479-0.953 0.861-1.598 1.147-0.645 0.284-1.402 0.428-2.272 0.428-1.62 0-2.992-0.489-4.117-1.463-1.125-0.976-1.748-2.228-1.868-3.758zm5.4-2.43v-0.719c0-0.242-0.015-0.481-0.045-0.721h-16.425c0.06-0.78 0.262-1.492 0.607-2.137s0.803-1.2 1.373-1.665c0.569-0.466 1.215-0.833 1.935-1.102 0.72-0.271 1.469-0.406 2.25-0.406 1.35 0 2.49 0.247 3.42 0.742 0.929 0.496 1.695 1.178 2.295 2.048l3.6-2.88c-2.131-2.879-5.22-4.32-9.27-4.32-1.68 0-3.225 0.263-4.635 0.788s-2.633 1.267-3.668 2.227-1.845 2.137-2.43 3.533c-0.585 1.395-0.877 2.977-0.877 4.747 0 1.739 0.292 3.322 0.877 4.748 0.585 1.424 1.387 2.64 2.408 3.645 1.02 1.005 2.228 1.784 3.622 2.34 1.396 0.554 2.903 0.833 4.523 0.833 1.5 0 2.887-0.249 4.162-0.744 1.275-0.494 2.378-1.23 3.308-2.204 0.929-0.975 1.657-2.19 2.182-3.645s0.788-3.157 0.788-5.108"/><path d="m212.04 61.388h5.984l6.031-15.705h0.089l5.356 15.705h5.625l-10.215-26.235c-0.391-0.991-0.81-1.868-1.261-2.633-0.449-0.765-0.989-1.409-1.619-1.935-0.631-0.524-1.373-0.923-2.227-1.192-0.856-0.271-1.884-0.405-3.083-0.405-0.451 0-0.908 0.022-1.372 0.067-0.466 0.045-0.939 0.128-1.418 0.247l0.45 4.681c0.36-0.119 0.712-0.202 1.057-0.248 0.345-0.045 0.667-0.068 0.968-0.068 0.57 0 1.049 0.068 1.44 0.203 0.389 0.135 0.719 0.345 0.99 0.63 0.269 0.285 0.51 0.638 0.72 1.058s0.434 0.915 0.674 1.484l1.081 2.745z"/><path d="m165.42 39.787h5.4v31.886h-5.4z"/><path d="m177.48 39.787h5.4v31.886h-5.4z"/><path d="m231.61 148.53c-0.3 1.049-0.772 1.98-1.417 2.79-0.646 0.81-1.471 1.462-2.476 1.957-1.004 0.495-2.212 0.743-3.622 0.743-0.81 0-1.56-0.106-2.25-0.315-0.69-0.211-1.304-0.488-1.844-0.833s-1.013-0.735-1.418-1.17c-0.406-0.435-0.713-0.877-0.923-1.327h-0.09v13.589h-5.399v-32.174h5.399v11.79c0 0.72 0.105 1.424 0.315 2.115 0.209 0.689 0.525 1.312 0.946 1.867 0.419 0.555 0.944 0.997 1.574 1.328 0.63 0.329 1.38 0.495 2.25 0.495s1.567-0.18 2.093-0.54c0.524-0.36 0.929-0.818 1.215-1.373 0.285-0.555 0.472-1.17 0.562-1.845s0.135-1.327 0.135-1.957v-11.88h5.4v13.5c0 1.109-0.15 2.189-0.45 3.24"/><path d="m168.21 103.07v4.32h-5.4v6.255h-7e-3v1.224h-5.306v-1.923h3e-3v-5.556h-3.78v-4.32h3.78v-10.08c0-1.05 0.097-2.032 0.293-2.947 0.194-0.916 0.554-1.726 1.08-2.431 0.524-0.705 1.237-1.26 2.137-1.664 0.9-0.405 2.07-0.608 3.51-0.608 0.6 0 1.23 0.052 1.89 0.158 0.659 0.105 1.23 0.247 1.71 0.426l-0.18 4.231c-0.331-0.15-0.705-0.263-1.125-0.338s-0.81-0.112-1.17-0.112c-1.2 0-1.973 0.315-2.317 0.945-0.346 0.63-0.518 1.425-0.518 2.385v10.035z"/><path d="m433.71 69.328c-26.938-11.42-43.366 10.147-63.392 38.73 37.52 18.72 73.207 21.755 83.164-1.732 4.333-10.22-2.667-29.747-19.772-36.998m-69.911 48.021c-23.295 33.317-61.134 58.228-100.89 41.375-3.695-1.566-7.357-3.336-10.978-5.286v-32.723c6.081 3.961 11.808 7.155 16.943 9.332 25.277 10.715 52.975-9.36 70.905-26.122-25.96-17.564-57.726-42.188-87.848-64.035v-0.101h19.94c26.705 18.995 53.348 38.58 76.236 54.797 26.425-26.316 48.097-56.042 86.224-39.879 26.773 11.35 35.399 37.466 27.038 57.19-7.104 16.757-42.273 31.56-97.573 5.452"/></g></svg>
