<?xml version="1.0" encoding="UTF-8"?>
<svg version="1.1" viewBox="0 0 185.96 170.04" xml:space="preserve" xmlns="http://www.w3.org/2000/svg">
<g transform="translate(-62.53,-106.28)">
<path d="m224 175.9c-17.05-7.2536-35.375-12.158-54.219-14.349-33.85-3.9364-67.631 1.0427-96.621 14.048l-0.78009 8.7937c28.625-13.934 62.622-19.44 96.748-15.472 18.88 2.1956 37.23 7.2296 54.188 14.703z" fill="#3070b3"/><path d="m71.516 202.37c16.963 7.6686 35.228 12.961 54.044 15.495 33.8 4.5512 67.637 7e-3 96.779-12.798l0.88416-8.9572c-28.787 13.759-62.846 18.837-96.922 14.249-18.852-2.5385-37.141-7.9637-54.009-15.855z" fill="#3070b3"/><path transform="translate(62.53,106.28)" d="m85.1 0.095703a85.005 85.004 0 0 0-85.004 85.004 85.005 85.004 0 0 0 85.004 85.006 85.005 85.004 0 0 0 85.006-85.006 85.005 85.004 0 0 0-85.006-85.004zm-0.15234 9.8008a75.021 75.118 0 0 1 75.02 75.117 75.021 75.118 0 0 1-75.02 75.119 75.021 75.118 0 0 1-75.021-75.119 75.021 75.118 0 0 1 75.021-75.117z" fill="#3c3c3c"/><path d="m248.49 258.65c-2.09 0.26-4.22 0.45-6.33 0.57-25.2 1.45-49.46-7.01-68.3-23.81s-30.02-39.93-31.46-65.14c-1.08-18.91 3.44-37.47 13.09-53.68l-8.59-5.12c-10.67 17.93-15.68 38.45-14.48 59.36 1.6 27.87 13.95 53.45 34.79 72.03 19.31 17.22 43.76 26.51 69.42 26.51 2.03 0 4.07-0.06 6.11-0.18 1.92-0.11 3.84-0.29 5.75-0.5z" fill="#3c3c3c"/></g>
</svg>
