<?xml version="1.0" encoding="UTF-8" standalone="no"?>
<!-- Generator: Adobe Illustrator 26.0.1, SVG Export Plug-In . SVG Version: 6.00 Build 0)  -->

<svg
   version="1.1"
   id="Ebene_1"
   x="0px"
   y="0px"
   viewBox="0 0 185.96 170.03999"
   xml:space="preserve"
   sodipodi:docname="logo-q-dark.svg"
   inkscape:version="1.4 (e7c3feb1, 2024-10-09)"
   width="185.96001"
   height="170.03999"
   xmlns:inkscape="http://www.inkscape.org/namespaces/inkscape"
   xmlns:sodipodi="http://sodipodi.sourceforge.net/DTD/sodipodi-0.dtd"
   xmlns="http://www.w3.org/2000/svg"
   xmlns:svg="http://www.w3.org/2000/svg"><defs
   id="defs17" /><sodipodi:namedview
   id="namedview17"
   pagecolor="#ffffff"
   bordercolor="#000000"
   borderopacity="0.25"
   inkscape:showpageshadow="2"
   inkscape:pageopacity="0.0"
   inkscape:pagecheckerboard="0"
   inkscape:deskcolor="#d1d1d1"
   inkscape:zoom="3.6340942"
   inkscape:cx="111.03179"
   inkscape:cy="58.336407"
   inkscape:window-width="2056"
   inkscape:window-height="1257"
   inkscape:window-x="0"
   inkscape:window-y="44"
   inkscape:window-maximized="0"
   inkscape:current-layer="g17"
   showguides="true"><sodipodi:guide
     position="10.104614,60.685605"
     orientation="1,0"
     id="guide4"
     inkscape:locked="false" /><sodipodi:guide
     position="15.269195,81.568476"
     orientation="0,-1"
     id="guide5"
     inkscape:locked="false" /><sodipodi:guide
     position="26.241816,91.506087"
     orientation="0,-1"
     id="guide6"
     inkscape:locked="false" /><sodipodi:guide
     position="83.914247,154.03323"
     orientation="1,0"
     id="guide53"
     inkscape:locked="false" /></sodipodi:namedview>
<style
   type="text/css"
   id="style1">
	.st0{fill:#006FB7;}
	.st1{fill:#3D3D3C;}
	.st2{fill:#3C3C3B;}
	.st3{fill:none;}
	.st4{font-family:'Geometos';}
	.st5{font-size:43px;}
</style>
<g
   id="g17"
   transform="translate(-62.53,-106.28)">



















<path
   class="st0"
   d="m 224.00317,176.97236 c -17.05002,-6.3353 -35.37488,-10.61891 -54.21915,-12.53289 -33.85012,-3.43809 -67.6307,0.91071 -96.621318,12.26941 l -0.78009,7.68048 c 28.624608,-12.16983 62.621608,-16.97912 96.747628,-13.51301 18.88025,1.91764 37.22998,6.31435 54.18783,12.84131 z"
   id="path1"
   style="fill:#006fb7;stroke-width:1.09803" /><path
   class="st0"
   d="m 71.516493,201.24368 c 16.962545,6.56591 35.227637,11.0976 54.044227,13.26691 33.8004,3.89677 67.63684,0.006 96.77881,-10.95814 l 0.88416,-7.6692 c -28.787,11.78059 -62.84608,16.12847 -96.92197,12.19992 -18.8525,-2.17345 -37.140941,-6.81858 -54.008725,-13.57487 z"
   id="path1-6"
   style="fill:#006fb7;stroke-width:1.09803" /><path
   style="fill:#ffffff;fill-opacity:1;stroke:none;stroke-width:1.94251;stroke-opacity:1"
   d="M 85.099609,0.09570312 A 85.004501,85.004494 0 0 0 0.09570312,85.099609 85.004501,85.004494 0 0 0 85.099609,170.10547 85.004501,85.004494 0 0 0 170.10547,85.099609 85.004501,85.004494 0 0 0 85.099609,0.09570312 Z M 84.947266,9.8964844 A 75.021217,75.118134 0 0 1 159.9668,85.013672 75.021217,75.118134 0 0 1 84.947266,160.13281 75.021217,75.118134 0 0 1 9.9257812,85.013672 75.021217,75.118134 0 0 1 84.947266,9.8964844 Z"
   id="path3"
   transform="translate(62.53,106.28)" /><path
   class="st2"
   d="m 248.49,258.65 c -2.09,0.26 -4.22,0.45 -6.33,0.57 -25.2,1.45 -49.46,-7.01 -68.3,-23.81 -18.84,-16.8 -30.02,-39.93 -31.46,-65.14 -1.08,-18.91 3.44,-37.47 13.09,-53.68 l -8.59,-5.12 c -10.67,17.93 -15.68,38.45 -14.48,59.36 1.6,27.87 13.95,53.45 34.79,72.03 19.31,17.22 43.76,26.51 69.42,26.51 2.03,0 4.07,-0.06 6.11,-0.18 1.92,-0.11 3.84,-0.29 5.75,-0.5 z"
   id="path8"
   style="fill:#ffffff;fill-opacity:1" /></g>
</svg>
