<?xml version="1.0" encoding="UTF-8" standalone="no"?>
<!-- Generator: Adobe Illustrator 26.0.1, SVG Export Plug-In . SVG Version: 6.00 Build 0)  -->

<svg
   version="1.1"
   id="Ebene_1"
   x="0px"
   y="0px"
   viewBox="0 0 690.97509 172.99267"
   xml:space="preserve"
   sodipodi:docname="logo-mqsc-dark.svg"
   inkscape:version="1.4 (e7c3feb1, 2024-10-09)"
   width="690.9751"
   height="172.99268"
   xmlns:inkscape="http://www.inkscape.org/namespaces/inkscape"
   xmlns:sodipodi="http://sodipodi.sourceforge.net/DTD/sodipodi-0.dtd"
   xmlns="http://www.w3.org/2000/svg"
   xmlns:svg="http://www.w3.org/2000/svg"
   xmlns:rdf="http://www.w3.org/1999/02/22-rdf-syntax-ns#"
   xmlns:cc="http://creativecommons.org/ns#"
   xmlns:dc="http://purl.org/dc/elements/1.1/"><title
   id="title21">Munich Quantum Software Company</title><defs
   id="defs17"><clipPath
     clipPathUnits="userSpaceOnUse"
     id="clipPath24"><path
       d="M 0,821.859 H 1461.753 V 0 H 0 Z"
       transform="translate(-576.58151,-219.49821)"
       id="path24" /></clipPath><clipPath
     clipPathUnits="userSpaceOnUse"
     id="clipPath38"><path
       d="M 0,821.859 H 1461.753 V 0 H 0 Z"
       transform="translate(-690.12352,-252.85821)"
       id="path38" /></clipPath><clipPath
     clipPathUnits="userSpaceOnUse"
     id="clipPath38-5"><path
       d="M 0,821.859 H 1461.753 V 0 H 0 Z"
       transform="translate(-690.12352,-252.85821)"
       id="path38-5" /></clipPath></defs><sodipodi:namedview
   id="namedview17"
   pagecolor="#ffffff"
   bordercolor="#000000"
   borderopacity="0.25"
   inkscape:showpageshadow="2"
   inkscape:pageopacity="0.0"
   inkscape:pagecheckerboard="true"
   inkscape:deskcolor="#d1d1d1"
   inkscape:zoom="1.2496701"
   inkscape:cx="354.09345"
   inkscape:cy="133.63527"
   inkscape:window-width="2056"
   inkscape:window-height="1257"
   inkscape:window-x="0"
   inkscape:window-y="44"
   inkscape:window-maximized="0"
   inkscape:current-layer="g17"
   showguides="true"
   showgrid="true"><inkscape:grid
     id="grid17"
     units="px"
     originx="-11.864033"
     originy="-4.9992938"
     spacingx="0.99999998"
     spacingy="0.99999997"
     empcolor="#0099e5"
     empopacity="0.30196078"
     color="#0099e5"
     opacity="0.14902"
     empspacing="5"
     enabled="true"
     visible="true"
     dotted="false" /><sodipodi:guide
     position="-3.5527136e-14,173.36373"
     orientation="0,706.08826"
     id="guide17"
     inkscape:locked="false" /><sodipodi:guide
     position="706.08824,173.36373"
     orientation="173.36374,0"
     id="guide18"
     inkscape:locked="false" /><sodipodi:guide
     position="706.08824,0"
     orientation="0,-706.08826"
     id="guide19"
     inkscape:locked="false" /><sodipodi:guide
     position="-3.5527136e-14,0"
     orientation="-173.36374,0"
     id="guide20"
     inkscape:locked="false" /></sodipodi:namedview>
<style
   type="text/css"
   id="style1">
	.st0{fill:#006FB7;}
	.st1{fill:#3D3D3C;}
	.st2{fill:#3C3C3B;}
	.st3{fill:none;}
	.st4{font-family:'Geometos';}
	.st5{font-size:43px;}
</style>
<g
   id="g17"
   transform="translate(-11.864033,-4.9992939)">
	<path
   class="st0"
   d="m 144.09404,65.729294 c -14.6,-4.58 -30.08,-6.99 -45.790007,-6.99 -28.22,0 -55.73,7.74 -78.7,21.97 v 7.72 c 22.6,-15 50.25,-23.22 78.7,-23.22 15.740007,0 31.250007,2.52 45.790007,7.3 z"
   id="path1" />
	<path
   class="st0"
   d="m 144.27404,107.44929 c -14.59,4.82 -30.15,7.36 -45.960007,7.36 -28.45,0 -56.1,-8.21 -78.7,-23.219996 v 7.72 c 22.96,14.229996 50.47,21.969996 78.7,21.969996 16.210007,0 32.170007,-2.56 47.180007,-7.43 -0.61,-2.01 -1.01,-4.15 -1.22,-6.4 z"
   id="path2" />
	<path
   class="st1"
   d="m 175.23404,125.99929 c -3.41,0 -6.5,-0.53 -9.28,-1.58 -2.78,-1.05 -5.16,-2.54 -7.12,-4.46 -1.97,-1.92 -3.49,-4.24 -4.57,-6.98 -1.08,-2.73 -1.62,-5.78 -1.62,-9.14 V 72.469294 h 10.07 v 31.319996 c 0,2.63 0.43,4.81 1.3,6.54 0.86,1.72 1.93,3.09 3.2,4.09 1.27,1.01 2.64,1.7 4.1,2.08 1.46,0.38 2.77,0.58 3.92,0.58 1.15,0 2.46,-0.19 3.92,-0.58 1.46,-0.38 2.83,-1.08 4.1,-2.08 1.27,-1 2.34,-2.37 3.2,-4.09 0.86,-1.72 1.3,-3.9 1.3,-6.54 V 72.469294 h 10.07 v 31.369996 c 0,3.36 -0.53,6.4 -1.58,9.14 -1.05,2.73 -2.57,5.06 -4.53,6.98 -1.97,1.92 -4.34,3.41 -7.12,4.46 -2.79,1.05 -5.9,1.58 -9.36,1.58 z"
   id="path3"
   style="fill:#ffffff;fill-opacity:1" />
	<path
   class="st1"
   d="m 382.37404,126.06929 c -3.41,0 -6.5,-0.53 -9.28,-1.58 -2.78,-1.05 -5.16,-2.54 -7.12,-4.46 -1.97,-1.92 -3.49,-4.25 -4.57,-6.98 -1.08,-2.73 -1.62,-5.78 -1.62,-9.14 V 72.539294 h 10.07 v 31.319996 c 0,2.63 0.43,4.81 1.3,6.54 0.86,1.72 1.93,3.09 3.2,4.09 1.27,1.01 2.64,1.7 4.1,2.08 1.46,0.38 2.77,0.57 3.92,0.57 1.15,0 2.46,-0.19 3.92,-0.57 1.46,-0.38 2.83,-1.08 4.1,-2.08 1.27,-1.01 2.34,-2.37 3.2,-4.09 0.86,-1.72 1.3,-3.9 1.3,-6.54 V 72.539294 h 10.07 v 31.369996 c 0,3.36 -0.53,6.4 -1.58,9.14 -1.06,2.73 -2.57,5.06 -4.53,6.98 -1.97,1.92 -4.34,3.41 -7.12,4.46 -2.78,1.05 -5.91,1.58 -9.36,1.58 z"
   id="path4"
   style="fill:#ffffff;fill-opacity:1" />
	<path
   class="st1"
   d="m 199.02404,125.09929 27.08,-52.709996 h 1.04 l 26.85,52.639996 h -10.96 l -16.43,-32.919996 -16.48,32.959996 c 0.01,0 -11.1,-0.1 -11.1,0.03 z"
   id="path5"
   style="fill:#ffffff;fill-opacity:1" />
	<path
   class="st2"
   d="m 162.31404,131.91929 c -0.88,-0.33 -1.72,-0.7 -2.53,-1.1 -13.39,20.57 -36.57,34.22 -62.900007,34.22 -41.37,0 -75.02,-33.66 -75.02,-75.019996 0,-41.36 33.66,-75.02 75.02,-75.02 32.270007,0 59.820007,20.5 70.380007,49.15 h 10.58 c -10.98,-34.26 -43.1,-59.1500001 -80.960007,-59.1500001 -46.88,0 -85.02,38.1400001 -85.02,85.0200001 0,46.879996 38.14,85.019996 85.02,85.019996 30.870007,0 57.940007,-16.54 72.840007,-41.21 -0.31,-0.06 -0.61,-0.14 -0.91,-0.21 -2.29,-0.36 -4.46,-0.92 -6.5,-1.7 z"
   id="path6"
   style="fill:#ffffff;fill-opacity:1" />
	<polygon
   class="st1"
   points="345.13,173.75 345.13,205.55 310.52,173.75 309.44,173.75 309.44,226.31 319.51,226.31 319.51,195.04 354.08,226.31 355.2,226.31 355.2,173.75 "
   id="polygon6"
   transform="translate(-50.665967,-101.28071)"
   style="fill:#ffffff;fill-opacity:1" />
	<polygon
   class="st1"
   points="363.32,182.67 378.43,182.67 378.43,226.31 388.5,226.31 388.5,182.67 403.54,182.67 403.54,173.75 363.32,173.75 "
   id="polygon7"
   transform="translate(-50.665967,-101.28071)"
   style="fill:#ffffff;fill-opacity:1" />
	<polygon
   class="st1"
   points="466.36,173.82 465.71,173.82 465.71,226.31 475.78,226.31 475.78,199.79 492.19,219.58 508.66,199.79 508.66,226.31 518.74,226.31 518.74,173.82 518.09,173.82 492.19,204.18 "
   id="polygon8"
   transform="translate(-50.665967,-101.28071)"
   style="fill:#ffffff;fill-opacity:1" />
	<path
   class="st2"
   d="m 197.82404,157.36929 c -2.09,0.26 -4.22,0.45 -6.33,0.57 -25.2,1.45 -49.46,-7.01 -68.3,-23.81 -18.84,-16.8 -30.020007,-39.929996 -31.460007,-65.139996 -1.08,-18.91 3.44,-37.47 13.090007,-53.68 l -8.590007,-5.12 c -10.67,17.93 -15.68,38.45 -14.48,59.36 1.6,27.87 13.95,53.449996 34.790007,72.029996 19.31,17.22 43.76,26.51 69.42,26.51 2.03,0 4.07,-0.06 6.11,-0.18 1.92,-0.11 3.84,-0.29 5.75,-0.5 z"
   id="path8"
   style="fill:#ffffff;fill-opacity:1" />








	<g
   id="text17"
   aria-label="MUNICH"><path
     style="font-size:43px;font-family:Geometos;fill:#006fb7"
     d="m 287.04336,56.314289 -20.726,-18.705 v 18.705 h -5.977 v -31.433 h 0.645 l 20.683,19.006 v -19.006 h 6.02 v 31.433 z"
     id="path10" /><path
     style="font-size:43px;font-family:Geometos;fill:#006fb7"
     d="m 239.95836,56.873289 q -3.053,0 -5.547,-0.946 -2.494,-0.946 -4.257,-2.666 -1.763,-1.72 -2.752,-4.171 -0.946,-2.451 -0.946,-5.461 v -18.748 h 6.02 v 18.748 q 0,2.365 0.774,3.913 0.774,1.548 1.892,2.451 1.161,0.903 2.451,1.247 1.333,0.344 2.365,0.344 1.032,0 2.322,-0.344 1.333,-0.344 2.451,-1.247 1.161,-0.903 1.935,-2.451 0.774,-1.548 0.774,-3.913 v -18.748 h 6.02 v 18.748 q 0,3.01 -0.946,5.461 -0.946,2.451 -2.709,4.171 -1.763,1.72 -4.257,2.666 -2.494,0.946 -5.59,0.946 z"
     id="path9" /><path
     style="font-size:43px;font-family:Geometos;fill:#006fb7"
     d="m 219.53333,24.881289 v 31.433 h -6.02 v -15.91 l -9.847,11.825 -9.804,-11.825 v 15.91 h -6.02 v -31.433 h 0.387 l 15.437,18.146 15.48,-18.146 z"
     id="path21" /><path
     style="font-size:43px;font-family:Geometos;fill:#006fb7"
     d="m 301.45235,56.314289 h -6.02 v -31.433 h 6.02 z"
     id="path22" /><path
     style="font-size:43px;font-family:Geometos;fill:#006fb7"
     d="m 369.30633,24.838289 v 31.476 h -5.977 v -12.513 h -15.566 v 12.513 h -5.977 v -31.476 h 5.977 v 13.588 h 15.566 v -13.588 z"
     id="path7" /><path
     style="font-size:43px;font-family:Geometos;fill:#006fb7"
     d="m 337.14233,48.574289 q -1.032,1.892 -2.537,3.44 -1.505,1.505 -3.354,2.623 -1.806,1.075 -3.956,1.677 -2.107,0.602 -4.386,0.602 -3.354,0 -6.321,-1.29 -2.967,-1.29 -5.203,-3.483 -2.193,-2.236 -3.483,-5.203 -1.29,-2.967 -1.29,-6.321 0,-3.354 1.29,-6.321 1.29,-2.967 3.483,-5.16 2.236,-2.236 5.203,-3.526 2.967,-1.29 6.321,-1.29 2.279,0 4.386,0.602 2.15,0.602 3.956,1.72 1.849,1.075 3.354,2.623 1.505,1.505 2.537,3.354 l -5.633,2.279 q -0.688,-1.032 -1.634,-1.935 -0.903,-0.903 -2.021,-1.591 -1.118,-0.688 -2.365,-1.075 -1.247,-0.387 -2.58,-0.387 -2.15,0 -4.042,0.903 -1.849,0.86 -3.225,2.322 -1.376,1.462 -2.193,3.44 -0.817,1.935 -0.817,4.042 0,2.15 0.817,4.085 0.817,1.935 2.193,3.397 1.376,1.462 3.225,2.365 1.892,0.86 4.042,0.86 1.333,0 2.58,-0.387 1.247,-0.387 2.365,-1.075 1.118,-0.688 2.021,-1.591 0.946,-0.946 1.634,-1.978 z"
     id="path23" /></g><path
   style="font-size:43px;font-family:Geometos;white-space:pre;inline-size:535.807;fill:#006fb7"
   d="m 806.00525,138.44981 q -1.204,1.978 -2.795,4.515 -1.548,2.537 -3.182,5.203 -1.634,2.623 -3.225,5.203 -1.591,2.537 -2.795,4.601 v 11.911 h -6.02 v -11.911 q -2.795,-4.902 -5.934,-9.761 -3.139,-4.859 -5.977,-9.761 h 7.009 q 1.935,3.225 3.956,6.665 2.021,3.44 3.956,6.665 0.946,-1.505 1.978,-3.225 1.032,-1.72 2.064,-3.44 1.032,-1.763 2.021,-3.44 1.032,-1.72 1.935,-3.225 z"
   transform="translate(-103.16611,7.507164)"
   id="path57" /><path
   style="font-size:43px;font-family:Geometos;white-space:pre;inline-size:535.807;fill:#006fb7"
   d="m 771.64828,169.88281 -20.726,-18.705 v 18.705 h -5.977 v -31.433 h 0.645 l 20.683,19.006 v -19.006 h 6.02 v 31.433 z"
   transform="translate(-103.16611,7.507164)"
   id="path56" /><path
   style="font-size:43px;font-family:Geometos;white-space:pre;inline-size:535.807;fill:#006fb7"
   d="m 708.48127,169.88281 16.082,-31.433 h 0.602 l 16.082,31.433 h -6.536 l -2.451,-4.945 h -14.835 l -2.408,4.945 z m 11.868,-10.191 h 8.987 l -4.472,-9.503 z"
   transform="translate(-103.16611,7.507164)"
   id="path55" /><path
   style="font-size:43px;font-family:Geometos;white-space:pre;inline-size:535.807;fill:#006fb7"
   d="m 700.99929,138.40681 q 2.322,0 4.343,0.903 2.064,0.86 3.569,2.365 1.505,1.505 2.365,3.569 0.903,2.021 0.903,4.343 0,2.322 -0.774,4.3 -0.774,1.978 -2.279,3.483 -1.505,1.462 -3.827,2.322 -2.279,0.817 -5.289,0.817 h -7.009 v 9.374 h -6.02 v -31.476 z m 0,16.684 q 1.333,0 2.322,-0.43 0.989,-0.473 1.591,-1.247 0.645,-0.774 0.946,-1.763 0.301,-0.989 0.301,-2.064 0,-1.075 -0.387,-2.107 -0.387,-1.075 -1.118,-1.892 -0.731,-0.817 -1.806,-1.333 -1.075,-0.516 -2.494,-0.516 h -7.353 v 11.352 z"
   transform="translate(-103.16611,7.507164)"
   id="path54" /><path
   style="font-size:43px;font-family:Geometos;white-space:pre;inline-size:535.807;fill:#006fb7"
   d="m 680.05825,138.44981 v 31.433 h -6.02 v -15.91 l -9.847,11.825 -9.804,-11.825 v 15.91 h -6.02 v -31.433 h 0.387 l 15.437,18.146 15.48,-18.146 z"
   transform="translate(-103.16611,7.507164)"
   id="path53" /><path
   id="path37-8"
   d="m 0,0 c -1.599,3.702 -3.769,6.924 -6.513,9.669 -2.744,2.742 -5.952,4.914 -9.628,6.511 -3.675,1.598 -7.618,2.398 -11.825,2.398 -2.943,0 -5.759,-0.422 -8.461,-1.224 l 4.758,-9.635 c 1.208,0.256 2.454,0.391 3.743,0.391 2.657,0 5.141,-0.546 7.455,-1.638 2.312,-1.092 4.331,-2.544 6.059,-4.354 1.727,-1.812 3.096,-3.93 4.106,-6.353 1.011,-2.425 1.516,-4.942 1.516,-7.551 0,-2.664 -0.505,-5.194 -1.516,-7.591 -1.01,-2.397 -2.379,-4.514 -4.106,-6.352 -1.728,-1.838 -3.747,-3.304 -6.059,-4.395 -2.314,-1.092 -4.798,-1.638 -7.455,-1.638 -2.658,0 -5.145,0.546 -7.456,1.638 -2.312,1.091 -4.334,2.557 -6.061,4.395 -1.728,1.838 -3.096,3.955 -4.107,6.352 -1.009,2.397 -1.513,4.927 -1.513,7.591 0,2.609 0.504,5.126 1.513,7.551 1.011,2.423 2.379,4.541 4.107,6.353 0.157,0.165 0.33,0.311 0.492,0.47 l -4.941,10.007 C -47.105,11.698 -48.27,10.74 -49.341,9.669 -52.085,6.924 -54.255,3.702 -55.854,0 c -1.597,-3.703 -2.397,-7.631 -2.397,-11.786 0,-4.209 0.8,-8.15 2.397,-11.826 1.599,-3.675 3.769,-6.885 6.513,-9.628 2.742,-2.744 5.952,-4.914 9.629,-6.512 3.674,-1.598 7.591,-2.397 11.746,-2.397 4.207,0 8.15,0.799 11.825,2.397 3.676,1.598 6.884,3.768 9.628,6.512 2.744,2.743 4.914,5.953 6.513,9.628 1.597,3.676 2.397,7.617 2.397,11.826 C 2.397,-7.631 1.597,-3.703 0,0"
   style="display:inline;fill:#006fb7;fill-opacity:1;fill-rule:nonzero;stroke:none"
   transform="matrix(0.53832045,0,0,-0.53799547,538.60548,155.28818)"
   clip-path="url(#clipPath38-5)" /><path
   style="font-size:43px;font-family:Geometos;white-space:pre;inline-size:535.807;fill:#006fb7"
   d="m 607.34525,162.14281 q -1.032,1.892 -2.537,3.44 -1.505,1.505 -3.354,2.623 -1.806,1.075 -3.956,1.677 -2.107,0.602 -4.386,0.602 -3.354,0 -6.321,-1.29 -2.967,-1.29 -5.203,-3.483 -2.193,-2.236 -3.483,-5.203 -1.29,-2.967 -1.29,-6.321 0,-3.354 1.29,-6.321 1.29,-2.967 3.483,-5.16 2.236,-2.236 5.203,-3.526 2.967,-1.29 6.321,-1.29 2.279,0 4.386,0.602 2.15,0.602 3.956,1.72 1.849,1.075 3.354,2.623 1.505,1.505 2.537,3.354 l -5.633,2.279 q -0.688,-1.032 -1.634,-1.935 -0.903,-0.903 -2.021,-1.591 -1.118,-0.688 -2.365,-1.075 -1.247,-0.387 -2.58,-0.387 -2.15,0 -4.042,0.903 -1.849,0.86 -3.225,2.322 -1.376,1.462 -2.193,3.44 -0.817,1.935 -0.817,4.042 0,2.15 0.817,4.085 0.817,1.935 2.193,3.397 1.376,1.462 3.225,2.365 1.892,0.86 4.042,0.86 1.333,0 2.58,-0.387 1.247,-0.387 2.365,-1.075 1.118,-0.688 2.021,-1.591 0.946,-0.946 1.634,-1.978 z"
   transform="translate(-103.16611,7.507164)"
   id="path51" /><path
   style="font-size:43px;font-family:Geometos;white-space:pre;inline-size:535.807;fill:#006fb7"
   d="m 540.43717,143.73881 v 7.869 h 15.222 v 5.461 h -15.222 v 7.396 h 17.157 v 5.418 h -23.134 v -31.476 h 23.134 v 5.332 z"
   transform="translate(-103.16611,7.507164)"
   id="path50" /><path
   style="font-size:43px;font-family:Geometos;white-space:pre;inline-size:535.807;fill:#006fb7"
   d="m 509.4772,169.88281 h -5.977 v -31.476 h 14.276 q 2.408,0 4.386,0.817 2.021,0.774 3.44,2.236 1.419,1.419 2.193,3.44 0.817,1.978 0.817,4.343 0,3.569 -1.806,6.235 -1.763,2.666 -4.73,3.827 3.999,5.246 7.869,10.578 h -7.181 q -1.892,-2.451 -3.698,-4.945 -1.806,-2.494 -3.612,-5.074 h -5.977 z m 0,-15.351 h 8.299 q 0.817,0 1.677,-0.301 0.903,-0.344 1.591,-0.989 0.688,-0.688 1.118,-1.677 0.473,-0.989 0.473,-2.322 0,-0.688 -0.172,-1.634 -0.172,-0.946 -0.688,-1.806 -0.516,-0.86 -1.462,-1.462 -0.946,-0.602 -2.537,-0.602 h -8.299 z"
   transform="translate(-103.16611,7.507164)"
   id="path49" /><path
   style="font-size:43px;font-family:Geometos;white-space:pre;inline-size:535.807;fill:#006fb7"
   d="m 468.71317,169.88281 16.082,-31.433 h 0.602 l 16.082,31.433 h -6.536 l -2.451,-4.945 h -14.835 l -2.408,4.945 z m 11.868,-10.191 h 8.987 l -4.472,-9.503 z"
   transform="translate(-103.16611,7.507164)"
   id="path48" /><path
   style="font-size:43px;font-family:Geometos;white-space:pre;inline-size:535.807;fill:#006fb7"
   d="m 472.41117,138.44981 -11.739,31.433 h -0.602 l -8.514,-18.318 -8.6,18.361 h -0.559 l -11.61,-31.476 h 6.407 l 6.149,17.243 7.998,-17.243 h 0.387 l 7.998,17.286 6.278,-17.286 z"
   transform="translate(-103.16611,7.507164)"
   id="path47" /><path
   style="font-size:43px;font-family:Geometos;white-space:pre;inline-size:535.807;fill:#006fb7"
   d="m 429.54019,143.73881 h -8.987 v 26.144 h -6.02 v -26.144 h -9.03 v -5.332 h 24.037 z"
   transform="translate(-103.16611,7.507164)"
   id="path46" /><path
   style="font-size:43px;font-family:Geometos;white-space:pre;inline-size:535.807;fill:#006fb7"
   d="m 384.90617,143.78181 v 7.74 h 15.179 v 5.547 h -15.179 v 12.814 h -6.02 v -31.476 h 23.134 v 5.375 z"
   transform="translate(-103.16611,7.507164)"
   id="path45" /><path
   style="font-size:43px;font-family:Geometos;white-space:pre;inline-size:535.807;fill:#006fb7"
   d="m 312.02112,165.75481 3.26801,-4.816 q 2.365,1.634 4.85899,2.838 2.537,1.161 5.289,1.161 1.46201,0 2.58001,-0.344 1.118,-0.387 1.892,-0.946 0.774,-0.602 1.161,-1.333 0.387,-0.774 0.387,-1.505 0,-0.946 -0.60201,-1.591 -0.55899,-0.688 -1.548,-1.118 -0.94599,-0.43 -2.279,-0.731 -1.28999,-0.301 -2.709,-0.559 -0.94599,-0.172 -2.193,-0.387 -1.247,-0.258 -2.57999,-0.645 -1.33301,-0.43 -2.623,-1.075 -1.29001,-0.688 -2.322,-1.677 -1.03201,-1.032 -1.67701,-2.408 -0.60199,-1.419 -0.60199,-3.311 0,-2.752 1.118,-4.558 1.118,-1.849 2.83799,-2.881 1.76301,-1.075 3.87,-1.505 2.15001,-0.43 4.128,-0.43 1.978,0 3.526,0.258 1.548,0.258 2.88101,0.774 1.33299,0.473 2.57999,1.247 1.29001,0.731 2.752,1.763 l -3.35399,4.73 q -2.23601,-1.548 -4.3,-2.365 -2.06401,-0.817 -4.34301,-0.817 -0.774,0 -1.76299,0.215 -0.98901,0.172 -1.892,0.602 -0.86001,0.43 -1.46201,1.118 -0.559,0.645 -0.559,1.591 0,0.946 0.688,1.591 0.688,0.645 1.763,1.075 1.07501,0.43 2.365,0.731 1.29,0.301 2.494,0.602 0.903,0.215 2.107,0.43 1.247,0.215 2.53701,0.602 1.33299,0.387 2.62299,1.032 1.29001,0.645 2.279,1.677 1.032,0.989 1.63401,2.494 0.64499,1.462 0.64499,3.569 0,2.451 -0.86,4.257 -0.86,1.806 -2.45099,3.01 -1.591,1.161 -3.78401,1.763 -2.193,0.602 -4.859,0.602 -2.45099,0 -4.343,-0.387 -1.849,-0.344 -3.397,-0.946 -1.548,-0.645 -2.924,-1.505 -1.376,-0.86 -2.838,-1.892 z"
   transform="translate(-103.16611,7.507164)"
   id="text17-3" /><path
   id="path37"
   d="m 0,0 c -1.599,3.702 -3.769,6.924 -6.513,9.669 -2.744,2.742 -5.952,4.914 -9.628,6.511 -3.675,1.598 -7.618,2.398 -11.825,2.398 -2.943,0 -5.759,-0.422 -8.461,-1.224 l 4.758,-9.635 c 1.208,0.256 2.454,0.391 3.743,0.391 2.657,0 5.141,-0.546 7.455,-1.638 2.312,-1.092 4.331,-2.544 6.059,-4.354 1.727,-1.812 3.096,-3.93 4.106,-6.353 1.011,-2.425 1.516,-4.942 1.516,-7.551 0,-2.664 -0.505,-5.194 -1.516,-7.591 -1.01,-2.397 -2.379,-4.514 -4.106,-6.352 -1.728,-1.838 -3.747,-3.304 -6.059,-4.395 -2.314,-1.092 -4.798,-1.638 -7.455,-1.638 -2.658,0 -5.145,0.546 -7.456,1.638 -2.312,1.091 -4.334,2.557 -6.061,4.395 -1.728,1.838 -3.096,3.955 -4.107,6.352 -1.009,2.397 -1.513,4.927 -1.513,7.591 0,2.609 0.504,5.126 1.513,7.551 1.011,2.423 2.379,4.541 4.107,6.353 0.157,0.165 0.33,0.311 0.492,0.47 l -4.941,10.007 C -47.105,11.698 -48.27,10.74 -49.341,9.669 -52.085,6.924 -54.255,3.702 -55.854,0 c -1.597,-3.703 -2.397,-7.631 -2.397,-11.786 0,-4.209 0.8,-8.15 2.397,-11.826 1.599,-3.675 3.769,-6.885 6.513,-9.628 2.742,-2.744 5.952,-4.914 9.629,-6.512 3.674,-1.598 7.591,-2.397 11.746,-2.397 4.207,0 8.15,0.799 11.825,2.397 3.676,1.598 6.884,3.768 9.628,6.512 2.744,2.743 4.914,5.953 6.513,9.628 1.597,3.676 2.397,7.617 2.397,11.826 C 2.397,-7.631 1.597,-3.703 0,0"
   style="display:inline;fill:#006fb7;fill-opacity:1;fill-rule:nonzero;stroke:none"
   transform="matrix(0.53832045,0,0,-0.53799547,269.1,155.29261)"
   clip-path="url(#clipPath38)" />
</g>
<metadata
   id="metadata21"><rdf:RDF><cc:Work
       rdf:about=""><dc:title>Munich Quantum Software Company</dc:title><dc:date>2025</dc:date><dc:creator><cc:Agent><dc:title>Lukas Burgholzer</dc:title></cc:Agent></dc:creator><dc:language>English</dc:language></cc:Work></rdf:RDF></metadata></svg>
