<?xml version="1.0" encoding="UTF-8" standalone="no"?>
<!-- Generator: Adobe Illustrator 26.0.1, SVG Export Plug-In . SVG Version: 6.00 Build 0)  -->

<svg
   version="1.1"
   id="Ebene_1"
   x="0px"
   y="0px"
   viewBox="0 0 520.45 189.86999"
   xml:space="preserve"
   sodipodi:docname="logo-mqt-light.svg"
   inkscape:version="1.4 (e7c3feb1, 2024-10-09)"
   width="520.45001"
   height="189.87"
   xmlns:inkscape="http://www.inkscape.org/namespaces/inkscape"
   xmlns:sodipodi="http://sodipodi.sourceforge.net/DTD/sodipodi-0.dtd"
   xmlns="http://www.w3.org/2000/svg"
   xmlns:svg="http://www.w3.org/2000/svg"><defs
   id="defs17" /><sodipodi:namedview
   id="namedview17"
   pagecolor="#ffffff"
   bordercolor="#000000"
   borderopacity="0.25"
   inkscape:showpageshadow="2"
   inkscape:pageopacity="0.0"
   inkscape:pagecheckerboard="0"
   inkscape:deskcolor="#d1d1d1"
   inkscape:zoom="2.2574972"
   inkscape:cx="217.71899"
   inkscape:cy="125.36007"
   inkscape:window-width="2056"
   inkscape:window-height="1257"
   inkscape:window-x="0"
   inkscape:window-y="44"
   inkscape:window-maximized="0"
   inkscape:current-layer="g17" />
<style
   type="text/css"
   id="style1">
	.st0{fill:#006FB7;}
	.st1{fill:#3D3D3C;}
	.st2{fill:#3C3C3B;}
	.st3{fill:none;}
	.st4{font-family:'Geometos';}
	.st5{font-size:43px;}
</style>
<g
   id="g17"
   transform="translate(-62.53,-106.28)">
	<path
   class="st0"
   d="m 194.76,167.01 c -14.6,-4.58 -30.08,-6.99 -45.79,-6.99 -28.22,0 -55.73,7.74 -78.7,21.97 v 7.72 c 22.6,-15 50.25,-23.22 78.7,-23.22 15.74,0 31.25,2.52 45.79,7.3 z"
   id="path1" />
	<path
   class="st0"
   d="m 194.94,208.73 c -14.59,4.82 -30.15,7.36 -45.96,7.36 -28.45,0 -56.1,-8.21 -78.7,-23.22 v 7.72 c 22.96,14.23 50.47,21.97 78.7,21.97 16.21,0 32.17,-2.56 47.18,-7.43 -0.61,-2.01 -1.01,-4.15 -1.22,-6.4 z"
   id="path2" />
	<path
   class="st1"
   d="m 225.9,227.28 c -3.41,0 -6.5,-0.53 -9.28,-1.58 -2.78,-1.05 -5.16,-2.54 -7.12,-4.46 -1.97,-1.92 -3.49,-4.24 -4.57,-6.98 -1.08,-2.73 -1.62,-5.78 -1.62,-9.14 v -31.37 h 10.07 v 31.32 c 0,2.63 0.43,4.81 1.3,6.54 0.86,1.72 1.93,3.09 3.2,4.09 1.27,1.01 2.64,1.7 4.1,2.08 1.46,0.38 2.77,0.58 3.92,0.58 1.15,0 2.46,-0.19 3.92,-0.58 1.46,-0.38 2.83,-1.08 4.1,-2.08 1.27,-1 2.34,-2.37 3.2,-4.09 0.86,-1.72 1.3,-3.9 1.3,-6.54 v -31.32 h 10.07 v 31.37 c 0,3.36 -0.53,6.4 -1.58,9.14 -1.05,2.73 -2.57,5.06 -4.53,6.98 -1.97,1.92 -4.34,3.41 -7.12,4.46 -2.79,1.05 -5.9,1.58 -9.36,1.58 z"
   id="path3" />
	<path
   class="st1"
   d="m 433.04,227.35 c -3.41,0 -6.5,-0.53 -9.28,-1.58 -2.78,-1.05 -5.16,-2.54 -7.12,-4.46 -1.97,-1.92 -3.49,-4.25 -4.57,-6.98 -1.08,-2.73 -1.62,-5.78 -1.62,-9.14 v -31.37 h 10.07 v 31.32 c 0,2.63 0.43,4.81 1.3,6.54 0.86,1.72 1.93,3.09 3.2,4.09 1.27,1.01 2.64,1.7 4.1,2.08 1.46,0.38 2.77,0.57 3.92,0.57 1.15,0 2.46,-0.19 3.92,-0.57 1.46,-0.38 2.83,-1.08 4.1,-2.08 1.27,-1.01 2.34,-2.37 3.2,-4.09 0.86,-1.72 1.3,-3.9 1.3,-6.54 v -31.32 h 10.07 v 31.37 c 0,3.36 -0.53,6.4 -1.58,9.14 -1.06,2.73 -2.57,5.06 -4.53,6.98 -1.97,1.92 -4.34,3.41 -7.12,4.46 -2.78,1.05 -5.91,1.58 -9.36,1.58 z"
   id="path4" />
	<path
   class="st1"
   d="m 249.69,226.38 27.08,-52.71 h 1.04 l 26.85,52.64 H 293.7 l -16.43,-32.92 -16.48,32.96 c 0.01,0 -11.1,-0.1 -11.1,0.03 z"
   id="path5" />
	<path
   class="st2"
   d="m 212.98,233.2 c -0.88,-0.33 -1.72,-0.7 -2.53,-1.1 -13.39,20.57 -36.57,34.22 -62.9,34.22 -41.37,0 -75.02,-33.66 -75.02,-75.02 0,-41.36 33.66,-75.02 75.02,-75.02 32.27,0 59.82,20.5 70.38,49.15 h 10.58 c -10.98,-34.26 -43.1,-59.15 -80.96,-59.15 -46.88,0 -85.02,38.14 -85.02,85.02 0,46.88 38.14,85.02 85.02,85.02 30.87,0 57.94,-16.54 72.84,-41.21 -0.31,-0.06 -0.61,-0.14 -0.91,-0.21 -2.29,-0.36 -4.46,-0.92 -6.5,-1.7 z"
   id="path6" />
	<polygon
   class="st1"
   points="354.08,226.31 355.2,226.31 355.2,173.75 345.13,173.75 345.13,205.55 310.52,173.75 309.44,173.75 309.44,226.31 319.51,226.31 319.51,195.04 "
   id="polygon6" />
	<polygon
   class="st1"
   points="378.43,182.67 378.43,226.31 388.5,226.31 388.5,182.67 403.54,182.67 403.54,173.75 363.32,173.75 363.32,182.67 "
   id="polygon7" />
	<polygon
   class="st1"
   points="492.19,219.58 508.66,199.79 508.66,226.31 518.74,226.31 518.74,173.82 518.09,173.82 492.19,204.18 466.36,173.82 465.71,173.82 465.71,226.31 475.78,226.31 475.78,199.79 "
   id="polygon8" />
	<path
   class="st2"
   d="m 248.49,258.65 c -2.09,0.26 -4.22,0.45 -6.33,0.57 -25.2,1.45 -49.46,-7.01 -68.3,-23.81 -18.84,-16.8 -30.02,-39.93 -31.46,-65.14 -1.08,-18.91 3.44,-37.47 13.09,-53.68 l -8.59,-5.12 c -10.67,17.93 -15.68,38.45 -14.48,59.36 1.6,27.87 13.95,53.45 34.79,72.03 19.31,17.22 43.76,26.51 69.42,26.51 2.03,0 4.07,-0.06 6.11,-0.18 1.92,-0.11 3.84,-0.29 5.75,-0.5 z"
   id="path8" />
	<path
   class="st0"
   d="m 297.36,251.36 h -15.05 v 43.78 h -10.08 v -43.78 h -15.12 v -8.93 h 40.25 z"
   id="path9" />
	<path
   class="st0"
   d="m 462.89,286.21 v 8.93 h -37.94 v -52.7 h 10.08 v 43.78 h 27.86 z"
   id="path10" />
	<path
   class="st0"
   d="m 502.85,295.14 -22.1,-23.98 v 23.98 h -10.08 v -52.7 h 10.08 v 26.78 l 20.95,-26.71 h 12.38 l -21.67,27.22 23.76,25.42 h -13.32 z"
   id="path11" />
	<path
   class="st0"
   d="M 535.1,295.14 H 525.02 V 242.51 H 535.1 Z"
   id="path12" />
	<path
   class="st0"
   d="m 582.98,251.36 h -15.05 v 43.78 h -10.08 v -43.78 h -15.12 v -8.93 h 40.25 z"
   id="path13" />
	<path
   class="st0"
   d="m 352.94,258.17 c -1.44,-3.33 -3.4,-6.24 -5.87,-8.71 -2.47,-2.47 -5.36,-4.43 -8.68,-5.87 -3.31,-1.44 -6.87,-2.16 -10.66,-2.16 -2.61,0 -5.12,0.36 -7.52,1.06 l 4.26,8.71 c 1.06,-0.22 2.16,-0.34 3.29,-0.34 2.39,0 4.63,0.49 6.72,1.48 2.08,0.98 3.9,2.29 5.46,3.92 1.56,1.63 2.79,3.54 3.7,5.72 0.91,2.18 1.37,4.45 1.37,6.8 0,2.4 -0.46,4.68 -1.37,6.84 -0.91,2.16 -2.14,4.07 -3.7,5.72 -1.56,1.66 -3.38,2.98 -5.46,3.96 -2.08,0.98 -4.32,1.48 -6.72,1.48 -2.4,0 -4.63,-0.49 -6.72,-1.48 -2.08,-0.98 -3.9,-2.3 -5.46,-3.96 -1.56,-1.66 -2.79,-3.56 -3.7,-5.72 -0.91,-2.16 -1.37,-4.44 -1.37,-6.84 0,-2.35 0.46,-4.62 1.37,-6.8 0.91,-2.18 2.14,-4.09 3.7,-5.72 0.16,-0.17 0.33,-0.32 0.5,-0.48 l -4.42,-9.03 c -1.13,0.83 -2.2,1.71 -3.2,2.7 -2.47,2.47 -4.43,5.38 -5.87,8.71 -1.44,3.34 -2.16,6.88 -2.16,10.62 0,3.79 0.72,7.34 2.16,10.66 1.44,3.31 3.4,6.2 5.87,8.68 2.47,2.47 5.36,4.43 8.68,5.87 3.31,1.44 6.84,2.16 10.58,2.16 3.79,0 7.34,-0.72 10.66,-2.16 3.31,-1.44 6.2,-3.4 8.68,-5.87 2.47,-2.47 4.43,-5.36 5.87,-8.68 1.44,-3.31 2.16,-6.86 2.16,-10.66 0.01,-3.74 -0.71,-7.28 -2.15,-10.61 z"
   id="path14" />
	<path
   class="st0"
   d="m 413.76,258.17 c -1.44,-3.33 -3.4,-6.24 -5.87,-8.71 -2.47,-2.47 -5.36,-4.43 -8.68,-5.87 -3.31,-1.44 -6.87,-2.16 -10.66,-2.16 -2.61,0 -5.12,0.36 -7.52,1.06 l 4.26,8.71 c 1.06,-0.22 2.16,-0.34 3.29,-0.34 2.39,0 4.63,0.49 6.72,1.48 2.08,0.98 3.9,2.29 5.46,3.92 1.56,1.63 2.79,3.54 3.7,5.72 0.91,2.18 1.37,4.45 1.37,6.8 0,2.4 -0.46,4.68 -1.37,6.84 -0.91,2.16 -2.14,4.07 -3.7,5.72 -1.56,1.66 -3.38,2.98 -5.46,3.96 -2.08,0.98 -4.32,1.48 -6.72,1.48 -2.4,0 -4.63,-0.49 -6.72,-1.48 -2.08,-0.98 -3.9,-2.3 -5.46,-3.96 -1.56,-1.66 -2.79,-3.56 -3.7,-5.72 -0.91,-2.16 -1.37,-4.44 -1.37,-6.84 0,-2.35 0.46,-4.62 1.37,-6.8 0.91,-2.18 2.14,-4.09 3.7,-5.72 0.16,-0.17 0.33,-0.32 0.5,-0.48 l -4.42,-9.03 c -1.13,0.83 -2.2,1.71 -3.2,2.7 -2.47,2.47 -4.43,5.38 -5.87,8.71 -1.44,3.34 -2.16,6.88 -2.16,10.62 0,3.79 0.72,7.34 2.16,10.66 1.44,3.31 3.4,6.2 5.87,8.68 2.47,2.47 5.36,4.43 8.68,5.87 3.31,1.44 6.84,2.16 10.58,2.16 3.79,0 7.34,-0.72 10.66,-2.16 3.31,-1.44 6.2,-3.4 8.68,-5.87 2.47,-2.47 4.43,-5.36 5.87,-8.68 1.44,-3.31 2.16,-6.86 2.16,-10.66 0.01,-3.74 -0.71,-7.28 -2.15,-10.61 z"
   id="path15" />

	<g
   id="text17"
   transform="translate(235.0683,157.595)"
   aria-label="MUNICH"><path
     style="font-size:43px;font-family:Geometos;fill:#006fb7"
     d="M 102.64103,0 81.915032,-18.705 V 0 h -5.977 v -31.433 h 0.645 l 20.683,19.006 v -19.006 h 6.019998 V 0 Z"
     id="path22" /><path
     style="font-size:43px;font-family:Geometos;fill:#006fb7"
     d="m 55.556029,0.559 q -3.053,0 -5.547,-0.946 -2.494,-0.946 -4.257,-2.666 -1.763,-1.72 -2.752,-4.171 -0.946,-2.451 -0.946,-5.461 v -18.748 h 6.02 v 18.748 q 0,2.365 0.774,3.913 0.774,1.548 1.892,2.451 1.161,0.903 2.451,1.247 1.333,0.344 2.365,0.344 1.032,0 2.322,-0.344 1.333,-0.344 2.451,-1.247 1.161,-0.903 1.935,-2.451 0.774,-1.548 0.774,-3.913 v -18.748 h 6.02 v 18.748 q 0,3.01 -0.946,5.461 -0.946,2.451 -2.709,4.171 -1.763,1.72 -4.257,2.666 -2.494,0.946 -5.59,0.946 z"
     id="path21" /><path
     style="font-size:43px;font-family:Geometos;fill:#006fb7"
     d="M 35.131,-31.433 V 0 h -6.02 V -15.91 L 19.264,-4.085 9.46,-15.91 V 0 H 3.44 v -31.433 h 0.387 l 15.437,18.146 15.48,-18.146 z"
     id="path17" /><path
     style="font-size:43px;font-family:Geometos;fill:#006fb7"
     d="m 117.05,0 h -6.02 v -31.433 h 6.02 z"
     id="path18" /><path
     style="font-size:43px;font-family:Geometos;fill:#006fb7"
     d="M 184.90399,-31.476 V 0 h -5.977 v -12.513 h -15.566 V 0 h -5.977 v -31.476 h 5.977 v 13.588 h 15.566 v -13.588 z"
     id="path20" /><path
     style="font-size:43px;font-family:Geometos;fill:#006fb7"
     d="m 152.74,-7.74 q -1.032,1.892 -2.537,3.44 -1.505,1.505 -3.354,2.623 -1.806,1.075 -3.956,1.677 -2.107,0.602 -4.386,0.602 -3.354,0 -6.321,-1.29 -2.967,-1.29 -5.203,-3.483 -2.193,-2.236 -3.483,-5.203 -1.29,-2.967 -1.29,-6.321 0,-3.354 1.29,-6.321 1.29,-2.967 3.483,-5.16 2.236,-2.236 5.203,-3.526 2.967,-1.29 6.321,-1.29 2.279,0 4.386,0.602 2.15,0.602 3.956,1.72 1.849,1.075 3.354,2.623 1.505,1.505 2.537,3.354 l -5.633,2.279 q -0.688,-1.032 -1.634,-1.935 -0.903,-0.903 -2.021,-1.591 -1.118,-0.688 -2.365,-1.075 -1.247,-0.387 -2.58,-0.387 -2.15,0 -4.042,0.903 -1.849,0.86 -3.225,2.322 -1.376,1.462 -2.193,3.44 -0.817,1.935 -0.817,4.042 0,2.15 0.817,4.085 0.817,1.935 2.193,3.397 1.376,1.462 3.225,2.365 1.892,0.86 4.042,0.86 1.333,0 2.58,-0.387 1.247,-0.387 2.365,-1.075 1.118,-0.688 2.021,-1.591 0.946,-0.946 1.634,-1.978 z"
     id="path19" /></g>
</g>
</svg>
