<?xml version="1.0" encoding="UTF-8"?>
<svg width="731.63pt" height="302.58pt" version="1.1" viewBox="0 0 731.63 302.58" xmlns="http://www.w3.org/2000/svg" xmlns:xlink="http://www.w3.org/1999/xlink">
    <defs>
        <g id="r">
            <path d="m44.109-10.594c-0.9375 1.7305-2.0938 3.293-3.4688 4.6875-1.375 1.3867-2.8984 2.5781-4.5625 3.5781-1.668 1-3.4688 1.7773-5.4062 2.3281s-3.9492 0.82812-6.0312 0.82812c-3.0547 0-5.9336-0.58984-8.6406-1.7656-2.7109-1.1758-5.0742-2.7734-7.0938-4.7969-2.0234-2.0195-3.6211-4.3789-4.7969-7.0781-1.168-2.707-1.75-5.5938-1.75-8.6562 0-3.0508 0.58203-5.9297 1.75-8.6406 1.1758-2.707 2.7734-5.0703 4.7969-7.0938 2.0195-2.0195 4.3828-3.6133 7.0938-4.7812 2.707-1.1758 5.5859-1.7656 8.6406-1.7656 2.082 0 4.0938 0.27734 6.0312 0.82812 1.9375 0.54297 3.7383 1.3125 5.4062 2.3125 1.6641 1 3.1875 2.1992 4.5625 3.5938 1.375 1.3867 2.5312 2.9219 3.4688 4.6094l-7.7031 3.125c-0.625-0.94531-1.3594-1.832-2.2031-2.6562-0.84375-0.82031-1.7773-1.5469-2.7969-2.1719-1.0234-0.625-2.1016-1.1133-3.2344-1.4688-1.1367-0.35156-2.3125-0.53125-3.5312-0.53125-1.9609 0-3.793 0.40234-5.5 1.2031-1.7109 0.80469-3.1875 1.8711-4.4375 3.2031-1.25 1.3359-2.25 2.8984-3 4.6875-0.74219 1.7812-1.1094 3.6328-1.1094 5.5469 0 1.9609 0.36719 3.8242 1.1094 5.5938 0.75 1.7617 1.75 3.3086 3 4.6406 1.25 1.3359 2.7266 2.4023 4.4375 3.2031 1.707 0.80469 3.5391 1.2031 5.5 1.2031 1.2188 0 2.3945-0.17188 3.5312-0.51562 1.1328-0.35156 2.2109-0.84375 3.2344-1.4688 1.0195-0.63281 1.9531-1.375 2.7969-2.2188s1.5781-1.7344 2.2031-2.6719z"/>
        </g>
        <g id="q">
            <path d="m21.703 0h-17v-43.047h17c6.1562 0 11.211 1.8047 15.172 5.4062 2.1133 1.918 3.707 4.2422 4.7812 6.9688 1.082 2.7305 1.625 5.7773 1.625 9.1406 0 3.418-0.54297 6.4922-1.625 9.2188-1.0742 2.7188-2.668 5.0391-4.7812 6.9531-1.918 1.7734-4.1641 3.1094-6.7344 4.0156-2.5625 0.89844-5.375 1.3438-8.4375 1.3438zm-8.7656-7.2969h8.7656c1.5312 0 3.0781-0.17188 4.6406-0.51562 1.5703-0.35156 2.9922-1.0508 4.2656-2.0938 1.2695-1.0391 2.3164-2.4844 3.1406-4.3281 0.83203-1.8438 1.25-4.2539 1.25-7.2344 0-2.9766-0.41797-5.3984-1.25-7.2656-0.82422-1.8633-1.8828-3.3008-3.1719-4.3125-1.293-1.0195-2.7266-1.707-4.2969-2.0625-1.5625-0.35156-3.0898-0.53125-4.5781-0.53125h-8.7656z"/>
        </g>
        <g id="p">
            <path d="m0.35938 0 21.984-42.984h0.82812l22 42.984h-8.9375l-3.3594-6.7656h-20.297l-3.2812 6.7656zm16.219-13.938h12.297l-6.1094-13z"/>
        </g>
        <g id="o">
            <path d="m39.094-39.75v39.75h-7.5469v-15.797h-19.656v15.797h-7.5469v-39.75h7.5469v17.156h19.656v-17.156z"/>
        </g>
        <g id="e">
            <path d="m0.32812 0 20.312-39.688h0.75l20.312 39.688h-8.25l-3.0938-6.25h-18.734l-3.0469 6.25zm14.984-12.875h11.344l-5.6406-12z"/>
        </g>
        <g id="a">
            <path d="m13.031 0h-7.5938v-39.688h7.5938z"/>
        </g>
        <g id="m">
            <path d="m11.891 0h-7.5469v-39.75h18.031c2.0195 0 3.8672 0.33984 5.5469 1.0156 1.6875 0.66797 3.1289 1.6094 4.3281 2.8281 1.1953 1.2109 2.1289 2.6562 2.7969 4.3438 0.66406 1.6797 1 3.5117 1 5.5 0 3-0.75 5.625-2.25 7.875-1.5 2.2422-3.5 3.8516-6 4.8281 3.3633 4.418 6.6758 8.8711 9.9375 13.359h-9.0625c-1.5938-2.0625-3.1523-4.1406-4.6719-6.2344-1.5234-2.1016-3.043-4.2422-4.5625-6.4219h-7.5469zm0-19.391h10.484c0.6875 0 1.3984-0.13281 2.1406-0.40625 0.73828-0.26953 1.3945-0.67969 1.9688-1.2344 0.58203-0.5625 1.0625-1.2578 1.4375-2.0938 0.38281-0.83203 0.57812-1.8125 0.57812-2.9375 0-0.58203-0.07422-1.2695-0.21875-2.0625-0.13672-0.80078-0.42188-1.5625-0.85938-2.2812-0.4375-0.72656-1.0586-1.3438-1.8594-1.8438-0.79297-0.50781-1.8555-0.76562-3.1875-0.76562h-10.484z"/>
        </g>
        <g id="l">
            <path d="m11.891-33.016v9.9375h19.219v6.8906h-19.219v9.3438h21.672v6.8438h-29.219v-39.75h29.219v6.7344z"/>
        </g>
        <g id="k">
            <path d="m2.7656-5.2188 4.125-6.0781c1.9883 1.375 4.0391 2.5625 6.1562 3.5625 2.125 0.99219 4.3438 1.4844 6.6562 1.4844 1.2383 0 2.3281-0.14844 3.2656-0.45312 0.9375-0.3125 1.7266-0.71094 2.375-1.2031 0.65625-0.48828 1.1445-1.0469 1.4688-1.6719 0.33203-0.63281 0.5-1.2578 0.5-1.875 0-0.80078-0.24609-1.4766-0.73438-2.0312-0.49219-0.5625-1.1406-1.0234-1.9531-1.3906-0.8125-0.36328-1.7734-0.67188-2.875-0.92188-1.1055-0.25781-2.2578-0.49219-3.4531-0.70312-0.79297-0.14453-1.7148-0.31641-2.7656-0.51562-1.0547-0.20703-2.1406-0.48438-3.2656-0.82812-1.1172-0.34375-2.2188-0.78906-3.3125-1.3438-1.0859-0.5625-2.0625-1.2695-2.9375-2.125-0.86719-0.85156-1.5586-1.8633-2.0781-3.0312-0.52344-1.1758-0.78125-2.5625-0.78125-4.1562 0-2.3203 0.46875-4.25 1.4062-5.7812 0.9375-1.5391 2.1406-2.7539 3.6094-3.6406 1.4688-0.88281 3.0977-1.5078 4.8906-1.875 1.7891-0.36328 3.5195-0.54688 5.1875-0.54688 1.6562 0 3.1328 0.10938 4.4375 0.32812 1.3125 0.21875 2.5234 0.53906 3.6406 0.95312 1.125 0.41797 2.2188 0.94531 3.2812 1.5781 1.0703 0.625 2.2227 1.375 3.4531 2.25l-4.2344 5.9688c-1.875-1.3008-3.6836-2.2969-5.4219-2.9844-1.7422-0.6875-3.5703-1.0312-5.4844-1.0312-0.65625 0-1.4023 0.08594-2.2344 0.25-0.83594 0.15625-1.6211 0.41797-2.3594 0.78125-0.74219 0.36719-1.3555 0.82812-1.8438 1.3906-0.49219 0.55469-0.73438 1.2305-0.73438 2.0312 0 0.79297 0.28516 1.4609 0.85938 2 0.58203 0.54297 1.3281 0.99609 2.2344 1.3594 0.90625 0.36719 1.8984 0.67969 2.9844 0.9375 1.0938 0.25 2.1445 0.5 3.1562 0.75 0.75781 0.17969 1.6562 0.35938 2.6875 0.54688 1.0312 0.17969 2.0977 0.43359 3.2031 0.76562 1.1016 0.32422 2.1953 0.75781 3.2812 1.2969 1.082 0.54297 2.0508 1.2422 2.9062 2.0938 0.85156 0.84375 1.5391 1.8906 2.0625 3.1406 0.51953 1.25 0.78125 2.7617 0.78125 4.5312 0 2.0625-0.36719 3.8555-1.0938 5.375-0.71875 1.5234-1.75 2.7812-3.0938 3.7812-1.3359 0.99219-2.9219 1.7422-4.7656 2.25s-3.8906 0.76562-6.1406 0.76562c-2.0625 0-3.8828-0.15625-5.4531-0.46875-1.5742-0.30078-3.0117-0.71094-4.3125-1.2344-1.3047-0.53125-2.5391-1.1562-3.7031-1.875-1.1562-0.72656-2.3516-1.5312-3.5781-2.4062z"/>
        </g>
        <g id="j">
            <path d="m42.891-21.719c-0.03125 0.76172-0.04687 1.4688-0.04687 2.125-0.04297 0.57422-0.0625 1.1406-0.0625 1.7031s-0.01563 0.99219-0.04687 1.2812c-0.21875 2.4922-0.90234 4.8047-2.0469 6.9375-1.1367 2.1367-2.6016 3.9766-4.3906 5.5156-1.793 1.543-3.8555 2.75-6.1875 3.625-2.3359 0.86328-4.7891 1.2969-7.3594 1.2969-2.8242 0-5.4844-0.54297-7.9844-1.625-2.5-1.0938-4.6836-2.5703-6.5469-4.4375-1.8555-1.8633-3.3281-4.0391-4.4219-6.5312-1.0859-2.5-1.625-5.1602-1.625-7.9844 0-2.8203 0.53906-5.4883 1.625-8 1.0938-2.5195 2.5664-4.7109 4.4219-6.5781 1.8633-1.8633 4.0469-3.3359 6.5469-4.4219 2.5-1.0938 5.1602-1.6406 7.9844-1.6406 3.582 0 6.8633 0.83594 9.8438 2.5 2.9883 1.668 5.4102 3.8906 7.2656 6.6719l-6.5156 3.9688c-1.168-1.6953-2.6836-3.125-4.5469-4.2812-1.8555-1.1641-3.8711-1.75-6.0469-1.75-1.8125 0-3.5078 0.375-5.0781 1.125-1.5742 0.74219-2.9492 1.7266-4.125 2.9531-1.1797 1.2305-2.1094 2.668-2.7969 4.3125-0.6875 1.6484-1.0312 3.3594-1.0312 5.1406 0 1.8047 0.34375 3.5234 1.0312 5.1562 0.6875 1.625 1.6172 3.0547 2.7969 4.2812 1.1758 1.2305 2.5508 2.2188 4.125 2.9688 1.5703 0.74219 3.2656 1.1094 5.0781 1.1094 1.375 0 2.6914-0.20703 3.9531-0.625 1.2695-0.41406 2.4297-1.0039 3.4844-1.7656 1.0508-0.75781 1.9609-1.6641 2.7344-2.7188 0.78125-1.0508 1.3516-2.207 1.7188-3.4688h-14.656v-6.8438z"/>
        </g>
        <g id="b">
            <path d="m38.062 0-26.172-23.625v23.625h-7.5469v-39.688h0.8125l26.125 24v-24h7.5938v39.688z"/>
        </g>
        <g id="i">
            <path d="m21.391 0.70312c-2.5742 0-4.9141-0.39844-7.0156-1.1875-2.0938-0.80078-3.8867-1.9258-5.375-3.375-1.4805-1.4453-2.625-3.2031-3.4375-5.2656s-1.2188-4.3594-1.2188-6.8906v-23.672h7.6094v23.672c0 1.9922 0.32031 3.6367 0.96875 4.9375 0.65625 1.3047 1.4609 2.3359 2.4219 3.0938 0.95703 0.76172 1.9883 1.2891 3.0938 1.5781 1.1016 0.29297 2.0859 0.4375 2.9531 0.4375 0.875 0 1.8633-0.14453 2.9688-0.4375 1.1016-0.28906 2.1328-0.81641 3.0938-1.5781 0.95703-0.75781 1.7578-1.7891 2.4062-3.0938 0.65625-1.3008 0.98438-2.9453 0.98438-4.9375v-23.672h7.5938v23.672c0 2.5312-0.40234 4.8281-1.2031 6.8906-0.79297 2.0625-1.9336 3.8203-3.4219 5.2656-1.4805 1.4492-3.2734 2.5742-5.375 3.375-2.0938 0.78906-4.4453 1.1875-7.0469 1.1875z"/>
        </g>
        <g id="d">
            <path d="m32.906-33.016h-11.344v33.016h-7.6094v-33.016h-11.406v-6.7344h30.359z"/>
        </g>
        <g id="c">
            <path d="m22.906 0.76562c-2.8242 0-5.4844-0.54297-7.9844-1.625-2.4922-1.0938-4.668-2.5703-6.5312-4.4375-1.8672-1.8633-3.3438-4.0391-4.4375-6.5312-1.0859-2.5-1.625-5.1797-1.625-8.0469 0-2.8203 0.53906-5.4883 1.625-8 1.0938-2.5195 2.5703-4.7109 4.4375-6.5781 1.8633-1.8633 4.0391-3.3359 6.5312-4.4219 2.5-1.082 5.1602-1.625 7.9844-1.625 2.8633 0 5.5469 0.54297 8.0469 1.625 2.5 1.0859 4.6758 2.5586 6.5312 4.4219 1.8633 1.8672 3.3359 4.0586 4.4219 6.5781 1.0938 2.5117 1.6406 5.1797 1.6406 8 0 2.8672-0.54688 5.5469-1.6406 8.0469-1.0859 2.4922-2.5586 4.668-4.4219 6.5312-1.8555 1.8672-4.0312 3.3438-6.5312 4.4375-2.5 1.082-5.1836 1.625-8.0469 1.625zm0-34.156c-1.8047 0-3.4961 0.37109-5.0781 1.1094-1.5742 0.74219-2.9492 1.7305-4.125 2.9688-1.168 1.2305-2.1016 2.668-2.7969 4.3125-0.6875 1.6484-1.0312 3.3555-1.0312 5.125 0 1.8125 0.34375 3.5391 1.0312 5.1719 0.69531 1.625 1.6289 3.0625 2.7969 4.3125 1.1758 1.2422 2.5508 2.2344 4.125 2.9844 1.582 0.74219 3.2734 1.1094 5.0781 1.1094 1.8125 0 3.5039-0.36719 5.0781-1.1094 1.582-0.75 2.957-1.7422 4.125-2.9844 1.1758-1.25 2.1094-2.6875 2.7969-4.3125 0.6875-1.6328 1.0312-3.3594 1.0312-5.1719 0-1.7695-0.34375-3.4766-1.0312-5.125-0.6875-1.6445-1.6211-3.082-2.7969-4.3125-1.168-1.2383-2.543-2.2266-4.125-2.9688-1.5742-0.73828-3.2656-1.1094-5.0781-1.1094z"/>
        </g>
        <g id="n">
            <path d="m44.359-39.688v39.688h-7.5938v-20.094l-12.438 14.938-12.375-14.938v20.094h-7.6094v-39.688h0.48438l19.5 22.906 19.547-22.906z"/>
        </g>
        <g id="h">
            <path d="m4.9844-13.734v4.0781h7.9844v2.9062h-7.9844v6.75h-3.1719v-16.562h12.172v2.8281z"/>
        </g>
        <g id="g">
            <path d="m9.5469 0.3125c-1.1797 0-2.2891-0.22656-3.3281-0.67188-1.043-0.45703-1.9531-1.0703-2.7344-1.8438-0.77344-0.78125-1.3867-1.6914-1.8438-2.7344-0.44922-1.0391-0.67188-2.1562-0.67188-3.3438 0-1.1758 0.22266-2.2852 0.67188-3.3281 0.45703-1.0508 1.0703-1.9609 1.8438-2.7344 0.78125-0.78125 1.6914-1.3945 2.7344-1.8438 1.0391-0.45703 2.1484-0.6875 3.3281-0.6875 1.1875 0 2.3008 0.23047 3.3438 0.6875 1.0391 0.44922 1.9453 1.0625 2.7188 1.8438 0.78125 0.77344 1.3945 1.6836 1.8438 2.7344 0.45703 1.043 0.6875 2.1523 0.6875 3.3281 0 1.1875-0.23047 2.3047-0.6875 3.3438-0.44922 1.043-1.0625 1.9531-1.8438 2.7344-0.77344 0.77344-1.6797 1.3867-2.7188 1.8438-1.043 0.44531-2.1562 0.67188-3.3438 0.67188zm0-14.234c-0.75 0-1.4531 0.15625-2.1094 0.46875s-1.2305 0.72656-1.7188 1.2344c-0.49219 0.51172-0.88281 1.1094-1.1719 1.7969-0.28125 0.6875-0.42188 1.4023-0.42188 2.1406 0 0.75 0.14062 1.4688 0.42188 2.1562 0.28906 0.67969 0.67969 1.2773 1.1719 1.7969 0.48828 0.52344 1.0625 0.9375 1.7188 1.25 0.65625 0.30469 1.3594 0.45312 2.1094 0.45312s1.4531-0.14844 2.1094-0.45312c0.65625-0.3125 1.2266-0.72656 1.7188-1.25 0.5-0.51953 0.89062-1.1172 1.1719-1.7969 0.28906-0.6875 0.4375-1.4062 0.4375-2.1562 0-0.73828-0.14844-1.4531-0.4375-2.1406-0.28125-0.6875-0.67188-1.2852-1.1719-1.7969-0.49219-0.50781-1.0625-0.92188-1.7188-1.2344s-1.3594-0.46875-2.1094-0.46875z"/>
        </g>
        <g id="f">
            <path d="m4.9531 0h-3.1406v-16.562h7.5156c0.84375 0 1.6133 0.14062 2.3125 0.42188 0.69531 0.28125 1.2969 0.67969 1.7969 1.1875 0.5 0.5 0.88281 1.1016 1.1562 1.7969 0.28125 0.69922 0.42188 1.4648 0.42188 2.2969 0 1.25-0.3125 2.3438-0.9375 3.2812s-1.4609 1.6094-2.5 2.0156c1.4062 1.8359 2.7852 3.6875 4.1406 5.5625h-3.7656c-0.66797-0.86328-1.3203-1.7344-1.9531-2.6094-0.63672-0.875-1.2734-1.7578-1.9062-2.6562h-3.1406zm0-8.0781h4.375c0.28125 0 0.57031-0.054687 0.875-0.17188 0.3125-0.11328 0.58594-0.28516 0.82812-0.51562 0.25-0.23828 0.45312-0.53125 0.60938-0.875s0.23438-0.75 0.23438-1.2188c0-0.23828-0.03125-0.52344-0.09375-0.85938-0.05469-0.33203-0.17188-0.64844-0.35938-0.95312-0.17969-0.30078-0.43359-0.55469-0.76562-0.76562-0.33594-0.20703-0.77734-0.3125-1.3281-0.3125h-4.375z"/>
        </g>
    </defs>
    <g transform="translate(-120.84 -67.122)">
        <use x="495.30661" y="251.3022" fill="#fff" xlink:href="#o"/>
        <use x="538.73999" y="251.3022" fill="#fff" xlink:href="#e"/>
        <use x="580.76172" y="251.3022" fill="#fff" xlink:href="#a"/>
        <use x="599.22089" y="251.3022" fill="#fff" xlink:href="#m"/>
        <use x="449.548" y="251.3022" fill="#3070b3" xlink:href="#r"/>
    </g>
    <g transform="translate(-120.84 -67.122)">
        <use x="499.94781" y="310.11819" fill="#fff" xlink:href="#l"/>
        <use x="540.28656" y="310.11819" fill="#fff" xlink:href="#k"/>
        <use x="580.4624" y="310.11819" fill="#fff" xlink:href="#a"/>
        <use x="602.17908" y="310.11819" fill="#fff" xlink:href="#j"/>
        <use x="452.54251" y="310.11819" fill="#3070b3" xlink:href="#q"/>
        <use x="650.39008" y="310.11819" fill="#fff" xlink:href="#b"/>
    </g>
    <g transform="translate(-120.84 -67.122)">
        <use x="448.37149" y="368.93359" fill="#3070b3" xlink:href="#p"/>
        <use x="496.24661" y="368.93359" fill="#fff" xlink:href="#i"/>
        <use x="538.97418" y="368.93359" fill="#fff" xlink:href="#d"/>
        <use x="672.37433" y="368.93359" fill="#fff" xlink:href="#e"/>
        <use x="574.04663" y="368.93359" fill="#fff" xlink:href="#c"/>
        <use x="622.14905" y="368.93359" fill="#fff" xlink:href="#n"/>
        <use x="708.9126" y="368.93359" fill="#fff" xlink:href="#d"/>
        <use x="744.8537" y="368.93359" fill="#fff" xlink:href="#a"/>
        <use x="765.48456" y="368.93359" fill="#fff" xlink:href="#c"/>
        <use x="813.58704" y="368.93359" fill="#fff" xlink:href="#b"/>
    </g>
    <path d="m149.39 144.3v129.2h-32.301v-129.2h-117.09v28.262h28.262v129.2h28.266v-129.2h32.297v129.2h88.824v-129.2h32.301v129.2h28.262v-129.2h32.301v129.2h28.262v-157.46z" fill="#3070b3"/>
    <g transform="translate(-120.84 -67.122)" fill="none" stroke="#3070b3" stroke-miterlimit="10" stroke-width="3.5">
        <path transform="matrix(1 0 0 -1 658.88 90.722)" d="m6.125e-4 -7.5625e-4c14.688 10.305 29.121 14.371 42.043 10.57-27.289 8.0273-55.637 6.0078-82.418-4.0938"/>
        <path transform="matrix(1 0 0 -1 798.29 145.27)" d="m-3.4375e-4 -0.0019312c0.0078125-0.0039062 0.011719 0.0078125 0.0078125 0.011719-24.215 30.09-57.504 53.379-97.367 65.105 27.293-8.0312 50.031-25.074 67.078-48.07"/>
        <path transform="matrix(1 0 0 -1 618.51 84.245)" d="m-6.875e-4 -0.0011938c26.781 10.102 55.125 12.121 82.418 4.0937-39.773 11.699-80.285 10.176-116.88-1.9375-0.050781-0.015625-0.039062-0.089843 0.011719-0.089843"/>
        <path transform="matrix(1 0 0 -1 768 128.22)" d="m0.0010062-0.0011562c-17.047 22.996-39.785 40.039-67.074 48.07 12.922-3.8047 22.852-15.039 29.625-31.652"/>
        <path transform="matrix(1 0 0 -1 730.55 111.81)" d="m0.0014875 5.125e-4c-6.7734 16.617-16.703 27.848-29.629 31.652-12.922 3.8008-27.355-0.26562-42.043-10.57"/>
        <path transform="matrix(1 0 0 -1 513.63 185.72)" d="m8.0625e-4 -0.00155c14.832 30.281 35.086 55.668 58.352 74.449-5.582 6.043-10.262 12.227-13.949 18.457-27.645-13.785-52.016-34.008-70.672-59.398"/>
        <path transform="matrix(1 0 0 -1 841.84 256.35)" d="m-6.625e-4 -6.6875e-4c0.85547-15.492-0.12109-31.281-3.082-47.07" stroke-width="7"/>
        <path transform="matrix(1 0 0 -1 814.21 168.17)" d="m-0.0012688 0.001625c-6.4727-3.2422-13.754-5.9062-21.723-7.9648 9.3945-28.387 12.672-60.695 8.7461-94.184"/>
        <path transform="matrix(1 0 0 -1 590.68 183.73)" d="m-0.0013125-1.625e-4c6.8008 14.734 14.137 28.309 21.793 40.461-16.219 9.6797-29.941 20.582-40.492 31.996-23.266-18.781-43.52-44.168-58.352-74.449"/>
        <path transform="matrix(1 0 0 -1 792.49 176.14)" d="m-0.001625-0.0013188c-15.051-3.8828-32.488-5.6172-51.367-4.9727-0.17188-17.551-1.8984-36.617-5.25-56.602"/>
        <path transform="matrix(1 0 0 -1 735.87 237.71)" d="m5.875e-4 -5.375e-4c3.3477 19.984 5.0781 39.051 5.25 56.602-20.906 0.71484-43.555 4.3203-66.621 11.105-23.066 6.7891-44.059 16.02-62.023 26.738"/>
        <path transform="matrix(1 0 0 -1 768 128.22)" d="m0.0010062-0.0011562c10.367-13.984 18.613-30.176 24.48-47.914 7.9688 2.0586 15.25 4.7227 21.723 7.9648-4.7422 7.9805-10.195 15.805-16.031 23.062"/>
        <path transform="matrix(1 0 0 -1 584.06 82.18)" d="m-1e-4 3.125e-4c-0.09375 0 0.082031 0.089844-0.011719 0.089844-8.8359-2.9375-17.711-6.582-26.02-10.723 3.6875-6.2305 8.3672-12.414 13.949-18.457 14.539 11.734 30.238 20.879 46.527 27.023"/>
        <path transform="matrix(1 0 0 -1 730.55 111.81)" d="m0.0014875 5.125e-4c7.2227-17.73 10.84-41.605 10.563-69.305 18.879-0.64453 36.316 1.0898 51.367 4.9727-5.8672 17.738-14.113 33.93-24.48 47.914"/>
        <path transform="matrix(1 0 0 -1 618.51 84.245)" d="m-6.875e-4 -0.0011938c-16.289-6.1445-31.992-15.289-46.527-27.023 10.551-11.418 24.273-22.312 40.492-31.996 14.766 23.434 30.734 41.551 46.41 52.543"/>
        <path transform="matrix(1 0 0 -1 474.24 172.14)" d="m8.875e-4 0.001475c43.668 78.918 137.35 119.94 227.14 93.523 81.801-24.062 136.01-96.918 140.46-177.74" stroke-width="7"/>
        <path transform="matrix(1 0 0 -1 613.82 71.438)" d="m0.0014188 4e-4c16.047-25.637 48.055-47.246 87.84-56.066 28.863-6.3984 56.859-4.9688 79.746 2.5781"/>
        <path transform="matrix(1 0 0 -1 766.82 242.77)" d="m-0.0012938 7.625e-4c25.398 0.37891 49.762 3.3828 72.461 8.7422"/>
        <path transform="matrix(1 0 0 -1 499.14 136.95)" d="m4.1875e-4 0.0011812c13.969-15.25 30.523-29.473 49.25-42.238"/>
    </g>
    <g transform="translate(-120.84 -67.122)" fill="#fff">
        <use x="643.50342" y="251.8213" xlink:href="#h"/>
        <use x="658.25262" y="251.8213" xlink:href="#g"/>
        <use x="677.39038" y="251.8213" xlink:href="#f"/>
    </g>
</svg>
