<?xml version="1.0" encoding="UTF-8"?>
<svg version="1.1" viewBox="0 0 690.98 172.99" xml:space="preserve" xmlns="http://www.w3.org/2000/svg" xmlns:cc="http://creativecommons.org/ns#" xmlns:dc="http://purl.org/dc/elements/1.1/" xmlns:rdf="http://www.w3.org/1999/02/22-rdf-syntax-ns#"><title>Munich Quantum Software Company</title><defs><clipPath id="b"><path transform="translate(-690.12 -252.86)" d="M 0,821.859 H 1461.753 V 0 H 0 Z"/></clipPath><clipPath id="a"><path transform="translate(-690.12 -252.86)" d="M 0,821.859 H 1461.753 V 0 H 0 Z"/></clipPath></defs>
    <style type="text/css">
.st0{fill:#3070b3;}
.st1{fill:#3C3C3C;}
</style>
    <g transform="translate(-11.864 -4.9993)">
	<path class="st0" d="m144.09 65.729c-14.6-4.58-30.08-6.99-45.79-6.99-28.22 0-55.73 7.74-78.7 21.97v7.72c22.6-15 50.25-23.22 78.7-23.22 15.74 0 31.25 2.52 45.79 7.3z"/>
        <path class="st0" d="m144.27 107.45c-14.59 4.82-30.15 7.36-45.96 7.36-28.45 0-56.1-8.21-78.7-23.22v7.72c22.96 14.23 50.47 21.97 78.7 21.97 16.21 0 32.17-2.56 47.18-7.43-0.61-2.01-1.01-4.15-1.22-6.4z"/>
        <path class="st1" d="m175.23 126c-3.41 0-6.5-0.53-9.28-1.58s-5.16-2.54-7.12-4.46c-1.97-1.92-3.49-4.24-4.57-6.98-1.08-2.73-1.62-5.78-1.62-9.14v-31.37h10.07v31.32c0 2.63 0.43 4.81 1.3 6.54 0.86 1.72 1.93 3.09 3.2 4.09 1.27 1.01 2.64 1.7 4.1 2.08s2.77 0.58 3.92 0.58 2.46-0.19 3.92-0.58c1.46-0.38 2.83-1.08 4.1-2.08s2.34-2.37 3.2-4.09 1.3-3.9 1.3-6.54v-31.32h10.07v31.37c0 3.36-0.53 6.4-1.58 9.14-1.05 2.73-2.57 5.06-4.53 6.98-1.97 1.92-4.34 3.41-7.12 4.46-2.79 1.05-5.9 1.58-9.36 1.58z"/>
        <path class="st1" d="m382.37 126.07c-3.41 0-6.5-0.53-9.28-1.58s-5.16-2.54-7.12-4.46c-1.97-1.92-3.49-4.25-4.57-6.98s-1.62-5.78-1.62-9.14v-31.37h10.07v31.32c0 2.63 0.43 4.81 1.3 6.54 0.86 1.72 1.93 3.09 3.2 4.09 1.27 1.01 2.64 1.7 4.1 2.08s2.77 0.57 3.92 0.57 2.46-0.19 3.92-0.57 2.83-1.08 4.1-2.08c1.27-1.01 2.34-2.37 3.2-4.09s1.3-3.9 1.3-6.54v-31.32h10.07v31.37c0 3.36-0.53 6.4-1.58 9.14-1.06 2.73-2.57 5.06-4.53 6.98-1.97 1.92-4.34 3.41-7.12 4.46s-5.91 1.58-9.36 1.58z"/>
        <path class="st1" d="m199.02 125.1 27.08-52.71h1.04l26.85 52.64h-10.96l-16.43-32.92-16.48 32.96c0.01 0-11.1-0.1-11.1 0.03z"/>
        <path class="st1" d="m162.31 131.92c-0.88-0.33-1.72-0.7-2.53-1.1-13.39 20.57-36.57 34.22-62.9 34.22-41.37 0-75.02-33.66-75.02-75.02 0-41.36 33.66-75.02 75.02-75.02 32.27 0 59.82 20.5 70.38 49.15h10.58c-10.98-34.26-43.1-59.15-80.96-59.15-46.88 0-85.02 38.14-85.02 85.02 0 46.88 38.14 85.02 85.02 85.02 30.87 0 57.94-16.54 72.84-41.21-0.31-0.06-0.61-0.14-0.91-0.21-2.29-0.36-4.46-0.92-6.5-1.7z"/>
        <polygon class="st1" transform="translate(-50.666 -101.28)" points="310.52 173.75 309.44 173.75 309.44 226.31 319.51 226.31 319.51 195.04 354.08 226.31 355.2 226.31 355.2 173.75 345.13 173.75 345.13 205.55"/>
        <polygon class="st1" transform="translate(-50.666 -101.28)" points="378.43 226.31 388.5 226.31 388.5 182.67 403.54 182.67 403.54 173.75 363.32 173.75 363.32 182.67 378.43 182.67"/>
        <polygon class="st1" transform="translate(-50.666 -101.28)" points="465.71 226.31 475.78 226.31 475.78 199.79 492.19 219.58 508.66 199.79 508.66 226.31 518.74 226.31 518.74 173.82 518.09 173.82 492.19 204.18 466.36 173.82 465.71 173.82"/>
        <path class="st1" d="m197.82 157.37c-2.09 0.26-4.22 0.45-6.33 0.57-25.2 1.45-49.46-7.01-68.3-23.81s-30.02-39.93-31.46-65.14c-1.08-18.91 3.44-37.47 13.09-53.68l-8.59-5.12c-10.67 17.93-15.68 38.45-14.48 59.36 1.6 27.87 13.95 53.45 34.79 72.03 19.31 17.22 43.76 26.51 69.42 26.51 2.03 0 4.07-0.06 6.11-0.18 1.92-0.11 3.84-0.29 5.75-0.5z"/>
</g><g transform="translate(-11.864 -4.9993)"><path class="st0" transform="translate(-103.17 7.5072)" d="m806.01 138.45q-1.204 1.978-2.795 4.515-1.548 2.537-3.182 5.203-1.634 2.623-3.225 5.203-1.591 2.537-2.795 4.601v11.911h-6.02v-11.911q-2.795-4.902-5.934-9.761t-5.977-9.761h7.009q1.935 3.225 3.956 6.665t3.956 6.665q0.946-1.505 1.978-3.225t2.064-3.44q1.032-1.763 2.021-3.44 1.032-1.72 1.935-3.225z"/><path class="st0" transform="translate(-103.17 7.5072)" d="m771.65 169.88-20.726-18.705v18.705h-5.977v-31.433h0.645l20.683 19.006v-19.006h6.02v31.433z"/><path class="st0" transform="translate(-103.17 7.5072)" d="m708.48 169.88 16.082-31.433h0.602l16.082 31.433h-6.536l-2.451-4.945h-14.835l-2.408 4.945zm11.868-10.191h8.987l-4.472-9.503z"/><path class="st0" transform="translate(-103.17 7.5072)" d="m701 138.41q2.322 0 4.343 0.903 2.064 0.86 3.569 2.365t2.365 3.569q0.903 2.021 0.903 4.343t-0.774 4.3-2.279 3.483q-1.505 1.462-3.827 2.322-2.279 0.817-5.289 0.817h-7.009v9.374h-6.02v-31.476zm0 16.684q1.333 0 2.322-0.43 0.989-0.473 1.591-1.247 0.645-0.774 0.946-1.763t0.301-2.064-0.387-2.107q-0.387-1.075-1.118-1.892t-1.806-1.333-2.494-0.516h-7.353v11.352z"/><path class="st0" transform="translate(-103.17 7.5072)" d="m680.06 138.45v31.433h-6.02v-15.91l-9.847 11.825-9.804-11.825v15.91h-6.02v-31.433h0.387l15.437 18.146 15.48-18.146z"/><path transform="matrix(.53832 0 0 -.538 538.61 155.29)" d="m0 0c-1.599 3.702-3.769 6.924-6.513 9.669-2.744 2.742-5.952 4.914-9.628 6.511-3.675 1.598-7.618 2.398-11.825 2.398-2.943 0-5.759-0.422-8.461-1.224l4.758-9.635c1.208 0.256 2.454 0.391 3.743 0.391 2.657 0 5.141-0.546 7.455-1.638 2.312-1.092 4.331-2.544 6.059-4.354 1.727-1.812 3.096-3.93 4.106-6.353 1.011-2.425 1.516-4.942 1.516-7.551 0-2.664-0.505-5.194-1.516-7.591-1.01-2.397-2.379-4.514-4.106-6.352-1.728-1.838-3.747-3.304-6.059-4.395-2.314-1.092-4.798-1.638-7.455-1.638-2.658 0-5.145 0.546-7.456 1.638-2.312 1.091-4.334 2.557-6.061 4.395-1.728 1.838-3.096 3.955-4.107 6.352-1.009 2.397-1.513 4.927-1.513 7.591 0 2.609 0.504 5.126 1.513 7.551 1.011 2.423 2.379 4.541 4.107 6.353 0.157 0.165 0.33 0.311 0.492 0.47l-4.941 10.007c-1.213-0.897-2.378-1.855-3.449-2.926-2.744-2.745-4.914-5.967-6.513-9.669-1.597-3.703-2.397-7.631-2.397-11.786 0-4.209 0.8-8.15 2.397-11.826 1.599-3.675 3.769-6.885 6.513-9.628 2.742-2.744 5.952-4.914 9.629-6.512 3.674-1.598 7.591-2.397 11.746-2.397 4.207 0 8.15 0.799 11.825 2.397 3.676 1.598 6.884 3.768 9.628 6.512 2.744 2.743 4.914 5.953 6.513 9.628 1.597 3.676 2.397 7.617 2.397 11.826 0 4.155-0.8 8.083-2.397 11.786" clip-path="url(#a)" fill="#3070b3"/><path class="st0" transform="translate(-103.17 7.5072)" d="m607.35 162.14q-1.032 1.892-2.537 3.44-1.505 1.505-3.354 2.623-1.806 1.075-3.956 1.677-2.107 0.602-4.386 0.602-3.354 0-6.321-1.29t-5.203-3.483q-2.193-2.236-3.483-5.203t-1.29-6.321 1.29-6.321 3.483-5.16q2.236-2.236 5.203-3.526t6.321-1.29q2.279 0 4.386 0.602 2.15 0.602 3.956 1.72 1.849 1.075 3.354 2.623 1.505 1.505 2.537 3.354l-5.633 2.279q-0.688-1.032-1.634-1.935-0.903-0.903-2.021-1.591t-2.365-1.075-2.58-0.387q-2.15 0-4.042 0.903-1.849 0.86-3.225 2.322t-2.193 3.44q-0.817 1.935-0.817 4.042 0 2.15 0.817 4.085t2.193 3.397 3.225 2.365q1.892 0.86 4.042 0.86 1.333 0 2.58-0.387t2.365-1.075 2.021-1.591q0.946-0.946 1.634-1.978z"/></g><g transform="translate(-11.864 -4.9993)"><path class="st0" d="m287.04 56.314-20.726-18.705v18.705h-5.977v-31.433h0.645l20.683 19.006v-19.006h6.02v31.433z"/><path class="st0" d="m239.96 56.873q-3.053 0-5.547-0.946t-4.257-2.666-2.752-4.171q-0.946-2.451-0.946-5.461v-18.748h6.02v18.748q0 2.365 0.774 3.913t1.892 2.451q1.161 0.903 2.451 1.247 1.333 0.344 2.365 0.344t2.322-0.344q1.333-0.344 2.451-1.247 1.161-0.903 1.935-2.451t0.774-3.913v-18.748h6.02v18.748q0 3.01-0.946 5.461t-2.709 4.171-4.257 2.666-5.59 0.946z"/><path class="st0" d="m219.53 24.881v31.433h-6.02v-15.91l-9.847 11.825-9.804-11.825v15.91h-6.02v-31.433h0.387l15.437 18.146 15.48-18.146z"/><path class="st0" d="m301.45 56.314h-6.02v-31.433h6.02z"/><path class="st0" d="m369.31 24.838v31.476h-5.977v-12.513h-15.566v12.513h-5.977v-31.476h5.977v13.588h15.566v-13.588z"/><path class="st0" d="m337.14 48.574q-1.032 1.892-2.537 3.44-1.505 1.505-3.354 2.623-1.806 1.075-3.956 1.677-2.107 0.602-4.386 0.602-3.354 0-6.321-1.29t-5.203-3.483q-2.193-2.236-3.483-5.203t-1.29-6.321 1.29-6.321 3.483-5.16q2.236-2.236 5.203-3.526t6.321-1.29q2.279 0 4.386 0.602 2.15 0.602 3.956 1.72 1.849 1.075 3.354 2.623 1.505 1.505 2.537 3.354l-5.633 2.279q-0.688-1.032-1.634-1.935-0.903-0.903-2.021-1.591t-2.365-1.075-2.58-0.387q-2.15 0-4.042 0.903-1.849 0.86-3.225 2.322t-2.193 3.44q-0.817 1.935-0.817 4.042 0 2.15 0.817 4.085t2.193 3.397 3.225 2.365q1.892 0.86 4.042 0.86 1.333 0 2.58-0.387t2.365-1.075 2.021-1.591q0.946-0.946 1.634-1.978z"/></g><g transform="translate(-11.864 -4.9993)"><path class="st0" transform="translate(-103.17 7.5072)" d="m540.44 143.74v7.869h15.222v5.461h-15.222v7.396h17.157v5.418h-23.134v-31.476h23.134v5.332z"/><path class="st0" transform="translate(-103.17 7.5072)" d="m509.48 169.88h-5.977v-31.476h14.276q2.408 0 4.386 0.817 2.021 0.774 3.44 2.236 1.419 1.419 2.193 3.44 0.817 1.978 0.817 4.343 0 3.569-1.806 6.235-1.763 2.666-4.73 3.827 3.999 5.246 7.869 10.578h-7.181q-1.892-2.451-3.698-4.945t-3.612-5.074h-5.977zm0-15.351h8.299q0.817 0 1.677-0.301 0.903-0.344 1.591-0.989 0.688-0.688 1.118-1.677 0.473-0.989 0.473-2.322 0-0.688-0.172-1.634t-0.688-1.806-1.462-1.462-2.537-0.602h-8.299z"/><path class="st0" transform="translate(-103.17 7.5072)" d="m468.71 169.88 16.082-31.433h0.602l16.082 31.433h-6.536l-2.451-4.945h-14.835l-2.408 4.945zm11.868-10.191h8.987l-4.472-9.503z"/><path class="st0" transform="translate(-103.17 7.5072)" d="m472.41 138.45-11.739 31.433h-0.602l-8.514-18.318-8.6 18.361h-0.559l-11.61-31.476h6.407l6.149 17.243 7.998-17.243h0.387l7.998 17.286 6.278-17.286z"/><path class="st0" transform="translate(-103.17 7.5072)" d="m429.54 143.74h-8.987v26.144h-6.02v-26.144h-9.03v-5.332h24.037z"/><path class="st0" transform="translate(-103.17 7.5072)" d="m384.91 143.78v7.74h15.179v5.547h-15.179v12.814h-6.02v-31.476h23.134v5.375z"/><path class="st0" transform="translate(-103.17 7.5072)" d="m312.02 165.75 3.268-4.816q2.365 1.634 4.859 2.838 2.537 1.161 5.289 1.161 1.462 0 2.58-0.344 1.118-0.387 1.892-0.946 0.774-0.602 1.161-1.333 0.387-0.774 0.387-1.505 0-0.946-0.60201-1.591-0.55899-0.688-1.548-1.118-0.94599-0.43-2.279-0.731-1.29-0.301-2.709-0.559-0.94599-0.172-2.193-0.387-1.247-0.258-2.58-0.645-1.333-0.43-2.623-1.075-1.29-0.688-2.322-1.677-1.032-1.032-1.677-2.408-0.60199-1.419-0.60199-3.311 0-2.752 1.118-4.558 1.118-1.849 2.838-2.881 1.763-1.075 3.87-1.505 2.15-0.43 4.128-0.43 1.978 0 3.526 0.258t2.881 0.774q1.333 0.473 2.58 1.247 1.29 0.731 2.752 1.763l-3.354 4.73q-2.236-1.548-4.3-2.365-2.064-0.817-4.343-0.817-0.774 0-1.763 0.215-0.98901 0.172-1.892 0.602-0.86001 0.43-1.462 1.118-0.559 0.645-0.559 1.591t0.688 1.591 1.763 1.075q1.075 0.43 2.365 0.731 1.29 0.301 2.494 0.602 0.903 0.215 2.107 0.43 1.247 0.215 2.537 0.602 1.333 0.387 2.623 1.032 1.29 0.645 2.279 1.677 1.032 0.989 1.634 2.494 0.64499 1.462 0.64499 3.569 0 2.451-0.86 4.257t-2.451 3.01q-1.591 1.161-3.784 1.763-2.193 0.602-4.859 0.602-2.451 0-4.343-0.387-1.849-0.344-3.397-0.946-1.548-0.645-2.924-1.505t-2.838-1.892z"/><path transform="matrix(.53832 0 0 -.538 269.1 155.29)" d="m0 0c-1.599 3.702-3.769 6.924-6.513 9.669-2.744 2.742-5.952 4.914-9.628 6.511-3.675 1.598-7.618 2.398-11.825 2.398-2.943 0-5.759-0.422-8.461-1.224l4.758-9.635c1.208 0.256 2.454 0.391 3.743 0.391 2.657 0 5.141-0.546 7.455-1.638 2.312-1.092 4.331-2.544 6.059-4.354 1.727-1.812 3.096-3.93 4.106-6.353 1.011-2.425 1.516-4.942 1.516-7.551 0-2.664-0.505-5.194-1.516-7.591-1.01-2.397-2.379-4.514-4.106-6.352-1.728-1.838-3.747-3.304-6.059-4.395-2.314-1.092-4.798-1.638-7.455-1.638-2.658 0-5.145 0.546-7.456 1.638-2.312 1.091-4.334 2.557-6.061 4.395-1.728 1.838-3.096 3.955-4.107 6.352-1.009 2.397-1.513 4.927-1.513 7.591 0 2.609 0.504 5.126 1.513 7.551 1.011 2.423 2.379 4.541 4.107 6.353 0.157 0.165 0.33 0.311 0.492 0.47l-4.941 10.007c-1.213-0.897-2.378-1.855-3.449-2.926-2.744-2.745-4.914-5.967-6.513-9.669-1.597-3.703-2.397-7.631-2.397-11.786 0-4.209 0.8-8.15 2.397-11.826 1.599-3.675 3.769-6.885 6.513-9.628 2.742-2.744 5.952-4.914 9.629-6.512 3.674-1.598 7.591-2.397 11.746-2.397 4.207 0 8.15 0.799 11.825 2.397 3.676 1.598 6.884 3.768 9.628 6.512 2.744 2.743 4.914 5.953 6.513 9.628 1.597 3.676 2.397 7.617 2.397 11.826 0 4.155-0.8 8.083-2.397 11.786" clip-path="url(#b)" fill="#3070b3"/></g>
    <metadata><rdf:RDF><cc:Work rdf:about=""><dc:title>Munich Quantum Software Company</dc:title><dc:date>2025</dc:date><dc:creator><cc:Agent><dc:title>Lukas Burgholzer</dc:title></cc:Agent></dc:creator><dc:language>English</dc:language></cc:Work></rdf:RDF></metadata></svg>
