<?xml version="1.0" encoding="UTF-8"?>
<svg width="2602.7" height="862.8" version="1.1" viewBox="0 0 688.64 228.28" xmlns="http://www.w3.org/2000/svg">
    <defs>
        <clipPath id="d">
            <path transform="translate(-690.12,-252.86)" d="M 0,821.859 H 1461.753 V 0 H 0 Z"/>
        </clipPath>
        <clipPath id="c">
            <path transform="translate(-690.12,-252.86)" d="M 0,821.859 H 1461.753 V 0 H 0 Z"/>
        </clipPath>
    </defs>
    <g transform="translate(0 -13.229)">
        <g transform="matrix(.31323 0 0 -.31323 543.16 250.59)">
            <g transform="matrix(1 0 0 1 -6.2251e-5 9.4681e-5)" fill="#1a8ab9">
                <path transform="translate(84.557,163.65)" d="m0 0h8.865l8.28-22.635h0.135l8.19 22.635h8.91v-31.86h-5.625v25.605h-0.09l-9.675-25.605h-3.96l-9.54 25.605h-0.09v-25.605h-5.4z"/>
                <path d="m145.4 131.79h-5.13v3.465h-0.09c-0.48-1.08-1.313-2.033-2.498-2.858-1.185-0.824-2.587-1.237-4.207-1.237-1.41 0-2.618 0.248-3.623 0.742-1.005 0.495-1.83 1.148-2.474 1.958-0.646 0.81-1.119 1.74-1.418 2.79-0.3 1.05-0.45 2.13-0.45 3.24v13.5h5.4v-11.97c0-0.63 0.045-1.29 0.135-1.98 0.09-0.691 0.285-1.313 0.585-1.867 0.299-0.556 0.712-1.013 1.237-1.373s1.222-0.54 2.093-0.54c0.839 0 1.582 0.172 2.227 0.518 0.645 0.344 1.171 0.787 1.575 1.327 0.405 0.54 0.713 1.162 0.923 1.868 0.209 0.704 0.315 1.417 0.315 2.137v11.88h5.4z"/>
                <path d="m151.88 153.39h5.13v-3.465h0.09c0.479 1.08 1.312 2.032 2.497 2.858 1.185 0.824 2.588 1.237 4.208 1.237 1.409 0 2.617-0.248 3.622-0.743 1.005-0.494 1.83-1.147 2.475-1.957s1.118-1.741 1.418-2.79c0.299-1.051 0.45-2.131 0.45-3.24v-13.5h-5.4v11.97c0 0.63-0.045 1.29-0.135 1.98s-0.286 1.312-0.585 1.867c-0.3 0.555-0.713 1.013-1.238 1.373s-1.222 0.54-2.092 0.54c-0.871 0-1.62-0.173-2.25-0.518s-1.148-0.787-1.553-1.327-0.713-1.163-0.922-1.868c-0.211-0.705-0.315-1.417-0.315-2.137v-11.88h-5.4z"/>
                <path d="m178.16 153.39h5.4v-21.6h-5.4zm-0.765 7.335c0 0.87 0.322 1.627 0.967 2.272s1.463 0.968 2.453 0.968 1.822-0.308 2.497-0.923 1.013-1.387 1.013-2.317-0.338-1.703-1.013-2.317c-0.675-0.616-1.507-0.923-2.497-0.923s-1.808 0.322-2.453 0.967-0.967 1.402-0.967 2.273"/>
                <path d="m204.89 147.4c-0.42 0.6-1.05 1.102-1.89 1.507s-1.695 0.608-2.565 0.608c-0.989 0-1.86-0.203-2.609-0.608-0.751-0.405-1.374-0.938-1.869-1.597-0.495-0.66-0.862-1.403-1.102-2.228s-0.36-1.658-0.36-2.497c0-0.84 0.127-1.673 0.382-2.497 0.255-0.826 0.638-1.569 1.148-2.228 0.51-0.661 1.148-1.193 1.913-1.598s1.657-0.607 2.678-0.607c0.838 0 1.679 0.164 2.519 0.495 0.84 0.33 1.515 0.81 2.026 1.44l3.375-3.42c-0.901-0.961-2.048-1.703-3.443-2.228-1.395-0.524-2.903-0.787-4.522-0.787-1.591 0-3.099 0.255-4.523 0.765-1.426 0.509-2.671 1.26-3.735 2.25-1.066 0.99-1.906 2.189-2.521 3.6-0.615 1.409-0.922 3.015-0.922 4.815 0 1.739 0.307 3.315 0.922 4.725 0.615 1.409 1.448 2.61 2.498 3.6s2.273 1.755 3.667 2.295c1.396 0.54 2.888 0.81 4.478 0.81s3.128-0.301 4.613-0.9c1.485-0.601 2.661-1.425 3.532-2.475z"/>
                <path d="m56.838 113.37c-1.53 0-2.963-0.286-4.298-0.855-1.335-0.57-2.482-1.35-3.442-2.34-0.961-0.99-1.718-2.176-2.273-3.555-0.555-1.38-0.832-2.88-0.832-4.5 0-1.71 0.262-3.263 0.787-4.657 0.525-1.395 1.26-2.588 2.205-3.578s2.077-1.763 3.398-2.317c1.32-0.556 2.774-0.833 4.365-0.833 1.559 0 3.007 0.277 4.342 0.833 1.335 0.554 2.482 1.327 3.443 2.317 0.96 0.99 1.71 2.183 2.25 3.578 0.54 1.394 0.81 2.947 0.81 4.657 0 1.62-0.255 3.12-0.765 4.5-0.51 1.379-1.238 2.565-2.183 3.555s-2.078 1.77-3.397 2.34c-1.321 0.569-2.79 0.855-4.41 0.855m19.125-27.585h-19.215c-2.551 0-4.868 0.367-6.952 1.102-2.086 0.735-3.871 1.8-5.356 3.195s-2.632 3.105-3.442 5.131c-0.81 2.025-1.215 4.326-1.215 6.907 0 2.43 0.427 4.642 1.282 6.638 0.856 1.994 2.048 3.712 3.578 5.152s3.337 2.557 5.422 3.353c2.085 0.794 4.343 1.192 6.773 1.192s4.68-0.398 6.75-1.192c2.07-0.796 3.862-1.913 5.377-3.353s2.692-3.158 3.533-5.152c0.84-1.996 1.26-4.208 1.26-6.638 0-1.44-0.166-2.76-0.495-3.96-0.331-1.2-0.758-2.288-1.283-3.263s-1.125-1.83-1.8-2.565-1.372-1.357-2.092-1.867v-0.091h7.875z"/>
                <path d="m99.407 85.787h-5.13v3.465h-0.09c-0.48-1.08-1.313-2.032-2.498-2.858-1.185-0.824-2.587-1.237-4.207-1.237-1.41 0-2.618 0.248-3.623 0.742-1.005 0.495-1.83 1.148-2.474 1.958-0.646 0.81-1.119 1.74-1.418 2.79-0.3 1.05-0.45 2.13-0.45 3.241v13.5h5.4v-11.971c0-0.63 0.045-1.29 0.135-1.98s0.285-1.312 0.585-1.867c0.299-0.555 0.712-1.012 1.237-1.373 0.525-0.36 1.222-0.54 2.093-0.54 0.839 0 1.582 0.173 2.227 0.518 0.645 0.344 1.171 0.787 1.575 1.327 0.405 0.54 0.713 1.163 0.923 1.868 0.209 0.705 0.315 1.417 0.315 2.138v11.88h5.4z"/>
                <path d="m119.21 95.643h-1.215c-0.87 0-1.785-0.038-2.745-0.112-0.96-0.075-1.845-0.241-2.655-0.495-0.81-0.256-1.485-0.616-2.025-1.08-0.54-0.466-0.81-1.103-0.81-1.913 0-0.51 0.113-0.938 0.337-1.283 0.225-0.345 0.518-0.623 0.878-0.832 0.36-0.211 0.765-0.36 1.215-0.45s0.9-0.135 1.35-0.135c1.86 0 3.27 0.494 4.23 1.485 0.96 0.99 1.44 2.34 1.44 4.05zm0.09-7.11h-0.135c-0.54-0.96-1.411-1.748-2.61-2.363-1.2-0.614-2.565-0.923-4.095-0.923-0.871 0-1.777 0.113-2.723 0.338-0.944 0.225-1.815 0.6-2.61 1.125s-1.455 1.215-1.98 2.071c-0.525 0.854-0.787 1.912-0.787 3.172 0 1.62 0.457 2.91 1.372 3.87s2.093 1.695 3.533 2.205 3.037 0.847 4.793 1.012c1.755 0.165 3.471 0.248 5.152 0.248v0.54c0 1.35-0.488 2.347-1.462 2.993-0.976 0.644-2.138 0.967-3.488 0.967-1.14 0-2.235-0.24-3.285-0.72-1.051-0.48-1.92-1.065-2.61-1.755l-2.79 3.285c1.23 1.14 2.647 1.995 4.253 2.565 1.604 0.569 3.232 0.855 4.882 0.855 1.919 0 3.502-0.27 4.748-0.81 1.244-0.54 2.227-1.245 2.947-2.115s1.222-1.845 1.508-2.925c0.284-1.08 0.427-2.16 0.427-3.24v-13.14h-5.04z"/>
                <path d="m130.64 107.39h5.13v-3.465h0.09c0.479 1.08 1.312 2.032 2.497 2.858 1.185 0.824 2.588 1.237 4.208 1.237 1.409 0 2.617-0.248 3.622-0.743 1.005-0.494 1.83-1.147 2.475-1.957s1.118-1.741 1.418-2.79c0.299-1.051 0.45-2.131 0.45-3.24v-13.501h-5.4v11.971c0 0.63-0.045 1.29-0.135 1.98s-0.286 1.312-0.585 1.867c-0.3 0.555-0.713 1.013-1.238 1.373s-1.222 0.54-2.092 0.54c-0.871 0-1.62-0.173-2.25-0.518s-1.148-0.787-1.553-1.327-0.713-1.163-0.922-1.868c-0.211-0.705-0.315-1.417-0.315-2.137v-11.881h-5.4z"/>
                <path d="m191.84 85.787h-5.13v3.465h-0.09c-0.48-1.08-1.313-2.032-2.498-2.858-1.185-0.824-2.587-1.237-4.207-1.237-1.41 0-2.618 0.248-3.623 0.742-1.005 0.495-1.83 1.148-2.474 1.958-0.646 0.81-1.119 1.74-1.418 2.79-0.3 1.05-0.45 2.13-0.45 3.241v13.5h5.4v-11.971c0-0.63 0.045-1.29 0.135-1.98s0.285-1.312 0.585-1.867c0.299-0.555 0.712-1.012 1.237-1.373 0.525-0.36 1.222-0.54 2.093-0.54 0.839 0 1.582 0.173 2.227 0.518 0.645 0.344 1.171 0.787 1.575 1.327 0.405 0.54 0.713 1.163 0.923 1.868 0.209 0.705 0.315 1.417 0.315 2.138v11.88h5.4z"/>
                <path d="m224.1 108.02c1.409 0 2.617-0.248 3.622-0.743 1.005-0.494 1.83-1.147 2.476-1.957 0.644-0.81 1.117-1.74 1.417-2.79 0.299-1.051 0.45-2.131 0.45-3.24v-13.5h-5.401v11.97c0 0.63-0.044 1.29-0.134 1.98s-0.285 1.312-0.585 1.867-0.713 1.013-1.238 1.373-1.222 0.54-2.092 0.54c-0.84 0-1.56-0.18-2.161-0.54-0.6-0.36-1.094-0.825-1.484-1.395-0.391-0.57-0.675-1.208-0.855-1.913s-0.27-1.402-0.27-2.092v-11.79h-5.4v13.05c0 1.35-0.323 2.467-0.968 3.352-0.646 0.885-1.657 1.328-3.037 1.328-0.81 0-1.516-0.173-2.115-0.518-0.601-0.345-1.088-0.787-1.462-1.327-0.376-0.54-0.66-1.163-0.856-1.867-0.195-0.705-0.292-1.418-0.292-2.138v-11.88h-5.4v21.6h5.13v-3.465h0.09c0.24 0.54 0.562 1.05 0.967 1.53 0.406 0.48 0.885 0.915 1.441 1.305 0.554 0.389 1.192 0.698 1.912 0.923s1.515 0.337 2.385 0.337c1.679 0 3.075-0.375 4.185-1.125s1.964-1.74 2.565-2.97c0.719 1.32 1.679 2.332 2.88 3.037 1.2 0.705 2.61 1.058 4.23 1.058"/>
                <path d="m109.4 71.648h6.345l8.775-24.525h0.18l8.865 24.525h6.12l-12.78-31.86h-4.905z"/>
                <path d="m153.9 49.643h-1.215c-0.87 0-1.785-0.038-2.745-0.112-0.96-0.075-1.845-0.242-2.655-0.495-0.81-0.256-1.485-0.616-2.025-1.08-0.54-0.466-0.81-1.103-0.81-1.914 0-0.509 0.113-0.937 0.337-1.282 0.225-0.345 0.518-0.623 0.878-0.832 0.36-0.211 0.765-0.36 1.215-0.45s0.9-0.135 1.35-0.135c1.86 0 3.27 0.494 4.23 1.485 0.96 0.99 1.44 2.339 1.44 4.049zm0.09-7.11h-0.135c-0.54-0.96-1.411-1.748-2.61-2.363-1.2-0.614-2.565-0.923-4.095-0.923-0.871 0-1.777 0.113-2.723 0.338-0.944 0.225-1.815 0.6-2.61 1.125s-1.455 1.215-1.98 2.071c-0.525 0.854-0.787 1.912-0.787 3.172 0 1.62 0.457 2.91 1.372 3.87s2.093 1.694 3.533 2.205c1.44 0.51 3.037 0.847 4.793 1.012 1.755 0.165 3.471 0.248 5.152 0.248v0.54c0 1.35-0.488 2.347-1.462 2.993-0.976 0.644-2.138 0.967-3.488 0.967-1.14 0-2.235-0.241-3.285-0.72-1.051-0.481-1.92-1.066-2.61-1.755l-2.79 3.285c1.23 1.14 2.647 1.994 4.253 2.565 1.604 0.569 3.232 0.855 4.882 0.855 1.919 0 3.502-0.271 4.748-0.811 1.244-0.54 2.227-1.245 2.947-2.114 0.72-0.871 1.222-1.846 1.508-2.926 0.284-1.08 0.427-2.159 0.427-3.239v-13.14h-5.04z"/>
                <path d="m204.66 52.747c0 0.69-0.098 1.351-0.292 1.98-0.196 0.63-0.503 1.185-0.923 1.666-0.421 0.479-0.953 0.861-1.598 1.147-0.645 0.284-1.402 0.428-2.272 0.428-1.62 0-2.992-0.489-4.117-1.463-1.125-0.976-1.748-2.228-1.868-3.758zm5.4-2.43v-0.719c0-0.242-0.015-0.481-0.045-0.721h-16.425c0.06-0.78 0.262-1.492 0.607-2.137s0.803-1.2 1.373-1.665c0.569-0.466 1.215-0.833 1.935-1.102 0.72-0.271 1.469-0.406 2.25-0.406 1.35 0 2.49 0.247 3.42 0.742 0.929 0.496 1.695 1.178 2.295 2.048l3.6-2.88c-2.131-2.879-5.22-4.32-9.27-4.32-1.68 0-3.225 0.263-4.635 0.788s-2.633 1.267-3.668 2.227-1.845 2.137-2.43 3.533c-0.585 1.395-0.877 2.977-0.877 4.747 0 1.739 0.292 3.322 0.877 4.748 0.585 1.424 1.387 2.64 2.408 3.645 1.02 1.005 2.228 1.784 3.622 2.34 1.396 0.554 2.903 0.833 4.523 0.833 1.5 0 2.887-0.249 4.162-0.744 1.275-0.494 2.378-1.23 3.308-2.204 0.929-0.975 1.657-2.19 2.182-3.645s0.788-3.157 0.788-5.108"/>
                <path d="m212.04 61.388h5.984l6.031-15.705h0.089l5.356 15.705h5.625l-10.215-26.235c-0.391-0.991-0.81-1.868-1.261-2.633-0.449-0.765-0.989-1.409-1.619-1.935-0.631-0.524-1.373-0.923-2.227-1.192-0.856-0.271-1.884-0.405-3.083-0.405-0.451 0-0.908 0.022-1.372 0.067-0.466 0.045-0.939 0.128-1.418 0.247l0.45 4.681c0.36-0.119 0.712-0.202 1.057-0.248 0.345-0.045 0.667-0.068 0.968-0.068 0.57 0 1.049 0.068 1.44 0.203 0.389 0.135 0.719 0.345 0.99 0.63 0.269 0.285 0.51 0.638 0.72 1.058s0.434 0.915 0.674 1.484l1.081 2.745z"/>
                <path d="m165.42 39.787h5.4v31.886h-5.4z"/>
                <path d="m177.48 39.787h5.4v31.886h-5.4z"/>
                <path d="m231.61 148.53c-0.3 1.049-0.772 1.98-1.417 2.79-0.646 0.81-1.471 1.462-2.476 1.957-1.004 0.495-2.212 0.743-3.622 0.743-0.81 0-1.56-0.106-2.25-0.315-0.69-0.211-1.304-0.488-1.844-0.833s-1.013-0.735-1.418-1.17c-0.406-0.435-0.713-0.877-0.923-1.327h-0.09v13.589h-5.399v-32.174h5.399v11.79c0 0.72 0.105 1.424 0.315 2.115 0.209 0.689 0.525 1.312 0.946 1.867 0.419 0.555 0.944 0.997 1.574 1.328 0.63 0.329 1.38 0.495 2.25 0.495s1.567-0.18 2.093-0.54c0.524-0.36 0.929-0.818 1.215-1.373 0.285-0.555 0.472-1.17 0.562-1.845s0.135-1.327 0.135-1.957v-11.88h5.4v13.5c0 1.109-0.15 2.189-0.45 3.24"/>
                <path d="m168.21 103.07v4.32h-5.4v6.255h-7e-3v1.224h-5.306v-1.923h3e-3v-5.556h-3.78v-4.32h3.78v-10.08c0-1.05 0.097-2.032 0.293-2.947 0.194-0.916 0.554-1.726 1.08-2.431 0.524-0.705 1.237-1.26 2.137-1.664 0.9-0.405 2.07-0.608 3.51-0.608 0.6 0 1.23 0.052 1.89 0.158 0.659 0.105 1.23 0.247 1.71 0.426l-0.18 4.231c-0.331-0.15-0.705-0.263-1.125-0.338s-0.81-0.112-1.17-0.112c-1.2 0-1.973 0.315-2.317 0.945-0.346 0.63-0.518 1.425-0.518 2.385v10.035z"/>
                <path d="m433.71 69.328c-26.938-11.42-43.366 10.147-63.392 38.73 37.52 18.72 73.207 21.755 83.164-1.732 4.333-10.22-2.667-29.747-19.772-36.998m-69.911 48.021c-23.295 33.317-61.134 58.228-100.89 41.375-3.695-1.566-7.357-3.336-10.978-5.286v-32.723c6.081 3.961 11.808 7.155 16.943 9.332 25.277 10.715 52.975-9.36 70.905-26.122-25.96-17.564-57.726-42.188-87.848-64.035v-0.101h19.94c26.705 18.995 53.348 38.58 76.236 54.797 26.425-26.316 48.097-56.042 86.224-39.879 26.773 11.35 35.399 37.466 27.038 57.19-7.104 16.757-42.273 31.56-97.573 5.452"/>
            </g>
            <rect class="st0" transform="scale(1,-1)" x="-1539.1" y="-182.21" width="227.34" height="142.39" fill="#3070b3" stroke-width=".24134"/>
            <rect class="st0" transform="scale(1,-1)" x="-1734.1" y="-182.21" width="181.25" height="142.39" fill="#3070b3" stroke-width=".24134"/>
            <polygon class="st1" transform="matrix(.24134 0 0 -.24134 -1734.1 182.21)" points="1049 170 1129 170 1129 490 1349 490 1349 170 1429 170 1429 490 1499 490 1499 170 1579 170 1579 490 1649 490 1649 100 1279 100 1279 420 1199 420 1199 100 909 100 909 170 979 170 979 490 1049 490" fill="#fff"/>
            <path class="st1" d="m-1702.5 155.67h-7.1437v2.4134h17.159v-2.4134h-7.1436v-19.066h-2.8478v19.066z" fill="#fff" stroke-width=".24134"/>
            <path class="st1" d="m-1680.5 141.55c-0.3379-1.7135-1.0861-3.0409-2.2686-3.9338-1.1584-0.89296-2.6306-1.3515-4.3924-1.3515-1.255 0-2.3168 0.21721-3.2339 0.62748-0.9171 0.41028-1.6894 0.96536-2.2927 1.6894-0.6275 0.72402-1.0861 1.5928-1.3998 2.5823-0.3138 1.0136-0.4827 2.0996-0.531 3.2822 0 1.1584 0.169 2.2444 0.531 3.2339 0.362 0.98949 0.8688 1.8583 1.5204 2.5823s1.4239 1.2791 2.3169 1.6894c0.8929 0.41028 1.8583 0.60335 2.9202 0.60335 1.3756 0 2.534-0.28961 3.4511-0.86882s1.6411-1.3032 2.1962-2.172c0.5551-0.89295 0.9412-1.8342 1.1343-2.8961 0.2172-1.0378 0.2896-2.0272 0.2655-2.9685h-11.633c-0.024-0.67575 0.048-1.3274 0.2414-1.9307 0.1689-0.60335 0.4826-1.1584 0.8688-1.617 0.4103-0.48268 0.9171-0.84469 1.5446-1.1343 0.6274-0.28961 1.3515-0.41028 2.1962-0.41028 1.0618 0 1.9548 0.24134 2.6547 0.74815s1.1584 1.255 1.3756 2.2927h2.5341zm-2.51 4.32c-0.048 0.60335-0.1689 1.1826-0.4102 1.7135-0.2414 0.53094-0.531 1.0136-0.9413 1.3998-0.3861 0.38615-0.8688 0.69989-1.3997 0.94123-0.531 0.24133-1.1343 0.33787-1.7377 0.33787-0.6516 0-1.2549-0.12067-1.7859-0.33787-0.5309-0.24134-0.9895-0.55508-1.3756-0.94123-0.3862-0.41027-0.6758-0.86882-0.893-1.3998-0.2172-0.53095-0.362-1.086-0.3861-1.6894h8.9295z" fill="#fff" stroke-width=".24134"/>
            <path class="st1" d="m-1666.9 147.17c-0.1931 0.98949-0.6275 1.7376-1.2791 2.2927-0.6516 0.53095-1.4963 0.82055-2.5823 0.82055-0.9171 0-1.6894-0.16893-2.3169-0.50681-0.6275-0.33787-1.1101-0.79642-1.4963-1.3515-0.362-0.55508-0.6274-1.2067-0.7964-1.9307-0.1689-0.72401-0.2413-1.4963-0.2413-2.2686 0-0.72402 0.097-1.4239 0.2655-2.0996 0.1689-0.67575 0.4344-1.2791 0.7964-1.81 0.362-0.53094 0.8205-0.96535 1.3997-1.2791s1.2791-0.48268 2.0997-0.48268c1.2308 0 2.2203 0.33787 2.9443 1.0136s1.1584 1.5928 1.3274 2.7754h2.6064c-0.2896-1.9066-1.0136-3.3787-2.172-4.4406-1.1585-1.0619-2.7271-1.5928-4.682-1.5928-1.1825 0-2.2203 0.19307-3.1374 0.57921s-1.6652 0.94122-2.2927 1.6411c-0.6034 0.69988-1.0619 1.5446-1.3756 2.5099-0.3138 0.96535-0.4586 2.0272-0.4586 3.2098 0 1.1584 0.1448 2.2444 0.4586 3.2581 0.2896 1.0136 0.7481 1.8824 1.3756 2.6547 0.6033 0.74815 1.3756 1.3515 2.2927 1.7618 0.9171 0.43441 1.979 0.65161 3.2339 0.65161 0.893 0 1.7136-0.0965 2.4858-0.31374 0.7723-0.2172 1.4481-0.53094 2.0514-0.96535 0.6034-0.43441 1.086-0.98949 1.448-1.6652s0.6034-1.4722 0.6999-2.3892h-2.6547z" fill="#fff" stroke-width=".24134"/>
            <path class="st1" d="m-1661.1 158.08h2.5581v-8.2055h0.048c0.1931 0.45854 0.4827 0.86882 0.8689 1.2067 0.362 0.33788 0.7722 0.62748 1.2066 0.82055 0.4344 0.21721 0.9171 0.36201 1.3998 0.45855 0.4827 0.0965 0.9654 0.1448 1.4239 0.1448 1.0136 0 1.8825-0.1448 2.5582-0.41028 0.6757-0.2896 1.2308-0.67574 1.6652-1.1826 0.4103-0.50681 0.7241-1.086 0.893-1.7859s0.2655-1.448 0.2655-2.2927v-10.233h-2.5582v10.522c0 0.96535-0.2896 1.7135-0.8447 2.2927-0.5551 0.55508-1.3274 0.84469-2.3169 0.84469-0.7722 0-1.448-0.12067-2.0272-0.36201s-1.0378-0.57921-1.4239-1.0136c-0.3862-0.43441-0.6758-0.96536-0.8688-1.5446-0.1931-0.60335-0.2897-1.2308-0.2897-1.9307v-8.7847h-2.5581z" fill="#fff" stroke-width=".24134"/>
            <path class="st1" d="m-1644.3 152.17h2.4134v-2.4617h0.048c0.5309 0.96536 1.2308 1.6652 2.0996 2.1238 0.8447 0.45855 1.8342 0.69988 2.9685 0.69988 1.0136 0 1.8824-0.1448 2.5582-0.41027 0.6757-0.28961 1.2308-0.67575 1.6652-1.1826 0.4103-0.50681 0.724-1.086 0.893-1.7859 0.1689-0.69988 0.2654-1.448 0.2654-2.2927v-10.233h-2.5581v10.522c0 0.96535-0.2897 1.7135-0.8447 2.2927-0.5551 0.55508-1.3274 0.84468-2.3169 0.84468-0.7723 0-1.448-0.12067-2.0272-0.362-0.5792-0.24134-1.0378-0.57922-1.4239-1.0136-0.3862-0.43441-0.6758-0.96535-0.8689-1.5446-0.193-0.60334-0.2896-1.2308-0.2896-1.9307v-8.7847h-2.5582v15.518z" fill="#fff" stroke-width=".24134"/>
            <path class="st1" d="m-1624.7 154.94h-2.5582v3.1374h2.5582zm-2.5582-2.7754h2.5582v-15.542h-2.5582z" fill="#fff" stroke-width=".24134"/>
            <path class="st1" d="m-1610.1 147.17c-0.1931 0.98949-0.6275 1.7376-1.2791 2.2927-0.6516 0.53095-1.4963 0.82055-2.5823 0.82055-0.9171 0-1.6894-0.16893-2.3169-0.50681-0.6275-0.33787-1.1102-0.79642-1.4963-1.3515-0.362-0.55508-0.6275-1.2067-0.7964-1.9307-0.1689-0.72401-0.2413-1.4963-0.2413-2.2686 0-0.72402 0.097-1.4239 0.2654-2.0996 0.169-0.67575 0.4344-1.2791 0.7964-1.81 0.362-0.53094 0.8206-0.96535 1.3998-1.2791s1.2791-0.48268 2.0997-0.48268c1.2308 0 2.2203 0.33787 2.9443 1.0136s1.1584 1.5928 1.3274 2.7754h2.6064c-0.2896-1.9066-1.0136-3.3787-2.172-4.4406-1.1585-1.0619-2.7272-1.5928-4.682-1.5928-1.1826 0-2.2203 0.19307-3.1374 0.57921s-1.6652 0.94122-2.2927 1.6411c-0.6034 0.69988-1.0619 1.5446-1.3757 2.5099-0.3137 0.96535-0.4585 2.0272-0.4585 3.2098 0 1.1584 0.1448 2.2444 0.4585 3.2581 0.2896 1.0136 0.7482 1.8824 1.3757 2.6547 0.6033 0.74815 1.3756 1.3515 2.2927 1.7618 0.9171 0.43441 1.979 0.65161 3.2339 0.65161 0.893 0 1.7135-0.0965 2.4858-0.31374 0.7723-0.2172 1.4481-0.53094 2.0514-0.96535s1.086-0.98949 1.448-1.6652 0.6034-1.4722 0.6999-2.3892h-2.6547z" fill="#fff" stroke-width=".24134"/>
            <path class="st1" d="m-1590.5 136.67c-0.4586-0.28961-1.0619-0.41028-1.8342-0.41028-0.6516 0-1.1825 0.19307-1.5687 0.57921-0.3861 0.38615-0.5792 0.98949-0.5792 1.8342-0.6999-0.84469-1.5204-1.448-2.4617-1.8342-0.9412-0.38614-1.9307-0.57921-3.0167-0.57921-0.6999 0-1.3756 0.0724-2.0031 0.24134s-1.1826 0.41028-1.6411 0.77228c-0.4585 0.36201-0.8205 0.79642-1.086 1.3515s-0.4103 1.2067-0.4103 2.0031c0 0.89296 0.1448 1.5928 0.4586 2.172 0.2896 0.55508 0.6998 1.0136 1.1825 1.3515 0.4827 0.33787 1.0619 0.60335 1.6894 0.79642s1.2791 0.33787 1.9307 0.45854c0.6999 0.1448 1.3756 0.24134 2.0031 0.31374s1.1826 0.16894 1.6652 0.28961c0.4827 0.12067 0.8689 0.31374 1.1343 0.57921 0.2896 0.24134 0.4103 0.62748 0.4103 1.086 0 0.55508-0.097 1.0136-0.3137 1.3515-0.2172 0.33788-0.4827 0.60335-0.8206 0.77229-0.3379 0.16893-0.6999 0.2896-1.1102 0.362-0.4102 0.0483-0.8205 0.0965-1.2066 0.0965-1.0861 0-1.979-0.21721-2.703-0.62748-0.724-0.41028-1.1102-1.1826-1.1826-2.341h-2.5582c0.048 0.96536 0.2414 1.7859 0.6034 2.4375 0.362 0.65162 0.8446 1.2067 1.448 1.617 0.6033 0.41028 1.3032 0.69989 2.0755 0.89296 0.7723 0.16894 1.5928 0.26547 2.4617 0.26547 0.6998 0 1.3997-0.0483 2.0996-0.1448s1.3274-0.31374 1.8824-0.62748c0.5551-0.31374 1.0137-0.74815 1.3516-1.3032 0.3378-0.55508 0.5068-1.3032 0.5068-2.1962v-7.9883c0-0.60335 0.024-1.0378 0.097-1.3274 0.072-0.28961 0.3137-0.41028 0.6999-0.41028 0.2413 0 0.5068 0.0483 0.7723 0.1448v-1.979zm-4.151 7.9642c-0.2414-0.16894-0.531-0.31374-0.893-0.41028-0.362-0.0965-0.7481-0.19307-1.1343-0.26547-0.4103-0.0724-0.8205-0.12067-1.2791-0.16894-0.4585-0.0483-0.8929-0.12067-1.3032-0.19307s-0.8206-0.16894-1.2067-0.28961-0.6999-0.2896-0.9895-0.50681c-0.2896-0.2172-0.5068-0.48268-0.6757-0.79642-0.169-0.31374-0.2655-0.72401-0.2655-1.2067 0-0.41028 0.097-0.77228 0.2655-1.0619 0.1689-0.28961 0.3861-0.53095 0.6516-0.69988 0.2655-0.16894 0.5792-0.31374 0.9412-0.38615 0.362-0.0724 0.7481-0.12066 1.1343-0.12066 0.8447 0 1.5687 0.12066 2.172 0.33787 0.6034 0.24134 1.0861 0.53095 1.4722 0.86882 0.3862 0.36201 0.6516 0.72402 0.8447 1.1343 0.1689 0.41028 0.2655 0.79642 0.2655 1.1584z" fill="#fff" stroke-width=".24134"/>
            <path class="st1" d="m-1587.9 158.08h2.5581v-21.455h-2.5581z" fill="#fff" stroke-width=".24134"/>
            <path class="st1" d="m-1690.7 108.1c0-2.7271-0.7481-4.7785-2.2203-6.1783-1.4722-1.3998-3.5477-2.0996-6.2265-2.0996-1.3757 0-2.6306 0.16894-3.7167 0.48268-1.086 0.31374-2.0031 0.82055-2.7754 1.4963-0.7481 0.67575-1.3273 1.5446-1.7376 2.5823-0.4103 1.0378-0.6033 2.2686-0.6033 3.6925v13.708h2.8478v-13.708c0-1.9066 0.5068-3.3546 1.5445-4.3682 1.0378-1.0136 2.51-1.4963 4.3924-1.4963 1.8342 0 3.2098 0.50682 4.1752 1.4963 0.9412 1.0136 1.4239 2.4617 1.4239 4.3682v13.708h2.8478v-13.684z" fill="#fff" stroke-width=".24134"/>
            <path class="st1" d="m-1686.9 115.89h2.4134v-2.4617h0.072c0.531 0.96536 1.2308 1.6652 2.0996 2.1238 0.8447 0.45855 1.8342 0.69989 2.9685 0.69989 1.0136 0 1.8825-0.14481 2.5582-0.41028 0.6758-0.28961 1.2308-0.67575 1.6653-1.1826 0.4102-0.50681 0.724-1.086 0.8929-1.7859 0.1689-0.69988 0.2655-1.448 0.2655-2.2927v-10.233h-2.5582v10.522c0 0.96536-0.2896 1.7135-0.8447 2.2927-0.5551 0.55508-1.3274 0.84469-2.3169 0.84469-0.7722 0-1.448-0.12067-2.0272-0.36201s-1.0378-0.57922-1.4239-1.0136-0.6757-0.96535-0.8688-1.5446c-0.1931-0.60335-0.2896-1.2308-0.2896-1.9307v-8.7847h-2.5582v15.518z" fill="#fff" stroke-width=".24134"/>
            <path class="st1" d="m-1667.8 118.69h-2.5582v3.1374h2.5582zm-2.5582-2.7995h2.5582v-15.542h-2.5582z" fill="#fff" stroke-width=".24134"/>
            <path class="st1" d="m-1656.8 100.35h-2.7272l-5.768 15.542h2.8478l4.3683-12.96h0.048l4.2476 12.96h2.6789z" fill="#fff" stroke-width=".24134"/>
            <path class="st1" d="m-1635.5 105.28c-0.3379-1.7135-1.086-3.0409-2.2686-3.9338-1.1584-0.89295-2.6306-1.3515-4.3923-1.3515-1.255 0-2.3169 0.2172-3.234 0.62748-0.9171 0.41027-1.6894 0.96535-2.2927 1.6894-0.6275 0.72402-1.086 1.5928-1.3998 2.5823-0.3137 1.0136-0.4826 2.0996-0.5309 3.2822 0 1.1584 0.1689 2.2444 0.5309 3.2339 0.3621 0.98949 0.8689 1.8583 1.5205 2.5823 0.6516 0.72402 1.4239 1.2791 2.3168 1.6894 0.893 0.41028 1.8583 0.60335 2.9202 0.60335 1.3756 0 2.5341-0.28961 3.4512-0.86882s1.6411-1.3032 2.1962-2.172c0.555-0.89295 0.9412-1.8342 1.1342-2.8961 0.2172-1.0378 0.2896-2.0272 0.2655-2.9685h-11.632c-0.024-0.67575 0.048-1.3274 0.2413-1.9307 0.169-0.60335 0.4827-1.1584 0.8689-1.617 0.4102-0.48267 0.917-0.84468 1.5445-1.1343 0.6275-0.2896 1.3515-0.41027 2.1962-0.41027 1.0619 0 1.9548 0.24133 2.6547 0.74815 0.6999 0.50681 1.1584 1.255 1.3756 2.2927h2.5341zm-2.5099 4.32c-0.048 0.60334-0.169 1.1826-0.4103 1.7135-0.2413 0.53095-0.5309 1.0136-0.9412 1.3998-0.3861 0.38614-0.8688 0.69988-1.3998 0.94122-0.5309 0.24134-1.1343 0.33787-1.7376 0.33787-0.6516 0-1.255-0.12067-1.7859-0.33787-0.531-0.24134-0.9895-0.55508-1.3756-0.94122-0.3862-0.41028-0.6758-0.86882-0.893-1.3998-0.2172-0.53094-0.362-1.086-0.3862-1.6894h8.9296z" fill="#fff" stroke-width=".24134"/>
            <path class="st1" d="m-1632.4 115.89h2.4134v-3.2822h0.048c0.6274 1.255 1.3756 2.1962 2.2927 2.7995 0.8929 0.60335 2.0514 0.89295 3.427 0.84469v-2.703c-1.0136 0-1.8824-0.1448-2.6065-0.41027-0.724-0.28961-1.3032-0.69989-1.7376-1.2308-0.4344-0.53095-0.7723-1.2067-0.9654-1.979-0.193-0.77228-0.2896-1.6652-0.2896-2.6547v-6.9264h-2.5582v15.542z" fill="#fff" stroke-width=".24134"/>
            <path class="st1" d="m-1620.5 105.25c0.024-0.57921 0.1448-1.0619 0.3861-1.448 0.2414-0.38614 0.5551-0.67575 0.9413-0.91709 0.3861-0.24133 0.8205-0.38614 1.3273-0.50681 0.4827-0.0965 0.9895-0.1448 1.5205-0.1448 0.4102 0 0.8205 0.0241 1.2549 0.0965 0.4344 0.0483 0.8447 0.16894 1.2067 0.33787 0.362 0.16894 0.6758 0.38615 0.9171 0.69989s0.362 0.69988 0.362 1.1826c0 0.50681-0.1448 0.91708-0.4344 1.2067-0.2896 0.31374-0.6758 0.55508-1.1343 0.77228-0.4827 0.19307-1.0136 0.36201-1.617 0.50681-0.6033 0.12067-1.2308 0.26548-1.8824 0.41028s-1.255 0.31374-1.8583 0.50681c-0.6034 0.19307-1.1343 0.45855-1.617 0.77229s-0.8688 0.72401-1.1584 1.2308c-0.2896 0.50682-0.4344 1.1102-0.4344 1.8583 0 0.77229 0.1689 1.448 0.5309 2.0031 0.362 0.55508 0.7964 1.0136 1.3515 1.3756 0.5551 0.362 1.1826 0.60334 1.8583 0.77228 0.6999 0.16894 1.3756 0.26547 2.0514 0.26547 0.8688 0 1.6652-0.0724 2.4134-0.2172 0.7481-0.14481 1.4239-0.41028 1.979-0.77229 0.5792-0.362 1.0377-0.86882 1.3756-1.4963s0.531-1.4239 0.6034-2.3651h-2.5582c-0.048 0.50681-0.169 0.91709-0.4103 1.255-0.2414 0.33788-0.5068 0.60335-0.8447 0.79642s-0.6999 0.33788-1.1102 0.43441c-0.4102 0.0965-0.8205 0.14481-1.2549 0.14481-0.3862 0-0.7723-0.0241-1.1585-0.0965-0.3861-0.0724-0.7481-0.16894-1.0618-0.31374-0.3138-0.1448-0.5793-0.36201-0.7723-0.62748-0.1931-0.26547-0.2896-0.57921-0.2896-0.96536 0-0.45854 0.1448-0.84468 0.4585-1.1102 0.3138-0.28961 0.6999-0.53095 1.1826-0.69989 0.4826-0.19307 1.0136-0.36201 1.6169-0.48267 0.6034-0.12067 1.2067-0.26548 1.8101-0.41028 0.6516-0.1448 1.2791-0.31374 1.8824-0.50681 0.6034-0.19307 1.1584-0.45855 1.617-0.79642 0.4827-0.33787 0.8447-0.74815 1.1343-1.255s0.4344-1.1102 0.4344-1.8583c0-0.91709-0.1931-1.6894-0.5792-2.3168-0.3862-0.62748-0.893-1.1343-1.5446-1.5204-0.6275-0.38614-1.3515-0.65161-2.1238-0.82055-0.7964-0.16893-1.5687-0.24134-2.3651-0.24134-0.893 0-1.7135 0.09654-2.4858 0.28961-0.7723 0.19307-1.448 0.48268-2.0514 0.89295-0.6033 0.41028-1.086 0.94123-1.448 1.617-0.362 0.67575-0.5551 1.4963-0.6033 2.4617z" fill="#fff" stroke-width=".24134"/>
            <path class="st1" d="m-1604.6 118.69h-2.5582v3.1374h2.5582zm-2.5582-2.7995h2.5582v-15.542h-2.5582z" fill="#fff" stroke-width=".24134"/>
            <path class="st1" d="m-1597.4 115.89h3.0891v-2.2444h-3.0891v-9.6536c0-0.28961 0.024-0.53094 0.072-0.72402 0.048-0.16893 0.1448-0.31374 0.2896-0.41027 0.1448-0.0965 0.3379-0.16894 0.5792-0.19307 0.2414-0.0241 0.5793-0.0483 0.9654-0.0483h1.1825v-2.2444h-1.9548c-0.6516 0-1.2308 0.0483-1.6894 0.1448-0.4826 0.0965-0.8446 0.26547-1.1343 0.50681-0.2896 0.24134-0.5068 0.57921-0.6516 1.0136s-0.2172 1.0136-0.2172 1.7376v9.8949h-2.6547v2.2444h2.6547v4.6578h2.5582z" fill="#fff" stroke-width=".24134"/>
            <path class="st1" d="m-1585 98.276c-0.2896-0.77228-0.6033-1.3998-0.8929-1.9307-0.2896-0.53094-0.6034-0.94122-0.9412-1.2791-0.3379-0.33787-0.7241-0.57921-1.1826-0.72402-0.4344-0.1448-0.9412-0.2172-1.4963-0.2172-0.2896 0-0.6034 0.02414-0.893 0.04827-0.2896 0.04827-0.6033 0.12067-0.8688 0.21721v2.341c0.2413-0.0724 0.4827-0.16894 0.7482-0.24134 0.2413-0.0724 0.5068-0.12067 0.7723-0.12067 0.5309 0 0.9412 0.12067 1.2549 0.36201 0.3137 0.24134 0.6033 0.60335 0.8447 1.0619l1.0619 2.6547-6.1541 15.446h2.896l4.5372-12.719h0.048l4.3683 12.719h2.703z" fill="#fff" stroke-width=".24134"/>
            <path class="st1" d="m-1707.7 71.826c0 1.1343 0.1689 2.2203 0.4827 3.2098 0.3137 0.98949 0.7964 1.8583 1.448 2.5823s1.4239 1.3032 2.3651 1.7376c0.9412 0.41028 2.0273 0.62748 3.2581 0.62748s2.2927-0.2172 3.258-0.62748c0.9413-0.41028 1.7377-0.98949 2.3652-1.7376 0.6516-0.72402 1.1343-1.5928 1.448-2.5823 0.3138-0.98949 0.4827-2.0514 0.4827-3.2098 0-1.1343-0.1689-2.1962-0.4827-3.1857-0.3137-0.98949-0.7964-1.8342-1.448-2.5823-0.6516-0.72402-1.4239-1.3032-2.3652-1.7376-0.9412-0.41027-2.0272-0.62748-3.258-0.62748s-2.341 0.21721-3.2581 0.62748c-0.9412 0.41028-1.7135 0.98949-2.3651 1.7376-0.6516 0.72402-1.1343 1.5928-1.448 2.5823-0.3138 0.98949-0.4827 2.0514-0.4827 3.1857zm2.7271 0c0-0.94122 0.1207-1.7859 0.3862-2.5099 0.2413-0.72402 0.6033-1.3515 1.0377-1.8342 0.4344-0.48268 0.9654-0.86882 1.5446-1.1343 0.5792-0.26547 1.2067-0.38614 1.8824-0.38614 0.6516 0 1.2791 0.12067 1.8825 0.38614 0.5792 0.26547 1.1101 0.62748 1.5445 1.1343 0.4344 0.48268 0.7965 1.1102 1.0378 1.8342 0.2413 0.72401 0.3861 1.5687 0.3861 2.5099s-0.1206 1.7859-0.3861 2.5099c-0.2413 0.72402-0.6034 1.3515-1.0378 1.8583-0.4344 0.50681-0.9653 0.89295-1.5445 1.1343-0.6034 0.26547-1.2067 0.38614-1.8825 0.38614-0.6516 0-1.2791-0.12067-1.8824-0.38614-0.6034-0.26547-1.1102-0.65162-1.5446-1.1343-0.4344-0.50681-0.7964-1.1102-1.0377-1.8583-0.2655-0.72402-0.3862-1.5687-0.3862-2.5099z" fill="#fff" stroke-width=".24134"/>
            <path class="st1" d="m-1688.9 77.376h-2.6065v2.2445h2.6065v2.3169c0 1.255 0.362 2.2203 1.086 2.8719 0.724 0.65161 1.81 0.96535 3.2098 0.96535 0.2413 0 0.5068-0.02414 0.8206-0.04827 0.3137-0.04827 0.5792-0.09653 0.8205-0.16894v-2.2203c-0.2172 0.0724-0.4585 0.1448-0.724 0.16894-0.2655 0.02414-0.5068 0.04827-0.724 0.04827-0.6275 0-1.1102-0.12067-1.4481-0.36201-0.3378-0.24134-0.5068-0.69988-0.5068-1.3756v-2.172h3.0168v-2.2445h-3.0168v-13.298h-2.5582v13.274z" fill="#fff" stroke-width=".24134"/>
            <path class="st1" d="m-1672.8 85.534h3.9097l6.7575-18.028 6.8058 18.028h3.9097v-21.455h-2.703v17.859h-0.072l-6.7093-17.859h-2.4375l-6.7092 17.859h-0.048v-17.859h-2.703z" fill="#fff" stroke-width=".24134"/>
            <path class="st1" d="m-1634.5 64.079h-2.4134v2.4617h-0.048c-0.5309-0.96535-1.2308-1.6652-2.0996-2.1238-0.8447-0.45854-1.8342-0.69988-2.9685-0.69988-1.0136 0-1.8825 0.1448-2.5582 0.41027-0.6757 0.28961-1.2308 0.67575-1.6652 1.1826-0.4103 0.50681-0.7241 1.086-0.893 1.7859s-0.2655 1.448-0.2655 2.2927v10.233h2.5582v-10.522c0-0.96535 0.2896-1.7135 0.8447-2.2927 0.5551-0.55508 1.3274-0.84469 2.3169-0.84469 0.7722 0 1.448 0.12067 2.0272 0.36201 0.5792 0.24134 1.0378 0.57922 1.4239 1.0136 0.3862 0.43441 0.6758 0.96536 0.8688 1.5446 0.1931 0.57921 0.2897 1.2308 0.2897 1.9307v8.7847h2.5581v-15.518z" fill="#fff" stroke-width=".24134"/>
            <path class="st1" d="m-1631 79.621h2.4133v-2.4617h0.072c0.531 0.96535 1.2309 1.6652 2.0997 2.1238 0.8447 0.45854 1.8342 0.69988 2.9684 0.69988 1.0137 0 1.8825-0.1448 2.5582-0.41028 0.6758-0.2896 1.2309-0.67575 1.6653-1.1826 0.4103-0.50681 0.724-1.086 0.8929-1.7859 0.169-0.69988 0.2655-1.448 0.2655-2.2927v-10.233h-2.5582v10.522c0 0.96535-0.2896 1.7135-0.8447 2.2927-0.555 0.55508-1.3273 0.84468-2.3168 0.84468-0.7723 0-1.448-0.12067-2.0273-0.36201-0.5792-0.24134-1.0377-0.57921-1.4239-1.0136-0.3861-0.43441-0.6757-0.96535-0.8688-1.5446-0.193-0.60334-0.2896-1.2308-0.2896-1.9307v-8.7847h-2.5582v15.518z" fill="#fff" stroke-width=".24134"/>
            <path class="st1" d="m-1611.8 82.42h-2.5582v3.1374h2.5582zm-2.5582-2.7995h2.5582v-15.542h-2.5582z" fill="#fff" stroke-width=".24134"/>
            <path class="st1" d="m-1597.6 74.625c-0.193 0.98949-0.6274 1.7376-1.2791 2.2927-0.6516 0.53095-1.4963 0.82055-2.5823 0.82055-0.9171 0-1.6894-0.16894-2.3168-0.50681-0.6275-0.33787-1.1102-0.79642-1.4963-1.3515-0.3621-0.55508-0.6275-1.2067-0.7965-1.9307-0.1689-0.72402-0.2413-1.4963-0.2413-2.2686 0-0.72402 0.097-1.4239 0.2655-2.0996 0.1689-0.67575 0.4344-1.2791 0.7964-1.81 0.362-0.53095 0.8206-0.96536 1.3998-1.2791 0.5792-0.31374 1.279-0.48268 2.0996-0.48268 1.2308 0 2.2203 0.33788 2.9443 1.0136 0.7241 0.67575 1.1585 1.5928 1.3274 2.7754h2.6065c-0.2896-1.9066-1.0137-3.3787-2.1721-4.4406-1.1584-1.0619-2.7271-1.5928-4.6819-1.5928-1.1826 0-2.2204 0.19307-3.1375 0.57921-0.9171 0.38614-1.6652 0.94122-2.2927 1.6411-0.6033 0.69988-1.0619 1.5446-1.3756 2.5099-0.3138 0.96535-0.4586 2.0272-0.4586 3.2098 0 1.1584 0.1448 2.2444 0.4586 3.2581 0.2896 1.0136 0.7481 1.8824 1.3756 2.6547 0.6034 0.74815 1.3756 1.3515 2.2927 1.7618 0.9171 0.43441 1.979 0.65162 3.234 0.65162 0.8929 0 1.7135-0.09654 2.4858-0.31374s1.448-0.53094 2.0513-0.96535c0.6034-0.43441 1.0861-0.98949 1.4481-1.6652 0.362-0.67575 0.6033-1.4722 0.6999-2.3893h-2.6548z" fill="#fff" stroke-width=".24134"/>
            <path class="st1" d="m-1592.3 85.534h2.5582v-8.2055h0.048c0.1931 0.45854 0.4827 0.86882 0.8688 1.2067 0.362 0.33788 0.7723 0.62748 1.2067 0.82055 0.4344 0.2172 0.9171 0.36201 1.3998 0.45854 0.4827 0.09654 0.9653 0.1448 1.4239 0.1448 1.0136 0 1.8824-0.1448 2.5582-0.41028 0.6757-0.28961 1.2308-0.67575 1.6652-1.1826 0.4103-0.50681 0.724-1.086 0.893-1.7859 0.1689-0.69988 0.2654-1.448 0.2654-2.2927v-10.233h-2.5582v10.522c0 0.96536-0.2896 1.7135-0.8446 2.2927-0.5551 0.55508-1.3274 0.84469-2.3169 0.84469-0.7723 0-1.448-0.12067-2.0272-0.36201-0.5792-0.24134-1.0378-0.57921-1.4239-1.0136-0.3862-0.43441-0.6758-0.96536-0.8688-1.5446-0.1931-0.60334-0.2896-1.2308-0.2896-1.9307v-8.7847h-2.5582z" fill="#fff" stroke-width=".24134"/>
            <g transform="matrix(.78126 0 0 -.78126 -1152 179.29)">
                <path class="st0" d="m144.09 65.729c-14.6-4.58-30.08-6.99-45.79-6.99-28.22 0-55.73 7.74-78.7 21.97v7.72c22.6-15 50.25-23.22 78.7-23.22 15.74 0 31.25 2.52 45.79 7.3z" fill="#3070b3"/>
                <path class="st0" d="m144.27 107.45c-14.59 4.82-30.15 7.36-45.96 7.36-28.45 0-56.1-8.21-78.7-23.22v7.72c22.96 14.23 50.47 21.97 78.7 21.97 16.21 0 32.17-2.56 47.18-7.43-0.61-2.01-1.01-4.15-1.22-6.4z" fill="#3070b3"/>
                <path class="st1" d="m175.23 126c-3.41 0-6.5-0.53-9.28-1.58s-5.16-2.54-7.12-4.46c-1.97-1.92-3.49-4.24-4.57-6.98-1.08-2.73-1.62-5.78-1.62-9.14v-31.37h10.07v31.32c0 2.63 0.43 4.81 1.3 6.54 0.86 1.72 1.93 3.09 3.2 4.09 1.27 1.01 2.64 1.7 4.1 2.08s2.77 0.58 3.92 0.58 2.46-0.19 3.92-0.58c1.46-0.38 2.83-1.08 4.1-2.08s2.34-2.37 3.2-4.09 1.3-3.9 1.3-6.54v-31.32h10.07v31.37c0 3.36-0.53 6.4-1.58 9.14-1.05 2.73-2.57 5.06-4.53 6.98-1.97 1.92-4.34 3.41-7.12 4.46-2.79 1.05-5.9 1.58-9.36 1.58z" fill="#3c3c3c"/>
                <path class="st1" d="m382.37 126.07c-3.41 0-6.5-0.53-9.28-1.58s-5.16-2.54-7.12-4.46c-1.97-1.92-3.49-4.25-4.57-6.98s-1.62-5.78-1.62-9.14v-31.37h10.07v31.32c0 2.63 0.43 4.81 1.3 6.54 0.86 1.72 1.93 3.09 3.2 4.09 1.27 1.01 2.64 1.7 4.1 2.08s2.77 0.57 3.92 0.57 2.46-0.19 3.92-0.57 2.83-1.08 4.1-2.08c1.27-1.01 2.34-2.37 3.2-4.09s1.3-3.9 1.3-6.54v-31.32h10.07v31.37c0 3.36-0.53 6.4-1.58 9.14-1.06 2.73-2.57 5.06-4.53 6.98-1.97 1.92-4.34 3.41-7.12 4.46s-5.91 1.58-9.36 1.58z" fill="#3c3c3c"/>
                <path class="st1" d="m199.02 125.1 27.08-52.71h1.04l26.85 52.64h-10.96l-16.43-32.92-16.48 32.96c0.01 0-11.1-0.1-11.1 0.03z" fill="#3c3c3c"/>
                <path class="st1" d="m162.31 131.92c-0.88-0.33-1.72-0.7-2.53-1.1-13.39 20.57-36.57 34.22-62.9 34.22-41.37 0-75.02-33.66-75.02-75.02s33.66-75.02 75.02-75.02c32.27 0 59.82 20.5 70.38 49.15h10.58c-10.98-34.26-43.1-59.15-80.96-59.15-46.88 0-85.02 38.14-85.02 85.02s38.14 85.02 85.02 85.02c30.87 0 57.94-16.54 72.84-41.21-0.31-0.06-0.61-0.14-0.91-0.21-2.29-0.36-4.46-0.92-6.5-1.7z" fill="#3c3c3c"/>
                <polygon class="st1" transform="translate(-50.666,-101.28)" points="345.13 205.55 310.52 173.75 309.44 173.75 309.44 226.31 319.51 226.31 319.51 195.04 354.08 226.31 355.2 226.31 355.2 173.75 345.13 173.75" fill="#3c3c3c"/>
                <polygon class="st1" transform="translate(-50.666,-101.28)" points="388.5 226.31 388.5 182.67 403.54 182.67 403.54 173.75 363.32 173.75 363.32 182.67 378.43 182.67 378.43 226.31" fill="#3c3c3c"/>
                <polygon class="st1" transform="translate(-50.666,-101.28)" points="492.19 204.18 466.36 173.82 465.71 173.82 465.71 226.31 475.78 226.31 475.78 199.79 492.19 219.58 508.66 199.79 508.66 226.31 518.74 226.31 518.74 173.82 518.09 173.82" fill="#3c3c3c"/>
                <path class="st1" d="m197.82 157.37c-2.09 0.26-4.22 0.45-6.33 0.57-25.2 1.45-49.46-7.01-68.3-23.81s-30.02-39.93-31.46-65.14c-1.08-18.91 3.44-37.47 13.09-53.68l-8.59-5.12c-10.67 17.93-15.68 38.45-14.48 59.36 1.6 27.87 13.95 53.45 34.79 72.03 19.31 17.22 43.76 26.51 69.42 26.51 2.03 0 4.07-0.06 6.11-0.18 1.92-0.11 3.84-0.29 5.75-0.5z" fill="#3c3c3c"/>
            </g>
            <g transform="matrix(.78126 0 0 -.78126 -1152 179.29)" fill="#3070b3">
                <path class="st0" transform="translate(-103.17,7.5072)" d="m806.01 138.45q-1.204 1.978-2.795 4.515-1.548 2.537-3.182 5.203-1.634 2.623-3.225 5.203-1.591 2.537-2.795 4.601v11.911h-6.02v-11.911q-2.795-4.902-5.934-9.761t-5.977-9.761h7.009q1.935 3.225 3.956 6.665t3.956 6.665q0.946-1.505 1.978-3.225t2.064-3.44q1.032-1.763 2.021-3.44 1.032-1.72 1.935-3.225z"/>
                <path class="st0" transform="translate(-103.17,7.5072)" d="m771.65 169.88-20.726-18.705v18.705h-5.977v-31.433h0.645l20.683 19.006v-19.006h6.02v31.433z"/>
                <path class="st0" transform="translate(-103.17,7.5072)" d="m708.48 169.88 16.082-31.433h0.602l16.082 31.433h-6.536l-2.451-4.945h-14.835l-2.408 4.945zm11.868-10.191h8.987l-4.472-9.503z"/>
                <path class="st0" transform="translate(-103.17,7.5072)" d="m701 138.41q2.322 0 4.343 0.903 2.064 0.86 3.569 2.365t2.365 3.569q0.903 2.021 0.903 4.343t-0.774 4.3-2.279 3.483q-1.505 1.462-3.827 2.322-2.279 0.817-5.289 0.817h-7.009v9.374h-6.02v-31.476zm0 16.684q1.333 0 2.322-0.43 0.989-0.473 1.591-1.247 0.645-0.774 0.946-1.763t0.301-2.064-0.387-2.107q-0.387-1.075-1.118-1.892t-1.806-1.333-2.494-0.516h-7.353v11.352z"/>
                <path class="st0" transform="translate(-103.17,7.5072)" d="m680.06 138.45v31.433h-6.02v-15.91l-9.847 11.825-9.804-11.825v15.91h-6.02v-31.433h0.387l15.437 18.146 15.48-18.146z"/>
                <path transform="matrix(.53832 0 0 -.538 538.61 155.29)" d="m0 0c-1.599 3.702-3.769 6.924-6.513 9.669-2.744 2.742-5.952 4.914-9.628 6.511-3.675 1.598-7.618 2.398-11.825 2.398-2.943 0-5.759-0.422-8.461-1.224l4.758-9.635c1.208 0.256 2.454 0.391 3.743 0.391 2.657 0 5.141-0.546 7.455-1.638 2.312-1.092 4.331-2.544 6.059-4.354 1.727-1.812 3.096-3.93 4.106-6.353 1.011-2.425 1.516-4.942 1.516-7.551 0-2.664-0.505-5.194-1.516-7.591-1.01-2.397-2.379-4.514-4.106-6.352-1.728-1.838-3.747-3.304-6.059-4.395-2.314-1.092-4.798-1.638-7.455-1.638-2.658 0-5.145 0.546-7.456 1.638-2.312 1.091-4.334 2.557-6.061 4.395-1.728 1.838-3.096 3.955-4.107 6.352-1.009 2.397-1.513 4.927-1.513 7.591 0 2.609 0.504 5.126 1.513 7.551 1.011 2.423 2.379 4.541 4.107 6.353 0.157 0.165 0.33 0.311 0.492 0.47l-4.941 10.007c-1.213-0.897-2.378-1.855-3.449-2.926-2.744-2.745-4.914-5.967-6.513-9.669-1.597-3.703-2.397-7.631-2.397-11.786 0-4.209 0.8-8.15 2.397-11.826 1.599-3.675 3.769-6.885 6.513-9.628 2.742-2.744 5.952-4.914 9.629-6.512 3.674-1.598 7.591-2.397 11.746-2.397 4.207 0 8.15 0.799 11.825 2.397 3.676 1.598 6.884 3.768 9.628 6.512 2.744 2.743 4.914 5.953 6.513 9.628 1.597 3.676 2.397 7.617 2.397 11.826 0 4.155-0.8 8.083-2.397 11.786" clip-path="url(#d)"/>
                <path class="st0" transform="translate(-103.17,7.5072)" d="m607.35 162.14q-1.032 1.892-2.537 3.44-1.505 1.505-3.354 2.623-1.806 1.075-3.956 1.677-2.107 0.602-4.386 0.602-3.354 0-6.321-1.29t-5.203-3.483q-2.193-2.236-3.483-5.203t-1.29-6.321 1.29-6.321 3.483-5.16q2.236-2.236 5.203-3.526t6.321-1.29q2.279 0 4.386 0.602 2.15 0.602 3.956 1.72 1.849 1.075 3.354 2.623 1.505 1.505 2.537 3.354l-5.633 2.279q-0.688-1.032-1.634-1.935-0.903-0.903-2.021-1.591t-2.365-1.075-2.58-0.387q-2.15 0-4.042 0.903-1.849 0.86-3.225 2.322t-2.193 3.44q-0.817 1.935-0.817 4.042 0 2.15 0.817 4.085t2.193 3.397 3.225 2.365q1.892 0.86 4.042 0.86 1.333 0 2.58-0.387t2.365-1.075 2.021-1.591q0.946-0.946 1.634-1.978z"/>
            </g>
            <g transform="matrix(.78126 0 0 -.78126 -1152 179.29)" fill="#3070b3">
                <path class="st0" d="m287.04 56.314-20.726-18.705v18.705h-5.977v-31.433h0.645l20.683 19.006v-19.006h6.02v31.433z"/>
                <path class="st0" d="m239.96 56.873q-3.053 0-5.547-0.946t-4.257-2.666-2.752-4.171q-0.946-2.451-0.946-5.461v-18.748h6.02v18.748q0 2.365 0.774 3.913t1.892 2.451q1.161 0.903 2.451 1.247 1.333 0.344 2.365 0.344t2.322-0.344q1.333-0.344 2.451-1.247 1.161-0.903 1.935-2.451t0.774-3.913v-18.748h6.02v18.748q0 3.01-0.946 5.461t-2.709 4.171-4.257 2.666-5.59 0.946z"/>
                <path class="st0" d="m219.53 24.881v31.433h-6.02v-15.91l-9.847 11.825-9.804-11.825v15.91h-6.02v-31.433h0.387l15.437 18.146 15.48-18.146z"/>
                <path class="st0" d="m301.45 56.314h-6.02v-31.433h6.02z"/>
                <path class="st0" d="m369.31 24.838v31.476h-5.977v-12.513h-15.566v12.513h-5.977v-31.476h5.977v13.588h15.566v-13.588z"/>
                <path class="st0" d="m337.14 48.574q-1.032 1.892-2.537 3.44-1.505 1.505-3.354 2.623-1.806 1.075-3.956 1.677-2.107 0.602-4.386 0.602-3.354 0-6.321-1.29t-5.203-3.483q-2.193-2.236-3.483-5.203t-1.29-6.321 1.29-6.321 3.483-5.16q2.236-2.236 5.203-3.526t6.321-1.29q2.279 0 4.386 0.602 2.15 0.602 3.956 1.72 1.849 1.075 3.354 2.623 1.505 1.505 2.537 3.354l-5.633 2.279q-0.688-1.032-1.634-1.935-0.903-0.903-2.021-1.591t-2.365-1.075-2.58-0.387q-2.15 0-4.042 0.903-1.849 0.86-3.225 2.322t-2.193 3.44q-0.817 1.935-0.817 4.042 0 2.15 0.817 4.085t2.193 3.397 3.225 2.365q1.892 0.86 4.042 0.86 1.333 0 2.58-0.387t2.365-1.075 2.021-1.591q0.946-0.946 1.634-1.978z"/>
            </g>
            <g transform="matrix(.78126 0 0 -.78126 -1152 179.29)" fill="#3070b3">
                <path class="st0" transform="translate(-103.17,7.5072)" d="m540.44 143.74v7.869h15.222v5.461h-15.222v7.396h17.157v5.418h-23.134v-31.476h23.134v5.332z"/>
                <path class="st0" transform="translate(-103.17,7.5072)" d="m509.48 169.88h-5.977v-31.476h14.276q2.408 0 4.386 0.817 2.021 0.774 3.44 2.236 1.419 1.419 2.193 3.44 0.817 1.978 0.817 4.343 0 3.569-1.806 6.235-1.763 2.666-4.73 3.827 3.999 5.246 7.869 10.578h-7.181q-1.892-2.451-3.698-4.945t-3.612-5.074h-5.977zm0-15.351h8.299q0.817 0 1.677-0.301 0.903-0.344 1.591-0.989 0.688-0.688 1.118-1.677 0.473-0.989 0.473-2.322 0-0.688-0.172-1.634t-0.688-1.806-1.462-1.462-2.537-0.602h-8.299z"/>
                <path class="st0" transform="translate(-103.17,7.5072)" d="m468.71 169.88 16.082-31.433h0.602l16.082 31.433h-6.536l-2.451-4.945h-14.835l-2.408 4.945zm11.868-10.191h8.987l-4.472-9.503z"/>
                <path class="st0" transform="translate(-103.17,7.5072)" d="m472.41 138.45-11.739 31.433h-0.602l-8.514-18.318-8.6 18.361h-0.559l-11.61-31.476h6.407l6.149 17.243 7.998-17.243h0.387l7.998 17.286 6.278-17.286z"/>
                <path class="st0" transform="translate(-103.17,7.5072)" d="m429.54 143.74h-8.987v26.144h-6.02v-26.144h-9.03v-5.332h24.037z"/>
                <path class="st0" transform="translate(-103.17,7.5072)" d="m384.91 143.78v7.74h15.179v5.547h-15.179v12.814h-6.02v-31.476h23.134v5.375z"/>
                <path class="st0" transform="translate(-103.17,7.5072)" d="m312.02 165.75 3.268-4.816q2.365 1.634 4.859 2.838 2.537 1.161 5.289 1.161 1.462 0 2.58-0.344 1.118-0.387 1.892-0.946 0.774-0.602 1.161-1.333 0.387-0.774 0.387-1.505 0-0.946-0.60201-1.591-0.55899-0.688-1.548-1.118-0.94599-0.43-2.279-0.731-1.29-0.301-2.709-0.559-0.94599-0.172-2.193-0.387-1.247-0.258-2.58-0.645-1.333-0.43-2.623-1.075-1.29-0.688-2.322-1.677-1.032-1.032-1.677-2.408-0.60199-1.419-0.60199-3.311 0-2.752 1.118-4.558 1.118-1.849 2.838-2.881 1.763-1.075 3.87-1.505 2.15-0.43 4.128-0.43t3.526 0.258 2.881 0.774q1.333 0.473 2.58 1.247 1.29 0.731 2.752 1.763l-3.354 4.73q-2.236-1.548-4.3-2.365t-4.343-0.817q-0.774 0-1.763 0.215-0.98901 0.172-1.892 0.602-0.86001 0.43-1.462 1.118-0.559 0.645-0.559 1.591t0.688 1.591 1.763 1.075 2.365 0.731 2.494 0.602q0.903 0.215 2.107 0.43 1.247 0.215 2.537 0.602 1.333 0.387 2.623 1.032t2.279 1.677q1.032 0.989 1.634 2.494 0.64499 1.462 0.64499 3.569 0 2.451-0.86 4.257t-2.451 3.01q-1.591 1.161-3.784 1.763t-4.859 0.602q-2.451 0-4.343-0.387-1.849-0.344-3.397-0.946-1.548-0.645-2.924-1.505t-2.838-1.892z"/>
                <path transform="matrix(.53832 0 0 -.538 269.1 155.29)" d="m0 0c-1.599 3.702-3.769 6.924-6.513 9.669-2.744 2.742-5.952 4.914-9.628 6.511-3.675 1.598-7.618 2.398-11.825 2.398-2.943 0-5.759-0.422-8.461-1.224l4.758-9.635c1.208 0.256 2.454 0.391 3.743 0.391 2.657 0 5.141-0.546 7.455-1.638 2.312-1.092 4.331-2.544 6.059-4.354 1.727-1.812 3.096-3.93 4.106-6.353 1.011-2.425 1.516-4.942 1.516-7.551 0-2.664-0.505-5.194-1.516-7.591-1.01-2.397-2.379-4.514-4.106-6.352-1.728-1.838-3.747-3.304-6.059-4.395-2.314-1.092-4.798-1.638-7.455-1.638-2.658 0-5.145 0.546-7.456 1.638-2.312 1.091-4.334 2.557-6.061 4.395-1.728 1.838-3.096 3.955-4.107 6.352-1.009 2.397-1.513 4.927-1.513 7.591 0 2.609 0.504 5.126 1.513 7.551 1.011 2.423 2.379 4.541 4.107 6.353 0.157 0.165 0.33 0.311 0.492 0.47l-4.941 10.007c-1.213-0.897-2.378-1.855-3.449-2.926-2.744-2.745-4.914-5.967-6.513-9.669-1.597-3.703-2.397-7.631-2.397-11.786 0-4.209 0.8-8.15 2.397-11.826 1.599-3.675 3.769-6.885 6.513-9.628 2.742-2.744 5.952-4.914 9.629-6.512 3.674-1.598 7.591-2.397 11.746-2.397 4.207 0 8.15 0.799 11.825 2.397 3.676 1.598 6.884 3.768 9.628 6.512 2.744 2.743 4.914 5.953 6.513 9.628 1.597 3.676 2.397 7.617 2.397 11.826 0 4.155-0.8 8.083-2.397 11.786" clip-path="url(#c)"/>
            </g>
        </g>
        <g transform="matrix(.30939 0 0 .30939 396.88 195.92)" data-name="Layer 1">
            <g>
                <g stroke-width="0px">
                    <polygon class="cls-3" points="35.58 131.18 35.48 113.38 53.8 115.17 53.64 133.23" fill="#333"/>
                    <polygon class="cls-3" points="0 79.97 0 65.29 122.77 65.29 122.66 79.97" fill="#333"/>
                    <polygon class="cls-1" points="112.94 62.06 122.77 65.29 0 65.29 9.83 62.06" fill="#231f20" opacity=".3"/>
                    <polygon class="cls-1" points="76.42 86.26 53.8 115.17 35.48 113.38 63.4 85.31" fill="#231f20" opacity=".3"/>
                    <polygon class="cls-3" points="13.2 19.08 12.52 0.11 26.01 0 26.6 19.61" fill="#333"/>
                    <polygon class="cls-4" points="100.1 16.08 26.6 19.61 26.02 0.04 100.49 2.97" fill="#231f20" opacity=".4"/>
                    <polygon class="cls-3" points="27.9 40.65 27.58 27.43 95.74 37.67 95.1 56.7" fill="#333"/>
                    <polygon class="cls-1" points="27.58 27.43 39.21 26.96 109.78 36.57 95.74 37.67" fill="#231f20" opacity=".3"/>
                    <polygon class="cls-4" points="256.21 72.96 258.96 71.32 268.53 71.33 265.95 72.87" fill="#231f20" opacity=".4"/>
                    <path class="cls-2" d="m172.41 39.51h8.74s12.57 27.25 12.57 27.25l12.55-27.29h8.68l0.05 40.72h-8.45l-0.03-23.13-10.75 23.15h-4.08l-10.75-23.12 0.03 23.14h-8.51l-0.05-40.72z" fill="#1a1a1a"/>
                    <path class="cls-2" d="m232.44 77.68c-3.46-1.65-6.14-4.01-8.02-7.1-1.89-3.09-2.84-6.71-2.84-10.87s0.94-7.84 2.84-11.05 4.51-5.7 7.83-7.47 7.02-2.66 11.1-2.67c4.08 0 7.76 0.87 11.05 2.64 3.29 1.76 5.88 4.25 7.79 7.45s2.86 6.88 2.87 11.04c0 2.56-0.59 5.05-1.77 7.46s-2.67 4.34-4.45 5.78h7.11v7.22l-21.45 0.03c-4.58 0-8.61-0.81-12.07-2.46zm17.47-6.78c1.9-0.99 3.4-2.45 4.48-4.38s1.63-4.19 1.62-6.79c0-2.6-0.56-4.89-1.67-6.85s-2.63-3.46-4.55-4.51-4.07-1.57-6.44-1.56c-2.41 0-4.57 0.53-6.5 1.58-1.92 1.05-3.44 2.56-4.57 4.52-1.12 1.96-1.68 4.25-1.68 6.85 0 3.96 1.18 7.06 3.54 9.29 2.35 2.23 5.43 3.34 9.24 3.34 2.45 0 4.62-0.5 6.53-1.5z" fill="#1a1a1a"/>
                    <path class="cls-2" d="m280.04 80.27c-2.45-0.46-4.45-1.08-6.01-1.86v-7.81c2.05 1.01 4.19 1.76 6.4 2.26 2.22 0.5 4.33 0.75 6.35 0.75 2.25 0 3.96-0.39 5.13-1.17 1.16-0.78 1.75-1.87 1.74-3.27 0-1.01-0.29-1.86-0.88-2.56-0.58-0.7-1.43-1.33-2.54-1.89s-2.81-1.31-5.1-2.24c-3.81-1.55-6.57-3.28-8.28-5.21s-2.57-4.3-2.57-7.14c0-2.29 0.61-4.32 1.86-6.09 1.24-1.77 2.99-3.14 5.24-4.12 2.25-0.97 4.85-1.46 7.81-1.47 2.41 0 4.55 0.19 6.41 0.57 1.87 0.39 3.69 0.99 5.48 1.8v7.58c-3.41-1.7-6.83-2.55-10.25-2.55-2.18 0-3.88 0.38-5.13 1.14-1.24 0.76-1.86 1.84-1.86 3.24 0 1.01 0.29 1.84 0.88 2.5 0.58 0.66 1.4 1.24 2.45 1.75 1.05 0.5 2.76 1.24 5.13 2.21 2.76 1.16 4.92 2.28 6.47 3.34 1.55 1.07 2.7 2.33 3.44 3.78 0.74 1.46 1.11 3.25 1.11 5.39 0 3.69-1.32 6.57-3.98 8.63s-6.63 3.1-11.91 3.1c-2.49 0-4.96-0.23-7.4-0.69z" fill="#1a1a1a"/>
                    <path class="cls-2" d="m314.35 80.23c-2.45-0.46-4.45-1.08-6.01-1.86v-7.81c2.05 1.01 4.19 1.76 6.4 2.26 2.22 0.5 4.33 0.75 6.35 0.75 2.25 0 3.96-0.39 5.13-1.17 1.16-0.78 1.75-1.87 1.74-3.27 0-1.01-0.29-1.87-0.88-2.56-0.58-0.7-1.43-1.33-2.54-1.89s-2.81-1.31-5.1-2.24c-3.81-1.55-6.57-3.28-8.28-5.2s-2.57-4.3-2.57-7.14c0-2.29 0.61-4.32 1.86-6.09 1.24-1.77 2.99-3.14 5.24-4.12 2.25-0.97 4.85-1.46 7.81-1.47 2.41 0 4.55 0.19 6.41 0.57s3.69 0.98 5.48 1.8v7.58c-3.41-1.7-6.83-2.55-10.25-2.55-2.18 0-3.88 0.38-5.13 1.14-1.24 0.76-1.86 1.84-1.86 3.24 0 1.01 0.29 1.85 0.88 2.5 0.58 0.66 1.4 1.24 2.45 1.75 1.05 0.5 2.76 1.24 5.13 2.21 2.76 1.16 4.92 2.28 6.47 3.34 1.55 1.07 2.7 2.33 3.44 3.78 0.74 1.46 1.11 3.25 1.11 5.39 0 3.69-1.32 6.57-3.98 8.63s-6.63 3.1-11.91 3.1c-2.49 0-4.96-0.23-7.4-0.69z" fill="#1a1a1a"/>
                </g>
                <g fill="#1a1a1a" stroke="#414042" stroke-miterlimit="10" stroke-width=".2px">
                    <path class="cls-5" d="m172.6 93.89h2.46l6.01 13.16 6.01-13.16h2.46v16.88h-2.39v-12l-5.48 12h-1.21l-5.51-12v12h-2.37v-16.88z"/>
                    <path class="cls-5" d="m193.76 109.88c-0.8-0.84-1.19-1.96-1.19-3.36v-7.34h2.44v7.24c0 1.85 0.93 2.78 2.78 2.78 1.63 0 2.9-0.73 3.82-2.2v-7.82h2.44v11.59h-2.37v-1.64c-0.55 0.69-1.2 1.2-1.94 1.52-0.75 0.32-1.56 0.48-2.43 0.48-1.56 0-2.74-0.42-3.54-1.26z"/>
                    <path class="cls-5" d="m207.17 99.18h2.37v1.67c0.55-0.69 1.22-1.2 2.02-1.53s1.63-0.5 2.5-0.5c1.55 0 2.7 0.41 3.45 1.23 0.76 0.82 1.13 1.92 1.13 3.31v7.41h-2.44v-7.17c0-1.88-0.9-2.83-2.71-2.83-0.77 0-1.49 0.18-2.16 0.54s-1.24 0.91-1.73 1.65v7.8h-2.44v-11.59z"/>
                    <path class="cls-5" d="m222.07 96.5c-0.27-0.27-0.41-0.61-0.41-1.01s0.14-0.74 0.41-1.01 0.61-0.41 1.01-0.41 0.77 0.14 1.05 0.41 0.42 0.61 0.42 1.01-0.14 0.74-0.42 1.01-0.63 0.41-1.05 0.41-0.74-0.14-1.01-0.41zm-0.22 2.68h2.49v11.59h-2.49z"/>
                    <path class="cls-5" d="m230.38 110.41c-1-0.48-1.78-1.19-2.33-2.11-0.56-0.93-0.83-2.02-0.83-3.3s0.28-2.37 0.83-3.3c0.55-0.92 1.34-1.64 2.34-2.14s2.16-0.75 3.46-0.75c1.77 0 3.19 0.35 4.25 1.04v2c-1.05-0.72-2.38-1.09-4.01-1.09-1.32 0-2.39 0.36-3.2 1.08s-1.22 1.77-1.22 3.15 0.4 2.43 1.21 3.14 1.86 1.06 3.16 1.06c1.63 0 3.03-0.39 4.2-1.16v1.98c-0.56 0.39-1.2 0.67-1.92 0.85s-1.56 0.27-2.52 0.27c-1.29 0-2.43-0.24-3.43-0.72z"/>
                    <path class="cls-5" d="m240.9 92.93h2.44v7.85c1.11-1.3 2.59-1.96 4.44-1.96 1.55 0 2.7 0.41 3.45 1.23 0.76 0.82 1.13 1.92 1.13 3.31v7.41h-2.44v-7.17c0-1.88-0.9-2.83-2.71-2.83-0.77 0-1.49 0.18-2.16 0.54s-1.24 0.91-1.73 1.65v7.8h-2.44v-17.84z"/>
                    <path class="cls-5" d="m268.3 109.73c-1.41-0.69-2.5-1.68-3.28-2.96s-1.17-2.77-1.17-4.48 0.39-3.25 1.16-4.58 1.83-2.36 3.19-3.09c1.35-0.73 2.87-1.1 4.54-1.1s3.19 0.37 4.54 1.1 2.42 1.76 3.19 3.09 1.16 2.85 1.16 4.58c0 1.37-0.31 2.62-0.93 3.75s-1.44 2-2.45 2.6h3.65v2.12h-8.72c-1.83 0-3.46-0.35-4.87-1.04zm7.74-1.93c0.97-0.48 1.72-1.2 2.26-2.14s0.81-2.06 0.81-3.37-0.28-2.43-0.84-3.42-1.33-1.75-2.29-2.28-2.04-0.8-3.24-0.8-2.27 0.27-3.25 0.8-1.74 1.29-2.31 2.27c-0.56 0.98-0.85 2.12-0.85 3.43s0.27 2.45 0.81 3.38 1.29 1.64 2.26 2.12 2.08 0.72 3.33 0.72 2.34-0.24 3.31-0.72z"/>
                    <path class="cls-5" d="m285.13 109.88c-0.8-0.84-1.19-1.96-1.19-3.36v-7.34h2.44v7.24c0 1.85 0.93 2.78 2.78 2.78 1.63 0 2.9-0.73 3.82-2.2v-7.82h2.44v11.59h-2.37v-1.64c-0.55 0.69-1.2 1.2-1.94 1.52-0.75 0.32-1.56 0.48-2.43 0.48-1.56 0-2.74-0.42-3.54-1.26z"/>
                    <path class="cls-5" d="m298.96 110.06c-0.85-0.72-1.27-1.69-1.27-2.91 0-1.29 0.41-2.28 1.22-2.98s1.97-1.05 3.47-1.05c1.59 0 2.95 0.32 4.06 0.97v-0.6c0-0.92-0.28-1.6-0.83-2.04s-1.43-0.66-2.62-0.66c-0.71 0-1.4 0.07-2.06 0.21-0.67 0.14-1.27 0.33-1.8 0.57v-1.98c0.48-0.22 1.11-0.41 1.88-0.54s1.52-0.21 2.25-0.21c1.92 0 3.34 0.42 4.26 1.27 0.92 0.84 1.39 2.02 1.39 3.51v7.17h-2.29v-1.3c-0.5 0.55-1.09 0.96-1.78 1.24s-1.52 0.42-2.5 0.42c-1.4 0-2.52-0.36-3.37-1.07zm6.08-1.24c0.63-0.31 1.09-0.73 1.4-1.28v-1.57c-1.05-0.68-2.21-1.01-3.5-1.01-0.93 0-1.63 0.18-2.09 0.54s-0.69 0.91-0.69 1.65c0 1.42 0.92 2.12 2.78 2.12 0.77 0 1.47-0.15 2.1-0.46z"/>
                    <path class="cls-5" d="m311.92 99.18h2.37v1.67c0.55-0.69 1.22-1.2 2.02-1.53s1.63-0.5 2.5-0.5c1.55 0 2.7 0.41 3.45 1.23 0.76 0.82 1.13 1.92 1.13 3.31v7.41h-2.44v-7.17c0-1.88-0.9-2.83-2.71-2.83-0.77 0-1.49 0.18-2.16 0.54s-1.24 0.91-1.73 1.65v7.8h-2.44v-11.59z"/>
                    <path class="cls-5" d="m328.16 110.12c-0.64-0.68-0.95-1.63-0.95-2.87v-6.18h-1.76v-1.88h1.76v-3.48h2.46v3.48h2.85v1.88h-2.85v6.01c0 0.77 0.15 1.32 0.45 1.64s0.84 0.48 1.63 0.48c0.47 0 0.93-0.1 1.4-0.31v1.93c-0.61 0.21-1.37 0.31-2.27 0.31-1.17 0-2.08-0.34-2.72-1.01z"/>
                    <path class="cls-5" d="m336.39 109.88c-0.8-0.84-1.19-1.96-1.19-3.36v-7.34h2.44v7.24c0 1.85 0.93 2.78 2.78 2.78 1.63 0 2.9-0.73 3.82-2.2v-7.82h2.44v11.59h-2.37v-1.64c-0.55 0.69-1.2 1.2-1.94 1.52-0.75 0.32-1.56 0.48-2.43 0.48-1.56 0-2.74-0.42-3.54-1.26z"/>
                    <path class="cls-5" d="m349.8 99.18h2.32v1.67c0.55-0.68 1.17-1.18 1.86-1.52s1.41-0.51 2.15-0.51c0.93 0 1.67 0.16 2.22 0.47s0.95 0.79 1.21 1.44c0.52-0.63 1.15-1.1 1.9-1.42s1.5-0.48 2.26-0.48c1.42 0 2.44 0.36 3.07 1.07 0.63 0.72 0.94 1.77 0.94 3.17v7.7h-2.37v-7.39c0-0.95-0.18-1.62-0.53-2.02-0.35-0.39-0.96-0.59-1.81-0.59-1.22 0-2.22 0.53-2.99 1.59 0.03 0.24 0.05 0.64 0.05 1.18v7.22h-2.37v-7.39c0-0.95-0.16-1.62-0.48-2.02-0.32-0.39-0.9-0.59-1.74-0.59-1.22 0-2.32 0.69-3.28 2.08v7.92h-2.39v-11.59z"/>
                    <path class="cls-5" d="m174.9 136.45c-0.94-0.17-1.71-0.4-2.31-0.69v-2.22c1.54 0.72 3.21 1.09 5 1.09 2.51 0 3.77-0.84 3.77-2.54 0-0.58-0.14-1.05-0.41-1.4s-0.67-0.66-1.18-0.93-1.35-0.63-2.51-1.1c-1.59-0.64-2.75-1.35-3.45-2.12-0.71-0.77-1.06-1.75-1.06-2.92 0-0.88 0.24-1.67 0.72-2.35s1.16-1.22 2.03-1.59 1.87-0.57 2.99-0.57c0.92 0 1.75 0.07 2.49 0.22s1.46 0.38 2.17 0.7v2.12c-1.4-0.63-2.82-0.94-4.25-0.94-1.16 0-2.04 0.21-2.66 0.63-0.61 0.42-0.92 1.01-0.92 1.79 0 0.53 0.13 0.98 0.4 1.34s0.66 0.68 1.18 0.97 1.3 0.63 2.33 1.05c1.14 0.47 2.04 0.91 2.71 1.33 0.66 0.42 1.16 0.93 1.51 1.53s0.52 1.36 0.52 2.26c0 1.46-0.52 2.6-1.57 3.41-1.05 0.8-2.59 1.21-4.64 1.21-0.97 0-1.92-0.08-2.86-0.25z"/>
                    <path class="cls-5" d="m188.93 135.96c-0.99-0.49-1.76-1.2-2.32-2.12-0.56-0.93-0.83-2.02-0.83-3.27s0.27-2.33 0.82-3.26 1.32-1.65 2.32-2.16 2.15-0.76 3.45-0.76 2.45 0.25 3.45 0.76 1.77 1.23 2.33 2.16c0.55 0.93 0.83 2.02 0.83 3.26s-0.28 2.35-0.83 3.27c-0.56 0.93-1.33 1.63-2.33 2.12s-2.15 0.74-3.45 0.74-2.45-0.25-3.44-0.74zm6.43-2.35c0.74-0.77 1.11-1.79 1.11-3.04s-0.37-2.33-1.11-3.09-1.74-1.14-2.99-1.14-2.25 0.38-2.99 1.14-1.11 1.79-1.11 3.09 0.37 2.27 1.11 3.04 1.74 1.16 2.99 1.16 2.25-0.39 2.99-1.16z"/>
                    <path class="cls-5" d="m201.59 126.63h-1.76v-1.88h1.76v-2.27c0-1.34 0.38-2.35 1.13-3.05 0.76-0.7 1.77-1.05 3.04-1.05 0.66 0 1.28 0.1 1.86 0.29v2.03c-0.45-0.21-0.92-0.31-1.4-0.31-0.76 0-1.31 0.18-1.67 0.54-0.35 0.36-0.53 0.93-0.53 1.7v2.12h2.9v1.88h-2.9v9.71h-2.44v-9.71z"/>
                    <path class="cls-5" d="m210.23 135.69c-0.64-0.68-0.95-1.63-0.95-2.87v-6.18h-1.76v-1.88h1.76v-3.48h2.46v3.48h2.85v1.88h-2.85v6.01c0 0.77 0.15 1.32 0.45 1.64s0.84 0.48 1.63 0.48c0.47 0 0.93-0.1 1.4-0.31v1.93c-0.61 0.21-1.37 0.31-2.27 0.31-1.17 0-2.08-0.34-2.72-1.01z"/>
                    <path class="cls-5" d="m216.42 124.75h2.49l2.61 8.6 2.58-8.6h2.2l2.58 8.6 2.61-8.6h2.51l-3.77 11.59h-2.34l-2.68-8.64-2.68 8.64h-2.37z"/>
                    <path class="cls-5" d="m236.11 135.63c-0.85-0.72-1.27-1.69-1.27-2.91 0-1.29 0.41-2.28 1.22-2.98s1.97-1.05 3.47-1.05c1.59 0 2.95 0.32 4.06 0.97v-0.6c0-0.92-0.28-1.6-0.83-2.04s-1.43-0.66-2.62-0.66c-0.71 0-1.4 0.07-2.06 0.21-0.67 0.14-1.27 0.33-1.8 0.57v-1.98c0.48-0.22 1.11-0.41 1.88-0.54s1.52-0.21 2.25-0.21c1.92 0 3.34 0.42 4.26 1.27 0.92 0.84 1.39 2.02 1.39 3.51v7.17h-2.29v-1.3c-0.5 0.55-1.09 0.96-1.78 1.24s-1.52 0.42-2.5 0.42c-1.4 0-2.52-0.36-3.37-1.07zm6.08-1.25c0.63-0.31 1.09-0.73 1.4-1.28v-1.57c-1.05-0.68-2.21-1.01-3.5-1.01-0.93 0-1.63 0.18-2.09 0.54s-0.69 0.91-0.69 1.65c0 1.42 0.92 2.12 2.78 2.12 0.77 0 1.47-0.15 2.1-0.46z"/>
                    <path class="cls-5" d="m249.07 124.75h2.37v2.08c0.48-0.71 1.16-1.23 2.04-1.57s1.9-0.51 3.05-0.51v1.91c-1.24 0-2.3 0.2-3.19 0.6s-1.5 1.04-1.83 1.91v7.17h-2.44z"/>
                    <path class="cls-5" d="m259.32 135.1c-1.21-1.07-1.82-2.58-1.82-4.53s0.54-3.4 1.63-4.51 2.64-1.67 4.65-1.67c1.34 0 2.47 0.25 3.41 0.76 0.93 0.51 1.64 1.21 2.11 2.1s0.71 1.91 0.71 3.05v1.21h-10.19c0.08 1.09 0.54 1.91 1.39 2.45s1.99 0.81 3.44 0.81c0.74 0 1.49-0.07 2.25-0.21s1.42-0.32 2-0.54v1.96c-0.51 0.21-1.2 0.38-2.04 0.52s-1.68 0.21-2.5 0.21c-2.14 0-3.82-0.54-5.04-1.61zm8.39-5.31c-0.03-1.09-0.39-1.94-1.08-2.55-0.68-0.6-1.65-0.91-2.91-0.91s-2.17 0.31-2.85 0.94-1.03 1.46-1.06 2.51h7.9z"/>
                    <path class="cls-5" d="m283.41 136.45c-0.94-0.17-1.71-0.4-2.31-0.69v-2.22c1.54 0.72 3.21 1.09 5 1.09 2.51 0 3.77-0.84 3.77-2.54 0-0.58-0.14-1.05-0.41-1.4s-0.67-0.66-1.18-0.93-1.35-0.63-2.51-1.1c-1.59-0.64-2.75-1.35-3.45-2.12-0.71-0.77-1.06-1.75-1.06-2.92 0-0.88 0.24-1.67 0.72-2.35s1.16-1.22 2.03-1.59 1.87-0.57 2.99-0.57c0.92 0 1.75 0.07 2.49 0.22s1.46 0.38 2.17 0.7v2.12c-1.4-0.63-2.82-0.94-4.25-0.94-1.16 0-2.04 0.21-2.66 0.63-0.61 0.42-0.92 1.01-0.92 1.79 0 0.53 0.13 0.98 0.4 1.34s0.66 0.68 1.18 0.97 1.3 0.63 2.33 1.05c1.14 0.47 2.04 0.91 2.71 1.33 0.66 0.42 1.16 0.93 1.51 1.53s0.52 1.36 0.52 2.26c0 1.46-0.52 2.6-1.57 3.41-1.05 0.8-2.59 1.21-4.64 1.21-0.97 0-1.92-0.08-2.86-0.25z"/>
                    <path class="cls-5" d="m296.04 135.69c-0.64-0.68-0.95-1.63-0.95-2.87v-6.18h-1.76v-1.88h1.76v-3.48h2.46v3.48h2.85v1.88h-2.85v6.01c0 0.77 0.15 1.32 0.45 1.64s0.84 0.48 1.63 0.48c0.47 0 0.93-0.1 1.4-0.31v1.93c-0.61 0.21-1.37 0.31-2.27 0.31-1.17 0-2.08-0.34-2.72-1.01z"/>
                    <path class="cls-5" d="m303.75 135.63c-0.85-0.72-1.27-1.69-1.27-2.91 0-1.29 0.41-2.28 1.22-2.98s1.97-1.05 3.47-1.05c1.59 0 2.95 0.32 4.06 0.97v-0.6c0-0.92-0.28-1.6-0.83-2.04s-1.43-0.66-2.62-0.66c-0.71 0-1.4 0.07-2.06 0.21-0.67 0.14-1.27 0.33-1.8 0.57v-1.98c0.48-0.22 1.11-0.41 1.88-0.54s1.52-0.21 2.25-0.21c1.92 0 3.34 0.42 4.26 1.27 0.92 0.84 1.39 2.02 1.39 3.51v7.17h-2.29v-1.3c-0.5 0.55-1.09 0.96-1.78 1.24s-1.52 0.42-2.5 0.42c-1.4 0-2.52-0.36-3.37-1.07zm6.07-1.25c0.63-0.31 1.09-0.73 1.4-1.28v-1.57c-1.05-0.68-2.21-1.01-3.5-1.01-0.93 0-1.63 0.18-2.09 0.54s-0.69 0.91-0.69 1.65c0 1.42 0.92 2.12 2.78 2.12 0.77 0 1.47-0.15 2.1-0.46z"/>
                    <path class="cls-5" d="m318.9 135.98c-1-0.48-1.78-1.19-2.33-2.11-0.56-0.93-0.83-2.02-0.83-3.3s0.28-2.37 0.83-3.3c0.55-0.92 1.34-1.64 2.34-2.14s2.16-0.75 3.46-0.75c1.77 0 3.19 0.35 4.25 1.04v2c-1.05-0.72-2.38-1.09-4.01-1.09-1.32 0-2.39 0.36-3.2 1.08s-1.22 1.77-1.22 3.15 0.4 2.43 1.21 3.14 1.86 1.06 3.16 1.06c1.63 0 3.03-0.39 4.2-1.16v1.98c-0.56 0.39-1.2 0.67-1.92 0.85s-1.56 0.27-2.52 0.27c-1.29 0-2.43-0.24-3.43-0.72z"/>
                    <path class="cls-5" d="m329.42 118.5h2.44v17.84h-2.44zm2.47 11.97 5.34-5.72h2.97l-5.36 5.72 5.92 5.87h-2.97l-5.89-5.87z"/>
                </g>
            </g>
        </g>
        <path class="st0" d="m239.85 62.627c-11.876-3.7254-24.467-5.6857-37.246-5.6857-22.954 0-45.331 6.2957-64.014 17.87v6.2794c18.383-12.201 40.873-18.887 64.014-18.887 12.803 0 25.419 2.0498 37.246 5.9378z" fill="#3070b3" stroke-width=".8134"/>
        <path class="st0" d="m239.99 96.562c-11.867 3.9206-24.524 5.9866-37.384 5.9866-23.141 0-45.632-6.678-64.014-18.887v6.2794c18.676 11.575 41.052 17.87 64.014 17.87 13.185 0 26.167-2.0823 38.376-6.0436-0.49616-1.6349-0.82154-3.3756-0.99234-5.2058z" fill="#3070b3" stroke-width=".8134"/>
        <path class="st1" d="m265.18 111.65c-2.7737 0-5.2871-0.4311-7.5483-1.2852s-4.1971-2.066-5.7914-3.6278c-1.6024-1.5617-2.8387-3.4488-3.7172-5.6775-0.87847-2.2206-1.3177-4.7014-1.3177-7.4345v-25.516h8.1909v25.476c0 2.1392 0.34976 3.9124 1.0574 5.3196 0.69952 1.399 1.5698 2.5134 2.6029 3.3268 1.033 0.82153 2.1474 1.3828 3.3349 1.6919 1.1876 0.30909 2.2531 0.47177 3.1885 0.47177s2.001-0.15454 3.1885-0.47177c1.1876-0.30909 2.3019-0.87847 3.3349-1.6919 1.033-0.8134 1.9033-1.9278 2.6029-3.3268 0.69952-1.399 1.0574-3.1723 1.0574-5.3196v-25.476h8.1909v25.516c0 2.733-0.4311 5.2058-1.2852 7.4345-0.85409 2.2206-2.0904 4.1158-3.6847 5.6775-1.6024 1.5617-3.5302 2.7737-5.7914 3.6278-2.2694 0.85407-4.799 1.2852-7.6134 1.2852z" fill="#3c3c3c" stroke-width=".8134"/>
        <path class="st1" d="m433.66 111.71c-2.7737 0-5.2871-0.4311-7.5483-1.2852s-4.1971-2.066-5.7914-3.6278c-1.6024-1.5617-2.8388-3.457-3.7172-5.6775-0.87847-2.2206-1.3177-4.7014-1.3177-7.4345v-25.516h8.1909v25.476c0 2.1392 0.34976 3.9124 1.0574 5.3196 0.69952 1.399 1.5698 2.5134 2.6029 3.3268 1.033 0.82153 2.1474 1.3828 3.335 1.6919 1.1876 0.30909 2.2531 0.46364 3.1885 0.46364s2.001-0.15455 3.1885-0.46364c1.1876-0.30909 2.3019-0.87847 3.3349-1.6919 1.033-0.82153 1.9034-1.9278 2.6029-3.3268 0.69952-1.399 1.0574-3.1723 1.0574-5.3196v-25.476h8.1909v25.516c0 2.733-0.4311 5.2058-1.2852 7.4345-0.86221 2.2206-2.0904 4.1158-3.6847 5.6775-1.6024 1.5617-3.5301 2.7737-5.7914 3.6278-2.2612 0.85407-4.8072 1.2852-7.6134 1.2852z" fill="#3c3c3c" stroke-width=".8134"/>
        <path class="st1" d="m284.53 110.92 22.027-42.874h0.84594l21.84 42.817h-8.9148l-13.364-26.777-13.405 26.81c9e-3 0-9.0287-0.0813-9.0287 0.0243z" fill="#3c3c3c" stroke-width=".8134"/>
        <path class="st1" d="m254.67 116.47c-0.71578-0.26841-1.399-0.56938-2.0579-0.89474-10.891 16.732-29.746 27.834-51.163 27.834-33.65 0-61.021-27.379-61.021-61.021 0-33.642 27.379-61.021 61.021-61.021 26.248 0 48.657 16.675 57.247 39.979h8.6058c-8.9311-27.867-35.057-48.113-65.853-48.113-38.132 0-69.155 31.023-69.155 69.155 0 38.132 31.023 69.155 69.155 69.155 25.11 0 47.128-13.454 59.248-33.52-0.25209-0.0488-0.49619-0.11387-0.74019-0.1708-1.8627-0.29283-3.6278-0.74833-5.2871-1.3828z" fill="#3c3c3c" stroke-width=".8134"/>
        <polygon class="st1" transform="matrix(.8134 0 0 .8134 81.43 -73.219)" points="309.44 173.75 309.44 226.31 319.51 226.31 319.51 195.04 354.08 226.31 355.2 226.31 355.2 173.75 345.13 173.75 345.13 205.55 310.52 173.75" fill="#3c3c3c"/>
        <polygon class="st1" transform="matrix(.8134 0 0 .8134 81.43 -73.219)" points="403.54 182.67 403.54 173.75 363.32 173.75 363.32 182.67 378.43 182.67 378.43 226.31 388.5 226.31 388.5 182.67" fill="#3c3c3c"/>
        <polygon class="st1" transform="matrix(.8134 0 0 .8134 81.43 -73.219)" points="518.74 173.82 518.09 173.82 492.19 204.18 466.36 173.82 465.71 173.82 465.71 226.31 475.78 226.31 475.78 199.79 492.19 219.58 508.66 199.79 508.66 226.31 518.74 226.31" fill="#3c3c3c"/>
        <path class="st1" d="m283.55 137.17c-1.7 0.21148-3.4325 0.36602-5.1488 0.46363-20.498 1.1794-40.231-5.7019-55.555-19.367s-24.418-32.479-25.59-52.985c-0.87847-15.381 2.7981-30.478 10.647-43.663l-6.9871-4.1646c-8.679 14.584-12.754 31.275-11.778 48.284 1.3014 22.669 11.347 43.476 28.298 58.589 15.707 14.007 35.594 21.563 56.466 21.563 1.6512 0 3.3105-0.0488 4.9698-0.14643 1.5617-0.0895 3.1234-0.23588 4.6771-0.4067z" fill="#3c3c3c" stroke-width=".8134"/>
        <path class="st0" d="m323.3 131.24h-12.242v35.611h-8.1991v-35.611h-12.299v-7.2636h32.739z" fill="#3070b3" stroke-width=".8134"/>
        <path class="st0" d="m457.94 159.58v7.2636h-30.86v-42.866h8.1991v35.611h22.661z" fill="#3070b3" stroke-width=".8134"/>
        <path class="st0" d="m490.45 166.85-17.976-19.505v19.505h-8.1991v-42.866h8.1991v21.783l17.041-21.726h10.07l-17.626 22.141 19.326 20.677h-10.834z" fill="#3070b3" stroke-width=".8134"/>
        <path class="st0" d="m516.68 166.85h-8.1991v-42.809h8.1991z" fill="#3070b3" stroke-width=".8134"/>
        <path class="st0" d="m555.63 131.24h-12.242v35.611h-8.1991v-35.611h-12.299v-7.2636h32.739z" fill="#3070b3" stroke-width=".8134"/>
        <path class="st0" d="m368.51 136.78c-1.1713-2.7086-2.7656-5.0756-4.7747-7.0847-2.0091-2.0091-4.3598-3.6034-7.0603-4.7746-2.6924-1.1713-5.5881-1.7569-8.6708-1.7569-2.123 0-4.1646 0.29282-6.1167 0.86221l3.4651 7.0847c0.8622-0.17896 1.7569-0.27656 2.6761-0.27656 1.944 0 3.766 0.39856 5.466 1.2038 1.6919 0.79713 3.1722 1.8627 4.4411 3.1885s2.2694 2.8794 3.0096 4.6526 1.1144 3.6196 1.1144 5.5311c0 1.9522-0.37417 3.8067-1.1144 5.5636s-1.7407 3.3105-3.0096 4.6526c-1.2689 1.3502-2.7493 2.4239-4.4411 3.2211s-3.5139 1.2038-5.466 1.2038-3.766-0.39857-5.466-1.2038c-1.6919-0.79713-3.1723-1.8708-4.4412-3.2211s-2.2694-2.8957-3.0096-4.6526c-0.74022-1.7569-1.1144-3.6115-1.1144-5.5636 0-1.9115 0.37414-3.7579 1.1144-5.5311 0.74019-1.7732 1.7406-3.3268 3.0096-4.6526 0.13004-0.13828 0.26838-0.2603 0.40672-0.39043l-3.5952-7.345c-0.91915 0.67512-1.7895 1.3909-2.6029 2.1962-2.0091 2.0091-3.6033 4.3761-4.7746 7.0847-1.1713 2.7168-1.7569 5.5962-1.7569 8.6383 0 3.0828 0.58565 5.9704 1.7569 8.6708 1.1713 2.6924 2.7656 5.0431 4.7746 7.0603 2.0091 2.0091 4.3598 3.6034 7.0603 4.7746 2.6924 1.1713 5.5636 1.7569 8.6058 1.7569 3.0828 0 5.9703-0.58564 8.6708-1.7569 2.6924-1.1713 5.0431-2.7656 7.0603-4.7746 2.0091-2.0091 3.6033-4.3598 4.7746-7.0603 1.1713-2.6924 1.7569-5.5799 1.7569-8.6708 9e-3 -3.0421-0.5775-5.9215-1.7488-8.6302z" fill="#3070b3" stroke-width=".8134"/>
        <path class="st0" d="m417.98 136.78c-1.1713-2.7086-2.7656-5.0756-4.7747-7.0847-2.0091-2.0091-4.3598-3.6034-7.0603-4.7746-2.6924-1.1713-5.5881-1.7569-8.6708-1.7569-2.123 0-4.1646 0.29282-6.1168 0.86221l3.4651 7.0847c0.86221-0.17896 1.7569-0.27656 2.6761-0.27656 1.944 0 3.766 0.39856 5.466 1.2038 1.6919 0.79713 3.1722 1.8627 4.4411 3.1885s2.2694 2.8794 3.0096 4.6526 1.1144 3.6196 1.1144 5.5311c0 1.9522-0.37417 3.8067-1.1144 5.5636s-1.7407 3.3105-3.0096 4.6526c-1.2689 1.3502-2.7493 2.4239-4.4411 3.2211-1.6919 0.79713-3.5139 1.2038-5.466 1.2038s-3.766-0.39857-5.466-1.2038c-1.6919-0.79713-3.1723-1.8708-4.4412-3.2211s-2.2694-2.8957-3.0096-4.6526c-0.74019-1.7569-1.1143-3.6115-1.1143-5.5636 0-1.9115 0.37414-3.7579 1.1143-5.5311 0.74022-1.7732 1.7407-3.3268 3.0096-4.6526 0.13004-0.13828 0.26838-0.2603 0.40669-0.39043l-3.5952-7.345c-0.91914 0.67512-1.7895 1.3909-2.6029 2.1962-2.0091 2.0091-3.6033 4.3761-4.7746 7.0847-1.1713 2.7168-1.757 5.5962-1.757 8.6383 0 3.0828 0.58565 5.9704 1.757 8.6708 1.1713 2.6924 2.7655 5.0431 4.7746 7.0603 2.0091 2.0091 4.3598 3.6034 7.0603 4.7746 2.6924 1.1713 5.5636 1.7569 8.6058 1.7569 3.0828 0 5.9704-0.58564 8.6708-1.7569 2.6924-1.1713 5.0431-2.7656 7.0603-4.7746 2.0091-2.0091 3.6033-4.3598 4.7746-7.0603 1.1713-2.6924 1.7569-5.5799 1.7569-8.6708 9e-3 -3.0421-0.5775-5.9215-1.7488-8.6302z" fill="#3070b3" stroke-width=".8134"/>
        <g transform="matrix(.8134 0 0 .8134 272.64 54.969)" fill="#3070b3">
            <path class="st0" d="m102.64 0-20.726-18.705v18.705h-5.977v-31.433h0.645l20.683 19.006v-19.006h6.02v31.433z"/>
            <path class="st0" d="m55.556 0.559q-3.053 0-5.547-0.946t-4.257-2.666-2.752-4.171q-0.946-2.451-0.946-5.461v-18.748h6.02v18.748q0 2.365 0.774 3.913t1.892 2.451q1.161 0.903 2.451 1.247 1.333 0.344 2.365 0.344t2.322-0.344q1.333-0.344 2.451-1.247 1.161-0.903 1.935-2.451t0.774-3.913v-18.748h6.02v18.748q0 3.01-0.946 5.461t-2.709 4.171-4.257 2.666-5.59 0.946z"/>
            <path class="st0" d="m35.131-31.433v31.433h-6.02v-15.91l-9.847 11.825-9.804-11.825v15.91h-6.02v-31.433h0.387l15.437 18.146 15.48-18.146z"/>
            <path class="st0" d="m117.05 0h-6.02v-31.433h6.02z"/>
            <path class="st0" d="m184.9-31.476v31.476h-5.977v-12.513h-15.566v12.513h-5.977v-31.476h5.977v13.588h15.566v-13.588z"/>
            <path class="st0" d="m152.74-7.74q-1.032 1.892-2.537 3.44-1.505 1.505-3.354 2.623-1.806 1.075-3.956 1.677-2.107 0.602-4.386 0.602-3.354 0-6.321-1.29t-5.203-3.483q-2.193-2.236-3.483-5.203t-1.29-6.321 1.29-6.321 3.483-5.16q2.236-2.236 5.203-3.526t6.321-1.29q2.279 0 4.386 0.602 2.15 0.602 3.956 1.72 1.849 1.075 3.354 2.623 1.505 1.505 2.537 3.354l-5.633 2.279q-0.688-1.032-1.634-1.935-0.903-0.903-2.021-1.591t-2.365-1.075-2.58-0.387q-2.15 0-4.042 0.903-1.849 0.86-3.225 2.322t-2.193 3.44q-0.817 1.935-0.817 4.042 0 2.15 0.817 4.085t2.193 3.397 3.225 2.365q1.892 0.86 4.042 0.86 1.333 0 2.58-0.387t2.365-1.075 2.021-1.591q0.946-0.946 1.634-1.978z"/>
        </g>
    </g>
</svg>
